<?xml version="1.0" standalone="no"?>
<!DOCTYPE svg PUBLIC "-//W3C//DTD SVG 1.1//EN" "http://www.w3.org/Graphics/SVG/1.1/DTD/svg11.dtd" >
<svg xmlns="http://www.w3.org/2000/svg">
<metadata></metadata>
<defs>
<font id="genevabold" horiz-adv-x="47" >
<font-face units-per-em="2048" ascent="1638" descent="-410" />
<missing-glyph horiz-adv-x="765" />
<glyph horiz-adv-x="0" />
<glyph unicode="&#xd;" horiz-adv-x="765" />
<glyph unicode=" "  horiz-adv-x="765" />
<glyph unicode="&#x09;" horiz-adv-x="765" />
<glyph unicode="&#xa0;" horiz-adv-x="765" />
<glyph unicode="!" horiz-adv-x="402" d="M4 969v371h349v-371l-93 -490h-163zM8 4v332h336v-332h-336z" />
<glyph unicode="&#x22;" horiz-adv-x="842" d="M13 899v176l4 -4q81 0 124.5 55t43.5 117l4 13h-176v327h331v-315q0 -126 -61 -245q-31 -61 -98 -92.5t-172 -31.5zM445 899v176l4 -4q80 0 124 56t44 116l4 13h-176v327h331v-315q0 -126 -61 -245q-31 -61 -98 -92.5t-172 -31.5z" />
<glyph unicode="#" horiz-adv-x="1534" d="M21 193l39 207h301l51 297h-295l43 211h297l55 296h215l-55 -296h293l55 296h213l-57 -296h297l-45 -211h-291l-62 -297h297l-41 -207h-294l-56 -290h-217l60 290h-291l-58 -290h-219l60 290h-295zM568 400h297l55 297h-291z" />
<glyph unicode="$" horiz-adv-x="1137" d="M13 441h331q0 -67 38.5 -124t121.5 -57v295q-140 37 -234 82.5t-154 130.5t-60 213l-5 6q0 159 80 245t178.5 113t186.5 27v121h141v-121q97 0 195.5 -41t165.5 -133t67 -229v-12h-297q0 31 -7 54.5t-25 48.5q-33 46 -103 52v-280q186 -44 285.5 -114.5t134.5 -154 t35 -178.5q0 -79 -19 -141t-56 -108q-72 -90 -172 -124q-57 -19 -104.5 -28t-99.5 -9v-151h-141v151q-228 0 -355.5 122.5t-127.5 343.5zM377 991q0 -107 127 -126v247q-47 0 -87 -30t-40 -91zM633 256q52 0 93.5 39t41.5 96q0 67 -42 99.5t-93 42.5v-277z" />
<glyph unicode="%" horiz-adv-x="1657" d="M8 991q0 107 37.5 194t114.5 137t184 50q113 0 189.5 -51.5t113.5 -138t37 -191.5q0 -54 -9 -101.5t-29 -92.5q-39 -88 -116 -138t-186 -50q-108 0 -183.5 50.5t-114 138t-38.5 193.5zM201 991q0 -107 43.5 -156.5t99.5 -49.5q58 0 103 49.5t45 156.5q0 89 -38 147 t-110 58h-8q-65 0 -100 -60.5t-35 -144.5zM240 -43l313 488l672 1048l160 -104l-318 -492l-671 -1041zM940 348q0 170 88.5 276.5t243.5 106.5q158 0 247 -105.5t89 -277.5q0 -177 -93 -277t-243 -100q-103 0 -176.5 45.5t-114.5 132t-41 199.5zM1125 348 q0 -103 45.5 -155.5t101.5 -52.5q58 0 103 52t45 156q0 91 -38 149t-110 58q-70 0 -108.5 -59t-38.5 -148z" />
<glyph unicode="&#x26;" horiz-adv-x="1301" d="M21 377q0 154 75 246t211 153q-102 122 -102 261q0 96 44 170.5t125 115.5t185 41h13q81 0 144 -24.5t108 -72.5q88 -94 88 -235q0 -121 -65.5 -203.5t-149.5 -123.5l147 -189q28 48 41 109h270q-31 -172 -147 -322l239 -299h-358l-78 101q-44 -47 -135.5 -90.5 t-226.5 -43.5q-209 0 -318.5 115t-109.5 291zM328 400l4 -4q0 -67 44.5 -111.5t123.5 -44.5q89 0 160 63l-199 269q-41 -11 -87 -58.5t-46 -113.5zM465 1053l4 -8q0 -48 35 -101q14 -14 29 -36l8 -12l8 -11q58 21 94.5 61.5t36.5 94.5v8q0 47 -29 78.5t-79 31.5t-78.5 -31.5 t-28.5 -74.5z" />
<glyph unicode="'" horiz-adv-x="402" d="M21 920v172q87 0 131.5 51.5t44.5 120.5v12h-176v324h332v-312q0 -129 -61 -247q-31 -59 -98.5 -90t-172.5 -31z" />
<glyph unicode="(" horiz-adv-x="570" d="M4 580q0 112 15.5 212.5t47.5 205.5q15 50 35.5 103t46.5 110q49 111 115 233h248q-200 -517 -200 -864q0 -180 49 -391.5t151 -469.5h-248q-44 81 -80.5 156.5t-65.5 145.5q-55 133 -84.5 270.5t-29.5 288.5z" />
<glyph unicode=")" horiz-adv-x="570" d="M8 -281q58 145 98.5 271.5t61.5 225.5q41 202 41 364q0 47 -3 93t-11 107q-15 115 -60 284q-23 86 -53.5 178.5t-73.5 201.5h244q104 -191 161 -342.5t78 -272.5t21 -249q0 -103 -10.5 -188.5t-39.5 -187.5q-13 -47 -34 -106t-46 -116q-53 -126 -130 -263h-244z" />
<glyph unicode="*" horiz-adv-x="692" d="M21 1192l47 148l188 -72v217h148v-217l188 72l49 -148l-188 -71l119 -168l-119 -93l-121 172l-123 -172l-121 93l121 168z" />
<glyph unicode="+" horiz-adv-x="1137" d="M13 559v226h419v419h224v-419h419v-226h-419v-424h-224v424h-419z" />
<glyph unicode="," horiz-adv-x="402" d="M4 25v332h336v-314q0 -126 -61.5 -248.5t-274.5 -122.5v176q93 0 134.5 52.5t41.5 124.5h-176z" />
<glyph unicode="-" horiz-adv-x="713" d="M4 428v256h660v-256h-660z" />
<glyph unicode="." horiz-adv-x="402" d="M4 4v353h336v-353h-336z" />
<glyph unicode="/" horiz-adv-x="1305" d="M17 -164l440 760l608 1049l174 -101l-442 -759l-604 -1045z" />
<glyph unicode="0" horiz-adv-x="1196" d="M17 672q0 238 67.5 382.5t163.5 210.5t179.5 82.5t148.5 16.5q183 0 370 -128t187 -564q0 -435 -188 -564t-369 -129q-99 0 -220.5 39t-230 193.5t-108.5 460.5zM353 672q0 -96 4 -135q0 -153 59 -233.5t160 -80.5q102 0 161.5 80t59.5 234q4 37 4 135v21v17v15v12 q0 43 -4 64q0 151 -59.5 231t-161.5 80t-159 -77q-60 -81 -60 -234q-4 -36 -4 -129z" />
<glyph unicode="1" horiz-adv-x="697" d="M21 920v180l6 -2l6 -2q122 0 226.5 58.5t131.5 185.5h256v-1336h-335v916h-291z" />
<glyph unicode="2" horiz-adv-x="1090" d="M8 893q0 105 42 211t157.5 181t312.5 75l13 4q214 0 324 -79t140.5 -171t30.5 -161v-13q0 -89 -25.5 -156t-70 -116t-95.5 -84q-47 -31 -140 -84l-56 -35l-65 -37q-38 -22 -67.5 -42.5t-45.5 -36.5q-34 -34 -47 -72h608v-273h-1003l-2 19l-2 18q0 126 42 219t130 175 q42 40 104 87t139 99l80 57q33 24 52 38q23 17 40 32q45 42 69 89.5t24 98.5q0 77 -41.5 131t-135.5 54h-12q-68 0 -130 -53t-62 -171l2 -14l2 -18h-307l-3 14z" />
<glyph unicode="3" horiz-adv-x="1133" d="M21 471h315q0 -92 31 -149.5t79 -82t99 -24.5l10 4q92 0 138 52q24 26 37.5 59t13.5 74v4q0 101 -64 138.5t-117 37.5h-118v217q15 0 24 -2l23 -2q109 0 172 35.5t63 132.5q0 70 -45 117t-137 47h-12q-74 0 -135.5 -53.5t-61.5 -172.5l2 -7l2 -7h-299q0 106 37.5 211.5 t150 182.5t312.5 77h18q168 0 274.5 -51t152.5 -132t46 -181v-15q0 -119 -66.5 -188.5t-160.5 -87.5v-21q108 -14 189 -90.5t81 -220.5q0 -81 -28.5 -149t-89.5 -121t-155 -84q-47 -16 -106.5 -26t-123.5 -10h-35q-60 0 -113.5 8t-112.5 27q-110 33 -198 142 q-45 56 -68.5 133t-23.5 178z" />
<glyph unicode="4" horiz-adv-x="1157" d="M13 293v270l608 777h307v-787h172v-260h-172v-289h-319v289h-596zM264 553h357v408l16 104h-16l-53 -112z" />
<glyph unicode="5" horiz-adv-x="1112" d="M17 400h315q9 -66 51.5 -125.5t132.5 -59.5q74 0 119.5 41t63.5 100t18 115q0 99 -53 168.5t-135 69.5h-13q-51 0 -96.5 -25.5t-62.5 -66.5h-316l80 723h844v-279h-633l-16 -180l-19 -53h6q112 88 285 88h21q62 0 117 -14.5t109 -43.5q100 -54 157 -153.5t57 -235.5 q0 -129 -53 -240.5t-173 -180.5t-298 -69q-130 0 -226 32.5t-155.5 97.5t-91.5 134q-35 77 -35 157z" />
<glyph unicode="6" horiz-adv-x="1137" d="M17 621l2 18l2 25q0 112 18 204t53 170q64 143 153.5 212.5t173.5 90.5q46 12 84.5 17.5t76.5 5.5h8q155 0 253 -56.5t145 -136.5q22 -37 36.5 -75.5t22.5 -79.5h-285q-11 54 -61.5 87.5t-106.5 33.5h-8q-80 0 -149 -58t-87 -214l-16 -54h12q100 109 277 109h8 q115 0 217 -49.5t163.5 -151t61.5 -248.5v-18q0 -72 -15 -134t-47 -116q-61 -105 -174 -164q-57 -29 -122 -44.5t-137 -15.5h-27q-114 0 -232.5 44.5t-209 187t-90.5 410.5zM336 469q0 -62 16 -109t47 -81q59 -64 154 -64l2 -2q115 0 172.5 77.5t57.5 178.5 q0 111 -64.5 181.5t-161.5 70.5h-4q-89 0 -154 -63.5t-65 -188.5z" />
<glyph unicode="7" horiz-adv-x="1028" d="M21 1061v279h960v-252q-66 -73 -123.5 -155t-100.5 -167q-86 -172 -125 -320.5t-51.5 -261.5t-12.5 -180h-349q0 73 12 147t37 171q42 172 136.5 362t251.5 377h-635z" />
<glyph unicode="8" horiz-adv-x="1157" d="M25 385q0 141 70 216t153 100v20q-84 30 -134 101.5t-50 173.5q0 93 48 178t160 137.5t287 52.5q178 0 288 -52.5t160 -136.5t50 -179q0 -99 -52 -171.5t-136 -103.5v-20q79 -26 151 -100.5t72 -215.5q0 -166 -115 -286t-418 -120t-418.5 120t-115.5 286zM353 412 q0 -80 49.5 -138.5t156.5 -58.5q102 0 151.5 58.5t49.5 138.5q0 77 -44 137t-157 60q-79 0 -125.5 -32t-63.5 -78t-17 -87zM377 957q0 -100 60 -136t122 -36q58 0 117 36t59 136v8q0 60 -32 98q-28 37 -68 51.5t-76 14.5q-65 0 -119.5 -37t-54.5 -127z" />
<glyph unicode="9" horiz-adv-x="1137" d="M17 873q0 110 35 199t101 154.5t161.5 101.5t205.5 36q118 0 238 -39t216.5 -183t96.5 -425v-45q0 -111 -18 -203t-53 -168q-63 -142 -151.5 -210t-174.5 -89q-41 -10 -84 -16.5t-78 -6.5h-12q-227 0 -329.5 108.5t-123.5 228.5h289q15 -56 64 -87.5t112 -31.5 q100 0 158.5 70.5t73.5 203.5l16 49h-8q-32 -32 -100 -69q-33 -18 -79.5 -28.5t-97.5 -10.5q-121 0 -222 49t-166 153q-33 53 -49.5 114.5t-16.5 136.5zM307 881l2 -6l3 -6q0 -117 61.5 -186.5t163.5 -69.5q89 0 154 61.5t65 181.5v13q0 95 -48 173q-25 39 -66.5 59 t-104.5 20l-8 -5q-113 0 -167.5 -73t-54.5 -162z" />
<glyph unicode=":" horiz-adv-x="402" d="M4 4v353h336v-353h-336zM4 617v356h336v-356h-336z" />
<glyph unicode=";" horiz-adv-x="402" d="M4 25v332h336v-314q0 -120 -61 -241q-31 -61 -100.5 -95.5t-174.5 -34.5v176q88 0 132 49.5t44 115.5v12h-176zM4 617v356h336v-356h-336z" />
<glyph unicode="&#x3c;" horiz-adv-x="1133" d="M8 572v163l973 562l107 -185l-791 -460l791 -451l-107 -184z" />
<glyph unicode="=" horiz-adv-x="1137" d="M13 348v228h1062v-228h-1062zM13 768v228h1062v-228h-1062z" />
<glyph unicode="&#x3e;" horiz-adv-x="1157" d="M21 201l790 451l-790 460l108 185l971 -562v-163l-971 -555z" />
<glyph unicode="?" horiz-adv-x="1010" d="M13 903q0 457 471 457q86 0 184.5 -18.5t191.5 -97.5t93 -236q0 -191 -156 -299l-45 -31l-43 -31q-121 -68 -121 -186l2 -6l2 -6h-252l-2 19l-2 20q0 181 117 276l48 37l52 39q72 68 72 151v9q0 51 -34.5 94t-106.5 43q-69 0 -116.5 -49.5t-47.5 -171.5l2 -6l2 -7h-311z M293 4v308h332v-308h-332z" />
<glyph unicode="@" horiz-adv-x="1782" d="M13 545v10q0 183 64.5 341t180.5 273t271.5 178.5t330.5 63.5h9q224 0 390.5 -75t270 -200.5t151.5 -270t48 -285.5v-25q0 -81 -16.5 -145.5t-48.5 -118.5q-60 -100 -137.5 -145.5t-137.5 -57.5t-92 -12l-14 -2l-15 -2q-109 0 -168 96q-21 -39 -88.5 -75.5t-179.5 -36.5 l-6 2l-7 2q-113 0 -198 45.5t-132 116t-66 148.5t-19 163q0 192 110 324q55 67 129.5 103t165.5 36h10q129 0 226 -80v45h235l-4 -588q0 -67 12.5 -85.5t42.5 -18.5q100 0 150 83q26 43 40.5 94t14.5 109v8q0 138 -45.5 260t-131.5 214t-208 144t-274 52l-8 4 q-184 0 -336.5 -87.5t-242 -244t-89.5 -350.5q0 -217 94.5 -369t244.5 -227.5t316 -75.5h13q205 0 360 109l92 -160q-106 -66 -212 -94q-56 -15 -112.5 -23t-127.5 -8h-29q-92 0 -172 14t-159 45q-149 58 -261 169t-173.5 267t-61.5 343zM643 537l2 -6l2 -6 q0 -104 43.5 -186.5t153.5 -82.5q97 0 145 77.5t48 191.5q0 109 -39.5 190.5t-149.5 81.5q-97 0 -151 -74t-54 -186z" />
<glyph unicode="A" horiz-adv-x="1364" d="M25 4l104 289l371 1047h332l100 -291l369 -1045h-348l-68 232h-444l-68 -232h-348zM516 471h299l-131 426l-12 127h-16l-15 -127z" />
<glyph unicode="B" horiz-adv-x="1217" d="M17 4v1336h675q159 0 247.5 -54t118.5 -126.5t30 -147.5v-12q0 -65 -32 -127q-28 -55 -77 -93t-110 -55v-12q106 -23 196 -101t90 -235v-8q0 -150 -67 -229.5t-175.5 -107.5t-256.5 -28h-639zM353 269h256l8 -3l8 -2q176 0 176 156q0 152 -176 152h-272v-303zM353 805 h243l4 -4q152 0 152 139q0 81 -43 108t-133 27h-223v-270z" />
<glyph unicode="C" horiz-adv-x="1325" d="M8 688q0 227 74.5 369t182 209t209.5 86q52 10 97.5 15t92.5 5h8q82 0 147.5 -11t123.5 -36q114 -49 180 -125t95 -160q15 -43 24.5 -86t9.5 -81h-328q-11 83 -73.5 140.5t-174.5 57.5q-186 0 -244.5 -132.5t-58.5 -278.5q0 -84 21 -154.5t62 -130.5q38 -56 93 -85.5 t127 -29.5l4 -4q88 0 143 39t81 91q12 24 20 49t8 44h332q-9 -109 -59 -224t-179 -203.5t-354 -88.5q-56 0 -118 10t-133 32q-140 40 -270 197q-66 79 -102 195t-36 263l-3 15z" />
<glyph unicode="D" horiz-adv-x="1280" d="M25 4v1336h571q187 0 311 -62.5t191.5 -164t93 -214.5t25.5 -227v-12q0 -656 -637 -656h-555zM361 299h184q311 0 311 369v8q0 219 -93.5 290t-209.5 71h-192v-738z" />
<glyph unicode="E" horiz-adv-x="1112" d="M4 4v1336h1033v-303h-697v-226h604v-262h-604v-250h713v-295h-1049z" />
<glyph unicode="F" horiz-adv-x="1028" d="M4 4v1336h977v-303h-641v-252h541v-277h-541v-504h-336z" />
<glyph unicode="G" horiz-adv-x="1346" d="M21 672q0 147 35 272t111.5 222.5t201.5 154t295 56.5h12q126 0 238 -41q107 -37 183.5 -105t121 -155t53.5 -183h-340q-7 81 -65.5 146t-178.5 65h-8q-143 0 -223 -118.5t-80 -297.5l2 -12l2 -12q0 -69 17 -148.5t54 -145.5t99.5 -106.5t149.5 -40.5l8 5 q74 0 131.5 36.5t86.5 92.5q15 28 24.5 58t9.5 56h-221v254h544v-721h-247l-9 136h-12q-98 -173 -379 -173h-16q-144 0 -257 55t-188.5 151.5t-115 224.5t-39.5 274z" />
<glyph unicode="H" horiz-adv-x="1178" d="M17 4v1336h336v-488h428v488h335v-1336h-335v545h-428v-545h-336z" />
<glyph unicode="I" horiz-adv-x="426" d="M25 4v1336h336v-1336h-336z" />
<glyph unicode="J" horiz-adv-x="985" d="M4 475l2 17l2 16h332v-67q0 -86 28 -141.5t103 -55.5q81 0 107 51t26 146v899h336v-852q0 -168 -40.5 -273.5t-106.5 -159t-142.5 -71t-166.5 -17.5q-480 0 -480 508z" />
<glyph unicode="K" horiz-adv-x="1301" d="M8 4v1336h336v-525h13l452 525h395l-507 -547l546 -789h-415l-359 549l-125 -137v-412h-336z" />
<glyph unicode="L" horiz-adv-x="965" d="M4 4v1336h336v-1041h572v-295h-908z" />
<glyph unicode="M" horiz-adv-x="1510" d="M25 4v1336h463l229 -795l14 -160h21l16 156l228 799h464v-1336h-315l19 1020h-19l-297 -1020h-211l-297 1020h-24l24 -1020h-315z" />
<glyph unicode="N" horiz-adv-x="1217" d="M17 4v1336h336l432 -760l43 -101h16l-16 101l-4 760h331v-1336h-331l-439 752l-37 104h-20l20 -104l5 -752h-336z" />
<glyph unicode="O" horiz-adv-x="1364" d="M8 672q0 436 216 570.5t440 134.5q81 0 182 -19t210.5 -87t185 -215t75.5 -384q0 -235 -74.5 -380.5t-186.5 -216.5q-108 -67 -210.5 -87.5t-181.5 -20.5q-87 0 -185.5 20t-208 88.5t-186 216.5t-76.5 380zM369 672q0 -408 295 -408q293 0 293 408q0 399 -293 399 q-295 0 -295 -399z" />
<glyph unicode="P" horiz-adv-x="1153" d="M4 4v1336h613q276 0 381.5 -131t105.5 -316q0 -205 -86 -309t-191 -130t-214 -26h-273v-424h-336zM340 697h219q69 0 110 15.5t62 55t21 109.5v8q0 98 -48.5 142t-144.5 44h-219v-374z" />
<glyph unicode="Q" horiz-adv-x="1364" d="M8 672q0 436 216 570.5t440 134.5q81 0 182 -19t210.5 -87t185 -215t75.5 -384q0 -178 -42.5 -309.5t-125.5 -214.5l139 -135l-147 -148l-168 164q-112 -62 -309 -62q-87 0 -185.5 20t-208 88.5t-186 216.5t-76.5 380zM369 672q0 -408 295 -408q56 0 112 21l-116 119 l121 129l122 -129q54 98 54 268q0 399 -293 399q-295 0 -295 -399z" />
<glyph unicode="R" horiz-adv-x="1178" d="M8 4v1336h613q487 0 487 -424q0 -123 -63.5 -192t-163.5 -103v-8q125 -24 159 -111q19 -48 29.5 -98t10.5 -111v-113q0 -53 11.5 -96t33.5 -80h-336q-26 37 -37 85q-5 24 -8.5 64t-3.5 87q0 96 -15 141q-39 115 -184 115h-197v-492h-336zM344 744h219q95 0 144 41t49 112 t-21 109.5t-61 51.5t-111 13h-219v-327z" />
<glyph unicode="S" horiz-adv-x="1157" d="M8 436h340q0 -86 49 -154.5t183 -68.5q103 0 156 36.5t53 111.5v4q0 74 -58 114q-55 41 -118 50q-59 16 -134 26q-164 38 -246 72q-90 37 -149 116.5t-59 221.5l4 12q0 69 28 136.5t80 134.5q101 129 422 129q277 0 390 -127q58 -64 88 -135t30 -150h-319q0 79 -50 119.5 t-145 40.5h-12q-100 0 -140 -38t-40 -83l-4 -13q0 -79 96 -114q69 -25 143 -37q61 -14 117.5 -28.5t94.5 -26.5q86 -25 153.5 -68.5t105.5 -114.5q20 -36 30.5 -82t10.5 -100v-12q0 -108 -51 -209t-170.5 -166.5t-310.5 -65.5h-17q-177 0 -359 89q-93 45 -142.5 140 t-49.5 240z" />
<glyph unicode="T" horiz-adv-x="1157" d="M21 1037v303h1083v-303h-377v-1033h-336v1033h-370z" />
<glyph unicode="U" horiz-adv-x="1217" d="M21 504v836h340v-768q0 -102 16.5 -166.5t66 -100.5t144.5 -36q138 0 182.5 74.5t44.5 228.5v768h338v-836q0 -533 -565 -533q-193 0 -311.5 59.5t-172.5 147t-68.5 170t-14.5 156.5z" />
<glyph unicode="V" horiz-adv-x="1280" d="M4 1340h381l195 -807l20 -160h17l20 160l199 807h381l-92 -291l-336 -1045h-361l-92 289z" />
<glyph unicode="W" horiz-adv-x="1825" d="M21 1340h348l168 -824l12 -129h14l13 129l176 824h297l176 -824l12 -129h19l12 129l168 824h344l-76 -291l-276 -1045h-340l-164 811l-12 154h-19l-16 -154l-164 -811h-340l-80 289z" />
<glyph unicode="X" horiz-adv-x="1405" d="M25 4l463 697l-424 639h381l243 -416l240 416h385l-424 -639l463 -697h-424l-240 428l-243 -428h-420z" />
<glyph unicode="Y" horiz-adv-x="1305" d="M8 1340h365l244 -568h20l244 568h362l-450 -852v-484h-336v484z" />
<glyph unicode="Z" horiz-adv-x="1157" d="M25 4v303l631 730h-605v303h1010v-256l-665 -785h712v-295h-1083z" />
<glyph unicode="[" horiz-adv-x="549" d="M4 -281v1725h496v-201h-207v-1323h207v-201h-496z" />
<glyph unicode="\" horiz-adv-x="1069" d="M13 1389l180 96l268 -502l563 -1043l-180 -88l-268 488z" />
<glyph unicode="]" horiz-adv-x="570" d="M17 -80h206v1323h-206v201h495v-1725h-495v201z" />
<glyph unicode="^" horiz-adv-x="901" d="M17 1065l192 275h455l192 -275h-192l-232 178l-223 -178h-192z" />
<glyph unicode="_" horiz-adv-x="1010" d="M8 -117h945v-231h-945v231z" />
<glyph unicode="`" horiz-adv-x="88" />
<glyph unicode="a" horiz-adv-x="1069" d="M13 248q0 98 61.5 169t153.5 103q44 15 89 24t91 9q89 10 138 19.5t72 29.5t23 58v20q0 113 -133 113q-151 0 -151 -146h-297q0 44 11 86.5t31 81.5q39 77 142.5 131t275.5 54q150 0 243.5 -40t135 -97t52.5 -113q4 -24 7 -56t3 -61v-432q0 -91 7.5 -131t39.5 -62v-4 h-332l-29 84q-115 -117 -335 -117q-141 0 -218 71t-77 198zM336 277l2 -6l2 -7q0 -42 27.5 -75t73.5 -33l12 4q76 8 132 64q28 29 42 71t14 101v53q-20 -14 -96 -37q-32 -5 -46 -8t-42 -13q-43 -5 -82 -31t-39 -83z" />
<glyph unicode="b" horiz-adv-x="1112" d="M21 4v1336h319v-367l-8 -88h8q55 58 120 87q70 32 153 32h16q113 0 195.5 -47t129.5 -119.5t71 -166.5t24 -183q0 -146 -48 -263t-143.5 -185.5t-232.5 -68.5q-107 0 -180 34t-133 104h-9v-105h-282zM324 484q0 -135 55.5 -203t145.5 -68l4 -4q84 0 136 80t52 195 q0 127 -52.5 201.5t-139.5 74.5q-42 0 -78 -17.5t-66 -51.5q-57 -65 -57 -207z" />
<glyph unicode="c" horiz-adv-x="1049" d="M4 496q0 93 29 207t139.5 211.5t323.5 97.5h24q81 0 146 -17.5t117 -51.5q98 -63 140.5 -149.5t53.5 -180.5h-301q0 31 -9.5 59.5t-29.5 58.5q-35 54 -117 54h-12q-57 0 -114.5 -60t-57.5 -217l-2 -8l-2 -12q0 -151 59 -225t138 -74q75 0 112 59q18 29 28.5 60.5 t10.5 64.5h307q-9 -105 -63.5 -196t-158.5 -148.5t-253 -57.5q-221 0 -336 106q-56 52 -92 106.5t-51 113.5q-29 118 -29 199z" />
<glyph unicode="d" horiz-adv-x="1094" d="M8 488q0 93 21 181.5t70 165t132 123t193 46.5h21q85 0 151 -30.5t117 -88.5h14l-14 88v367h324v-1336h-297v105h-9q-56 -69 -127 -103.5t-168 -34.5q-99 0 -177.5 36.5t-134 103t-86 163.5t-30.5 214zM344 484q0 -113 48 -194t137 -81l8 4q86 0 140 69.5t54 201.5 t-55 204t-139 72q-89 0 -141 -77q-26 -39 -39 -87.5t-13 -111.5z" />
<glyph unicode="e" horiz-adv-x="1112" d="M25 488q0 158 67 276t188 179t273 61q210 0 323.5 -95t151 -221t37.5 -247l1 -11l1 -10h-686q0 -143 64.5 -197.5t126.5 -54.5l9 2l11 2q60 0 98 30t45 79h322q-17 -137 -118 -205.5t-202 -86.5t-169 -18q-86 0 -201.5 27t-225.5 138q-55 56 -83.5 140t-28.5 195l-2 9z M381 584h350q0 217 -172 217q-55 0 -114 -42q-29 -21 -46.5 -65.5t-17.5 -109.5z" />
<glyph unicode="f" horiz-adv-x="754" d="M4 744v229h168v59q0 154 73 237t216 83h55q67 0 189 -12v-211q-42 12 -101 12q-112 0 -112 -117v-51h213v-229h-213v-740h-320v740h-168z" />
<glyph unicode="g" horiz-adv-x="1112" d="M13 520q0 143 52 251.5t151 168.5t233 60q202 0 319 -127h8v100h289v-881q0 -40 -4 -80t-13 -77q-16 -75 -67.5 -143.5t-154.5 -113.5q-51 -22 -118.5 -34.5t-144.5 -12.5q-418 0 -466 309h319q32 -104 156 -104q155 0 155 205v94h-6q-82 -106 -260 -106 q-136 0 -236.5 61.5t-152.5 171.5q-55 115 -55 250zM353 512q0 -89 37 -178.5t159 -89.5q121 0 160 90t39 178q0 82 -38.5 171t-160.5 89q-123 0 -159.5 -87.5t-36.5 -172.5z" />
<glyph unicode="h" horiz-adv-x="1010" d="M8 4v1336h320v-396l-8 -67h8q145 127 309 127q143 0 213.5 -73.5t88.5 -164.5t18 -194v-568h-320v549q0 99 -29.5 151t-115.5 52q-164 0 -164 -211v-541h-320z" />
<glyph unicode="i" horiz-adv-x="377" d="M8 1096v244h324v-244h-324zM17 4v969h315v-969h-315z" />
<glyph unicode="j" horiz-adv-x="545" d="M13 -109h71q92 9 92 130v952h316v-990q0 -93 -18.5 -164t-82.5 -120q-31 -24 -78.5 -38t-107.5 -14q-92 0 -192 17v227zM176 1096v244h316v-244h-316z" />
<glyph unicode="k" horiz-adv-x="1094" d="M21 4v1336h319v-652l-8 -104h8l303 389h348l-354 -373l391 -596h-372l-224 381l-92 -92v-289h-319z" />
<glyph unicode="l" horiz-adv-x="377" d="M8 4v1336h324v-291l-4 -1045h-320z" />
<glyph unicode="m" horiz-adv-x="1594" d="M8 4v969h291v-137h8q63 78 133 122q35 21 76 33.5t84 12.5h9q74 0 129 -31t88 -76q17 -24 28 -43.5t19 -42.5q133 193 331 193q328 0 328 -424v-576h-315v555q0 88 -26 142.5t-107 54.5h-9q-91 0 -119 -66t-28 -137v-549h-315v555q0 94 -27.5 145.5t-106.5 51.5 q-59 0 -107 -46t-48 -157v-549h-316z" />
<glyph unicode="n" horiz-adv-x="1010" d="M8 4v969h312v-104h8q73 71 151 103t138 32h20q206 0 263 -133t57 -322v-545h-320v549q0 99 -29.5 151t-115.5 52q-164 0 -164 -211v-541h-320z" />
<glyph unicode="o" horiz-adv-x="1090" d="M4 484q0 188 75 306.5t192.5 168t248.5 49.5q217 0 367 -122.5t150 -401.5q0 -187 -73 -301.5t-190 -163t-254 -48.5q-132 0 -249 48t-192 163.5t-75 301.5zM340 484q0 -295 180 -295q185 0 185 295q0 301 -185 301q-180 0 -180 -301z" />
<glyph unicode="p" horiz-adv-x="1112" d="M21 -348v1321h272v-108h10q83 89 170.5 118t151.5 29q103 0 184 -43t132.5 -114.5t79.5 -168.5t28 -207q0 -43 -6 -88.5t-17 -90.5q-21 -88 -69 -161t-129 -118.5t-195 -45.5h-20q-83 0 -150.5 29.5t-122.5 83.5h-8l8 -84v-352h-319zM324 484q0 -139 57.5 -204t143.5 -65 l4 -2q85 0 136.5 74t51.5 197q0 117 -50 196.5t-138 79.5h-4q-89 0 -145 -68.5t-56 -207.5z" />
<glyph unicode="q" horiz-adv-x="1094" d="M8 479q0 177 58.5 297t157.5 177q49 28 104 43.5t113 15.5q181 0 315 -147h8v108h273v-1321h-324v352l14 84h-14q-52 -55 -118 -84t-150 -29h-25q-112 0 -192.5 45t-128 119t-69.5 162.5t-22 177.5zM344 484q0 -76 22.5 -138.5t64.5 -97.5t98 -35l8 2q84 0 139 68.5 t55 200.5q0 133 -53.5 204.5t-140.5 71.5h-8q-90 0 -137.5 -80t-47.5 -196z" />
<glyph unicode="r" horiz-adv-x="758" d="M17 4v969h295v-149h12q93 167 319 167h58v-266q-53 10 -92 10q-115 0 -176.5 -56.5t-79 -132t-17.5 -161.5v-381h-319z" />
<glyph unicode="s" horiz-adv-x="989" d="M13 307h315q0 -55 31.5 -105t119.5 -50l9 4q41 0 89 19t48 85v4q0 72 -63.5 96.5t-188.5 39.5q-59 6 -121 24q-76 18 -143.5 83t-67.5 185l2 13q0 38 10 74t29 70q36 66 132 111q48 23 115 35.5t150 12.5h9q224 0 319 -94q49 -47 75 -100.5t26 -112.5h-279 q-5 63 -41.5 97t-103.5 34q-54 0 -92.5 -26t-38.5 -71l-5 -8q0 -65 56 -86q52 -18 172 -32l129 -25q235 -64 235 -287v-8q0 -190 -142 -254t-310 -64q-243 0 -358 97q-58 49 -87.5 108t-29.5 131z" />
<glyph unicode="t" horiz-adv-x="758" d="M17 744v229h163v287h324v-287h197v-229h-197v-391q0 -44 6 -73.5t27.5 -48t62.5 -18.5l13 2q26 3 48 7t40 10v-228q-156 -25 -236 -25q-148 0 -216.5 63t-68.5 227v475h-163z" />
<glyph unicode="u" horiz-adv-x="1010" d="M8 424v549h320v-553q0 -97 28 -151t105 -54l8 4q168 0 168 209v545h320v-969h-314v101h-6q-135 -130 -309 -130q-140 0 -211 66.5t-90 161.5q-9 47 -14 102t-5 119z" />
<glyph unicode="v" horiz-adv-x="1049" d="M17 973h303l168 -596l12 -129h16l13 129l163 596h308l-340 -969h-307z" />
<glyph unicode="w" horiz-adv-x="1594" d="M17 973h307l125 -545l16 -129h23l12 129l133 545h279l145 -545l10 -129h21l16 129l121 545h307l-295 -969h-305l-135 555l-12 129h-17l-12 -129l-135 -555h-301z" />
<glyph unicode="x" horiz-adv-x="1090" d="M13 4l340 500l-328 469h332l168 -313l167 313h332l-327 -469l340 -500h-332l-180 316l-181 -316h-331z" />
<glyph unicode="y" horiz-adv-x="1090" d="M4 973h328l209 -600l14 -129h21l12 129l156 600h301l-310 -1002q-19 -62 -39.5 -112t-43.5 -87q-44 -71 -109 -104q-35 -18 -72.5 -27.5t-83.5 -9.5q-98 0 -211 21v231q45 -14 97 -14q48 0 79 19t48 79l20 54z" />
<glyph unicode="z" horiz-adv-x="922" d="M8 4v224l533 524l-494 -8v229h793v-233l-520 -521l545 9v-224h-857z" />
<glyph unicode="{" horiz-adv-x="570" d="M4 475v177q105 9 136.5 88t31.5 159v105l-4 96q0 182 98 246.5t218 64.5h28v-139q-79 -18 -106 -72q-25 -56 -25 -100l2 -53l2 -51l2 -119q0 -103 -44.5 -179.5t-170.5 -125.5v-17q125 -51 170 -127t45 -176q0 -26 -0.5 -55t-1.5 -62l-2 -52l-2 -50q0 -141 131 -168v-138 h-41q-113 0 -208 65t-95 237q0 67 4 96v103q0 83 -31.5 160.5t-136.5 86.5z" />
<glyph unicode="|" horiz-adv-x="297" d="M13 -348v1892h223v-1892h-223z" />
<glyph unicode="}" horiz-adv-x="570" d="M4 -135q127 27 127 168v27l-1 38l-1 37l-2 60l-2 57q0 49 12.5 94t36.5 83q45 74 174 126v17q-127 48 -174 125q-24 41 -36.5 85t-12.5 95l2 58l2 61l1 35l1 36v33q0 48 -23.5 101t-103.5 71v139h25q120 0 222 -64t102 -247l-3 -51l-2 -45l-4 -105q0 -76 33 -156t135 -91 v-177q-102 -9 -135 -88.5t-33 -158.5q0 -75 4 -103l2 -46l3 -50q0 -171 -98.5 -236.5t-213.5 -65.5h-37v138z" />
<glyph unicode="~" horiz-adv-x="821" d="M21 1088q17 125 72.5 190.5t150.5 65.5q53 0 121 -21q10 0 27 -10l28 -12q63 -21 92 -21q45 0 68 60h192q-20 -125 -81 -191q-31 -34 -68 -51.5t-82 -17.5q-49 0 -105 20q-32 4 -67 21q-19 5 -58 14q-24 5 -30 6q-30 -6 -48 -15t-28 -38h-184z" />
<glyph unicode="&#xa1;" />
<glyph unicode="&#xa2;" horiz-adv-x="1073" d="M4 844q0 131 26 240t125 190.5t302 81.5l12 4q203 0 316.5 -86.5t113.5 -224.5v-12q0 -80 -46 -140t-122 -88v-12q101 -21 189 -111t88 -266v-8q0 -57 -12 -109t-35 -102q-45 -94 -139.5 -151.5t-237.5 -57.5l-49 2l-50 4l-61 6v224q39 -13 72 -13q99 0 141.5 67.5 t42.5 149.5q0 86 -51.5 147.5t-171.5 61.5h-33v207l15 -2l14 -2q52 0 93.5 31.5t41.5 105.5q0 71 -32 111.5t-95 40.5q-87 0 -110 -54.5t-23 -175.5v-899h-320v832z" />
<glyph unicode="&#xa3;" />
<glyph unicode="&#xa4;" />
<glyph unicode="&#xa5;" />
<glyph unicode="&#xa6;" horiz-adv-x="297" d="M13 -348v1892h223v-1892h-223z" />
<glyph unicode="&#xa7;" horiz-adv-x="1028" d="M17 537q0 104 52 180q48 70 128 107q-38 38 -59 86t-21 110l-2 11l-2 10q0 32 6 61.5t20 59.5q27 58 75.5 102t119 70t158.5 26q42 0 79 -5t80 -18q80 -22 144.5 -100.5t64.5 -228.5v-4h-243q0 151 -125 151q-48 0 -83.5 -33t-35.5 -77l4 -4q0 -23 8.5 -42t23.5 -33 q27 -26 62 -37l129 -36q75 -22 96.5 -28.5t34.5 -12.5q101 -42 169.5 -117.5t68.5 -214.5q0 -212 -172 -311q84 -71 84 -188v-13q0 -73 -24.5 -133.5t-73 -107t-120 -73t-159.5 -26.5l-8 -4q-229 0 -310 125.5t-81 266.5l252 -9q0 -58 27 -115t108 -57h8q64 0 92.5 37.5 t28.5 79.5q0 43 -26.5 65.5t-74.5 43.5q-26 11 -88 28q-81 25 -133 45q-60 23 -102 44q-85 43 -132.5 118.5t-47.5 200.5zM264 576l5 -8q0 -76 75 -115q32 -18 101 -37l196 -63q90 24 90 122q0 62 -42.5 91.5t-129.5 58.5q-101 29 -127 43l-38 13l-41 16 q-42 -12 -65.5 -48.5t-23.5 -72.5z" />
<glyph unicode="&#xa8;" horiz-adv-x="1112" d="M4 4v1336h1033v-303h-697v-226h604v-262h-604v-250h713v-295h-1049zM160 1456v211h276v-211h-276zM613 1456v211h280v-211h-280z" />
<glyph unicode="&#xa9;" horiz-adv-x="1782" d="M13 555q0 168 62.5 322.5t179 275t274.5 189.5t340 69q170 0 324.5 -62.5t276.5 -178.5t190.5 -273.5t68.5 -341.5q0 -181 -69 -338.5t-189.5 -271t-277 -176t-324.5 -62.5q-182 0 -339.5 67t-273.5 186t-181 275q-30 75 -46 156.5t-16 163.5zM176 555q0 -133 51 -255.5 t146.5 -221t222 -153t273.5 -54.5t275 55q64 27 119.5 65t103.5 87q96 97 146 220q26 63 39 125.5t13 131.5q0 137 -51 260.5t-146.5 222t-223.5 154t-275 55.5q-134 0 -259.5 -51t-223 -144.5t-154 -222.5t-56.5 -274zM449 545l4 10q0 116 40 219.5t133 170.5 q46 33 104.5 50t129.5 17h9q71 0 127.5 -16t98.5 -47q82 -60 115 -139q17 -42 27 -79.5t10 -70.5h-219q0 58 -35 117t-124 59q-104 0 -145 -86q-21 -45 -32.5 -92t-11.5 -99q0 -142 54.5 -222.5t146.5 -80.5l4 -4q81 0 118.5 70t37.5 135h219q0 -46 -11.5 -88t-35.5 -91 q-42 -88 -129 -147t-219 -59l-5 4q-129 0 -222.5 64.5t-141 173.5t-47.5 231z" />
<glyph unicode="&#xaa;" horiz-adv-x="402" d="M8 -148h328v-313q0 -132 -62 -253.5t-266 -121.5v172q84 0 126 52t42 120v13h-168v331z" />
<glyph unicode="&#xab;" horiz-adv-x="692" d="M4 361v299l277 260v-291l-141 -117l141 -125v-295zM369 361v299l268 260v-291l-137 -117l137 -125v-295z" />
<glyph unicode="&#xac;" />
<glyph unicode="&#xad;" horiz-adv-x="1755" />
<glyph unicode="&#xae;" horiz-adv-x="1217" d="M17 1084q0 112 41.5 215t117.5 184t179 127.5t225 46.5q161 0 291.5 -78.5t206 -211.5t75.5 -283q0 -146 -73.5 -276t-206 -209t-293.5 -79q-159 0 -287.5 77.5t-202 208.5t-73.5 278zM125 1084q0 -130 63 -234.5t168 -162.5t224 -58q122 0 228 58t169.5 162.5 t63.5 234.5q0 99 -36.5 182.5t-101.5 146.5t-148 97t-175 34q-89 0 -172.5 -35t-145.5 -96t-99.5 -147t-37.5 -182zM357 785v604h295q116 0 156 -54t40 -126q0 -114 -100 -144v-4q69 -10 84 -80l4 -32l4 -33q0 -63 3 -86.5t17 -44.5h-151q-10 15 -17.5 43.5t-7.5 64.5v37 q-3 20 -4 27q-20 51 -88 51h-84v-223h-151zM508 1121h105q79 0 79 75q0 68 -83 68h-101v-143z" />
<glyph unicode="&#xaf;" horiz-adv-x="1280" d="M21 436v177h1216v-177h-1216z" />
<glyph unicode="&#xb0;" horiz-adv-x="88" />
<glyph unicode="&#xb1;" />
<glyph unicode="&#xb2;" />
<glyph unicode="&#xb3;" />
<glyph unicode="&#xb4;" />
<glyph unicode="&#xb5;" />
<glyph unicode="&#xb6;" horiz-adv-x="989" d="M4 1024q0 80 39.5 152t111.5 115q37 22 79 35.5t86 13.5h225v-1688h-225v1057q-91 0 -164 45t-112.5 117t-39.5 153zM697 -348v1688h227v-1688h-227z" />
<glyph unicode="&#xb7;" horiz-adv-x="733" d="M21 709q0 92 45 167t122 118t160 43q66 0 125.5 -25t104.5 -69q21 -21 39 -47t32 -57q27 -60 27 -130q0 -92 -45 -168t-121 -118t-162 -42q-84 0 -159.5 42t-121.5 117t-46 169z" />
<glyph unicode="&#xb8;" horiz-adv-x="1112" d="M25 488q0 158 67 276t188 179t273 61q210 0 323.5 -95t151 -221t37.5 -247l1 -11l1 -10h-682q0 -87 42.5 -169.5t156.5 -82.5l8 4q55 0 95.5 30.5t47.5 78.5h322q-17 -137 -118 -205.5t-202 -86.5t-169 -18q-86 0 -201.5 27t-225.5 138q-55 56 -83.5 140t-28.5 195l-2 9z M113 1096v244h332v-244h-332zM381 584h350q0 217 -172 217q-93 0 -133 -67q-22 -36 -33.5 -72t-11.5 -78zM656 1096v244h327v-244h-327z" />
<glyph unicode="&#xb9;" horiz-adv-x="2052" d="M17 4v1336h336l432 -760l43 -101h16l-16 101l-4 760h331v-1336h-331l-439 752l-37 104h-20l20 -104l5 -752h-336zM1276 772q0 114 43.5 203t127 136.5t194.5 47.5t191 -47.5t124.5 -135.5t44.5 -204t-43.5 -201t-126 -132.5t-190.5 -47.5q-111 0 -193.5 46.5t-127 134 t-44.5 200.5zM1288 4v224h701v-224h-701zM1460 772q0 -106 54 -155t127 -49q66 0 119 49.5t53 154.5q0 93 -45.5 151t-126.5 58q-85 0 -133 -57.5t-48 -151.5z" />
<glyph unicode="&#xba;" horiz-adv-x="402" d="M8 -148h328v-313q0 -132 -62 -253.5t-266 -121.5v172q84 0 126 52t42 120v13h-168v331z" />
<glyph unicode="&#xbb;" />
<glyph unicode="&#xbc;" />
<glyph unicode="&#xbd;" />
<glyph unicode="&#xbe;" />
<glyph unicode="&#xbf;" />
<glyph unicode="&#xc0;" horiz-adv-x="1364" d="M25 4l104 289l371 1047h332l100 -291l369 -1045h-348l-68 232h-444l-68 -232h-348zM516 471h299l-131 426l-12 127h-16l-15 -127z" />
<glyph unicode="&#xc1;" horiz-adv-x="1178" d="M17 4v1336h1024v-303h-688v-209h290q486 0 486 -408v-12q0 -107 -40 -197t-146.5 -148.5t-290.5 -58.5h-635zM353 269h231q84 0 135 27q27 14 42 44.5t15 75.5v4q0 160 -184 160h-239v-311z" />
<glyph unicode="&#xc2;" horiz-adv-x="1217" d="M17 4v1336h675q159 0 247.5 -54t118.5 -126.5t30 -147.5v-12q0 -65 -32 -127q-28 -55 -77 -93t-110 -55v-12q106 -23 196 -101t90 -235v-8q0 -150 -67 -229.5t-175.5 -107.5t-256.5 -28h-639zM353 269h256l8 -3l8 -2q176 0 176 156q0 152 -176 152h-272v-303zM353 805 h243l4 -4q152 0 152 139q0 81 -43 108t-133 27h-223v-270z" />
<glyph unicode="&#xc3;" horiz-adv-x="944" d="M13 4v1336h876v-303h-541v-1033h-335z" />
<glyph unicode="&#xc4;" horiz-adv-x="1510" d="M17 299h127q65 93 117 253q27 82 41 196.5t14 271.5l4 320h964v-1041h176l-24 -580h-283v285h-833v-285h-283zM508 299h436v738h-307v-144q0 -101 -7.5 -182.5t-23.5 -156.5q-27 -135 -98 -255z" />
<glyph unicode="&#xc5;" horiz-adv-x="1112" d="M4 4v1336h1033v-303h-697v-226h604v-262h-604v-250h713v-295h-1049z" />
<glyph unicode="&#xc6;" horiz-adv-x="1909" d="M17 4l503 727l-477 609h377l356 -551h17l-12 551h303l-9 -551h13l356 551h381l-477 -609l504 -727h-387l-377 617h-13l9 -617h-303l12 617h-17l-372 -617h-387z" />
<glyph unicode="&#xc7;" horiz-adv-x="1280" d="M13 471h327q0 -151 92 -197t189 -46q239 0 239 176q0 164 -196 164h-185v225h150q65 0 122.5 28.5t57.5 122.5q0 104 -72.5 136t-144.5 32q-32 0 -59 -4.5t-55 -14.5q-49 -17 -79 -66q-16 -25 -25 -60t-9 -82h-328q0 122 34.5 213t103.5 151q136 119 409 119h45 q81 0 143 -8.5t122 -27.5q107 -34 164.5 -85.5t81.5 -114.5t24 -132q0 -139 -68 -204.5t-152 -82.5v-12q66 -6 130 -42.5t108 -109.5q21 -37 32 -80t11 -96v-8q0 -195 -149.5 -294.5t-438.5 -99.5q-126 0 -227.5 18.5t-189.5 71t-144 152.5q-29 53 -46 118t-17 140z" />
<glyph unicode="&#xc8;" horiz-adv-x="1196" d="M17 4v1336h336v-785l-21 -102h21l38 102l418 785h340v-1336h-340v777l23 104h-23l-41 -104l-415 -777h-336z" />
<glyph unicode="&#xc9;" horiz-adv-x="1196" d="M17 4v1336h336v-785l-21 -102h21l38 102l418 785h340v-1336h-340v777l23 104h-23l-41 -104l-415 -777h-336zM240 1667h213q0 -45 29 -86t106 -41q71 0 104 39t33 88h211q-11 -64 -42.5 -122t-107.5 -103t-198 -45q-174 0 -252 84t-96 186z" />
<glyph unicode="&#xca;" horiz-adv-x="1258" d="M4 4v1336h336l-8 -576h12l400 576h393l-504 -613l559 -723h-424l-424 664h-12l8 -664h-336z" />
<glyph unicode="&#xcb;" horiz-adv-x="1342" d="M4 4v295l27 -2l33 -3l28 -1q62 0 97 12.5t58.5 55.5t37.5 132q6 47 10 108t4 134l4 605h985v-1336h-335v1033h-332l-8 -457q0 -94 -10.5 -175t-29.5 -145q-35 -122 -132 -194q-50 -37 -119.5 -55.5t-161.5 -18.5q-117 0 -156 12z" />
<glyph unicode="&#xcc;" horiz-adv-x="1510" d="M25 4v1336h463l229 -795l14 -160h21l16 156l228 799h464v-1336h-315l19 1020h-19l-297 -1020h-211l-297 1020h-24l24 -1020h-315z" />
<glyph unicode="&#xcd;" horiz-adv-x="1178" d="M17 4v1336h336v-488h428v488h335v-1336h-335v545h-428v-545h-336z" />
<glyph unicode="&#xce;" horiz-adv-x="1364" d="M8 672q0 436 216 570.5t440 134.5q81 0 182 -19t210.5 -87t185 -215t75.5 -384q0 -235 -74.5 -380.5t-186.5 -216.5q-108 -67 -210.5 -87.5t-181.5 -20.5q-87 0 -185.5 20t-208 88.5t-186 216.5t-76.5 380zM369 672q0 -408 295 -408q293 0 293 408q0 399 -293 399 q-295 0 -295 -399z" />
<glyph unicode="&#xcf;" horiz-adv-x="1196" d="M25 4v1336h1120v-1336h-336v1033h-448v-1033h-336z" />
<glyph unicode="&#xd0;" horiz-adv-x="1153" d="M4 4v1336h613q276 0 381.5 -131t105.5 -316q0 -205 -86 -309t-191 -130t-214 -26h-273v-424h-336zM340 697h219q69 0 110 15.5t62 55t21 109.5v8q0 98 -48.5 142t-144.5 44h-219v-374z" />
<glyph unicode="&#xd1;" horiz-adv-x="1325" d="M8 688q0 227 74.5 369t182 209t209.5 86q52 10 97.5 15t92.5 5h8q82 0 147.5 -11t123.5 -36q114 -49 180 -125t95 -160q15 -43 24.5 -86t9.5 -81h-328q-11 83 -73.5 140.5t-174.5 57.5q-186 0 -244.5 -132.5t-58.5 -278.5q0 -84 21 -154.5t62 -130.5q38 -56 93 -85.5 t127 -29.5l4 -4q88 0 143 39t81 91q12 24 20 49t8 44h332q-9 -109 -59 -224t-179 -203.5t-354 -88.5q-56 0 -118 10t-133 32q-140 40 -270 197q-66 79 -102 195t-36 263l-3 15z" />
<glyph unicode="&#xd2;" horiz-adv-x="1157" d="M21 1037v303h1083v-303h-377v-1033h-336v1033h-370z" />
<glyph unicode="&#xd3;" horiz-adv-x="1237" d="M8 1340h357l235 -627l21 -117h20l11 117l176 627h364l-407 -1047q-50 -127 -109.5 -195.5t-125.5 -91.5t-154 -23h-23q-99 0 -209 21v295q70 -14 135 -14q117 0 150 106z" />
<glyph unicode="&#xd4;" horiz-adv-x="1762" d="M21 705q0 168 55.5 274t146 160t191 72t211.5 18h76v156h336v-156h79q592 0 592 -520v-21q0 -205 -84 -330.5t-214.5 -177t-276.5 -51.5l-6 1l-6 1h-84v-182h-336v182h-80l-11 -1l-14 -1q-38 0 -80.5 5t-91.5 15q-93 21 -183 79t-152 171q-31 59 -47.5 131t-16.5 158 l-2 9zM365 684q0 -63 18.5 -114t54.5 -90q69 -76 214 -76h73v553h-69q-142 0 -216.5 -64.5t-74.5 -208.5zM1012 404h72q284 0 284 280q0 144 -73 208.5t-215 64.5h-68v-553z" />
<glyph unicode="&#xd5;" horiz-adv-x="1405" d="M25 4l463 697l-424 639h381l243 -416l240 416h385l-424 -639l463 -697h-424l-240 428l-243 -428h-420z" />
<glyph unicode="&#xd6;" horiz-adv-x="1362" d="M4 4v1336h336v-1041h449v1041h336v-1041h184l-29 -576h-280v281h-996z" />
<glyph unicode="&#xd7;" horiz-adv-x="1153" d="M17 928v412h336v-303q0 -96 20.5 -148t65.5 -72t124 -20q100 0 168 12l33 2v529h336v-1336h-336v533l-33 -4l-107 -7q-37 0 -65 -2t-67 -4q-144 0 -247 29t-165.5 118.5t-62.5 260.5z" />
<glyph unicode="&#xd8;" horiz-adv-x="1721" d="M17 4v1336h307v-1041h360v1041h307v-1041h361v1041h309v-1336h-1644z" />
<glyph unicode="&#xd9;" horiz-adv-x="1884" d="M17 4v1336h307v-1041h360v1041h307v-1041h361v1041h309v-1041h178l-14 -576h-293v281h-1515z" />
<glyph unicode="&#xda;" horiz-adv-x="1426" d="M21 1037v303h579v-480h303q143 0 236 -39.5t143.5 -102.5t70 -137t19.5 -149v-12q0 -154 -55.5 -244.5t-160.5 -131.5q-53 -20 -115 -30t-142 -10h-635v1033h-243zM600 269h236q72 0 127 28q28 15 42.5 47t14.5 84q0 89 -47.5 126.5t-140.5 37.5h-232v-323z" />
<glyph unicode="&#xdb;" horiz-adv-x="1633" d="M4 4v1336h336v-480h303q268 0 366.5 -130.5t98.5 -309.5q0 -150 -57 -243.5t-160 -132.5q-52 -20 -113 -30t-137 -10h-637zM340 269h232q72 0 126 28.5t54 130.5v8q0 156 -189 156h-223v-323zM1239 4v1336h338v-1336h-338z" />
<glyph unicode="&#xdc;" horiz-adv-x="1174" d="M13 4v1336h335v-480h304q267 0 365.5 -130.5t98.5 -309.5q0 -150 -57 -243.5t-161 -133t-251 -39.5h-634zM348 269h232q73 0 126.5 28.5t53.5 130.5v8q0 156 -188 156h-224v-323z" />
<glyph unicode="&#xdd;" horiz-adv-x="1364" d="M21 484h340q45 -256 286 -256q110 0 200 66q46 34 71.5 100t25.5 165h-452v230l452 4q0 151 -77 229t-215 78h-11q-136 0 -198 -72q-32 -37 -49 -73.5t-17 -73.5h-340q0 59 17 115.5t52 115.5q63 111 194 184q68 37 150 56.5t179 19.5h12q212 0 345 -73.5t202 -184.5 t93 -222t24 -204v-41q0 -410 -204.5 -545t-448.5 -135h-27q-207 0 -338.5 78.5t-195.5 197.5q-33 66 -50 119q-20 64 -20 122z" />
<glyph unicode="&#xde;" horiz-adv-x="1884" d="M17 4v1336h336v-492h176q7 59 24 116.5t47 117.5q57 118 194.5 206.5t360.5 88.5h13q126 0 268.5 -42.5t263.5 -200.5t121 -462q0 -235 -75.5 -380.5t-183.5 -213.5t-203 -88q-49 -10 -98 -16.5t-93 -6.5q-247 0 -388.5 101t-197.5 234q-29 74 -44 129q-18 68 -18 124 h-167v-551h-336zM873 672q0 -172 63 -290t232 -118q165 0 226.5 116t61.5 292q0 399 -288 399q-295 0 -295 -399z" />
<glyph unicode="&#xdf;" horiz-adv-x="1196" d="M17 899q0 190 83.5 288t186.5 125.5t188 27.5h674v-1336h-338v461h-123l-231 -461h-401l309 492q-42 6 -82.5 19t-78.5 34q-76 43 -128 127q-26 43 -40.5 97t-14.5 116l-2 6zM373 897q0 -176 190 -176h248v350h-266q-99 0 -135.5 -52.5t-36.5 -121.5z" />
<glyph unicode="&#xe0;" horiz-adv-x="1069" d="M13 248q0 98 61.5 169t153.5 103q44 15 89 24t91 9q89 10 138 19.5t72 29.5t23 58v20q0 113 -133 113q-151 0 -151 -146h-297q0 44 11 86.5t31 81.5q39 77 142.5 131t275.5 54q150 0 243.5 -40t135 -97t52.5 -113q4 -24 7 -56t3 -61v-432q0 -91 7.5 -131t39.5 -62v-4 h-332l-29 84q-115 -117 -335 -117q-141 0 -218 71t-77 198zM336 277l2 -6l2 -7q0 -42 27.5 -75t73.5 -33l12 4q76 8 132 64q28 29 42 71t14 101v53q-20 -14 -96 -37q-32 -5 -46 -8t-42 -13q-43 -5 -82 -31t-39 -83z" />
<glyph unicode="&#xe1;" horiz-adv-x="1112" d="M13 664q0 218 51 358t133 212t170 99.5t201 38.5q20 0 88 9q20 0 36 3.5t28 10.5q20 10 32 41h248q0 -119 -78.5 -192.5t-224.5 -98.5l-101 -14q-87 -11 -127 -23q-131 -30 -208 -113q-41 -44 -65 -115t-24 -171h17q27 79 84 135.5t139.5 84.5t171.5 28h16 q117 0 203.5 -36t141.5 -104q108 -137 108 -342q0 -108 -35 -199t-99.5 -156t-156.5 -103q-46 -19 -96.5 -30.5t-102.5 -11.5h-30q-184 0 -342 122q-81 62 -126 182q-48 127 -48 305l-2 39zM357 479l2 -6l2 -4q0 -78 14 -130t42 -83q54 -59 124 -59l8 -4q74 0 123 64t49 208 t-50 207t-122 63h-8q-81 0 -132.5 -68t-51.5 -188z" />
<glyph unicode="&#xe2;" horiz-adv-x="1010" d="M8 4v969h605q144 0 219.5 -57.5t75.5 -171.5v-17q0 -102 -59.5 -150.5t-123.5 -60.5v-12q124 -21 173.5 -90.5t49.5 -153.5v-12q0 -140 -88.5 -192t-250.5 -52h-601zM328 205h156q137 0 137 92v6q0 61 -37.5 83t-104.5 22h-151v-203zM328 584h125q68 0 103.5 20t35.5 76 q0 52 -33 70t-102 18h-129v-184z" />
<glyph unicode="&#xe3;" horiz-adv-x="817" d="M17 4v969h739v-229h-420v-740h-319z" />
<glyph unicode="&#xe4;" horiz-adv-x="1325" d="M17 223h127q71 128 102 261t31 301v188h844v-750h143l-21 -467h-247v248h-707v-248h-252zM465 223h336v525h-238l-4 -84q0 -47 -2.5 -84.5t-9.5 -99t-26.5 -127.5t-55.5 -130z" />
<glyph unicode="&#xe5;" horiz-adv-x="1112" d="M25 488q0 158 67 276t188 179t273 61q210 0 323.5 -95t151 -221t37.5 -247l1 -11l1 -10h-686q0 -143 64.5 -197.5t126.5 -54.5l9 2l11 2q60 0 98 30t45 79h322q-17 -137 -118 -205.5t-202 -86.5t-169 -18q-86 0 -201.5 27t-225.5 138q-55 56 -83.5 140t-28.5 195l-2 9z M381 584h350q0 217 -172 217q-55 0 -114 -42q-29 -21 -46.5 -65.5t-17.5 -109.5z" />
<glyph unicode="&#xe6;" horiz-adv-x="1573" d="M25 4l360 508l-338 461h310l256 -420h16l-8 420h287l-11 -420h15l260 420h313l-336 -461l359 -508h-332l-264 445h-15l11 -445h-287l8 445h-16l-260 -445h-328z" />
<glyph unicode="&#xe7;" horiz-adv-x="1028" d="M4 336h295q0 -64 42 -114q21 -25 55 -39.5t79 -14.5l9 -8q77 0 118 37.5t41 91.5v4q0 66 -45.5 90.5t-122.5 24.5h-75v176h69q71 0 110 21q38 23 38 87q0 67 -48.5 88t-97.5 21q-94 0 -126.5 -48.5t-32.5 -105.5h-287q0 57 12.5 104.5t36.5 85.5q46 73 117 109t147 48 q41 7 79.5 10.5t78.5 3.5q218 0 331 -70.5t113 -210.5v-6q0 -90 -53 -138t-115 -63v-8q46 -9 92 -36.5t77.5 -78t31.5 -120.5v-4q0 -150 -117 -226t-348 -76q-188 0 -341 70q-78 35 -120.5 109t-42.5 186z" />
<glyph unicode="&#xe8;" horiz-adv-x="1069" d="M17 4v969h319v-508l-16 -121h16l51 121l318 508h319v-969h-319v504l20 121h-20l-53 -121l-316 -504h-319z" />
<glyph unicode="&#xe9;" horiz-adv-x="1069" d="M17 4v969h319v-508l-16 -121h16l51 121l318 508h319v-969h-319v504l20 121h-20l-53 -121l-316 -504h-319zM131 1340h230q-4 -7 -4 -13q0 -55 32 -97t103 -42q79 0 108 48t29 104h227q-10 -114 -94.5 -206.5t-269.5 -92.5q-181 0 -264.5 91.5t-96.5 207.5z" />
<glyph unicode="&#xea;" horiz-adv-x="1049" d="M17 4v969h319l-8 -418h12l297 418h336l-377 -457l391 -512h-358l-289 441h-12l8 -441h-319z" />
<glyph unicode="&#xeb;" horiz-adv-x="1112" d="M4 4v219q11 -2 23 -3t37 -1q27 0 49 8.5t38 24.5q30 31 43 101q6 33 10.5 88.5t4.5 113.5l6 418h842v-969h-322v744h-219l-4 -207q0 -97 -7.5 -167t-23.5 -138q-27 -114 -107 -181q-40 -33 -99 -50.5t-135 -17.5q-80 0 -136 17z" />
<glyph unicode="&#xec;" horiz-adv-x="1325" d="M8 4v969h420l193 -596l12 -100h19l12 100l196 596h416v-969h-307v533l14 123h-14l-225 -656h-203l-225 656h-19l19 -123v-533h-308z" />
<glyph unicode="&#xed;" horiz-adv-x="1010" d="M8 4v969h320v-352h301v352h319v-969h-319v392h-301v-392h-320z" />
<glyph unicode="&#xee;" horiz-adv-x="1090" d="M4 484q0 188 75 306.5t192.5 168t248.5 49.5q217 0 367 -122.5t150 -401.5q0 -187 -73 -301.5t-190 -163t-254 -48.5q-132 0 -249 48t-192 163.5t-75 301.5zM340 484q0 -295 180 -295q185 0 185 295q0 301 -185 301q-180 0 -180 -301z" />
<glyph unicode="&#xef;" horiz-adv-x="1028" d="M21 4v969h962v-969h-319v744h-324v-744h-319z" />
<glyph unicode="&#xf0;" horiz-adv-x="1112" d="M21 -348v1321h272v-108h10q83 89 170.5 118t151.5 29q103 0 184 -43t132.5 -114.5t79.5 -168.5t28 -207q0 -43 -6 -88.5t-17 -90.5q-21 -88 -69 -161t-129 -118.5t-195 -45.5h-20q-83 0 -150.5 29.5t-122.5 83.5h-8l8 -84v-352h-319zM324 484q0 -139 57.5 -204t143.5 -65 l4 -2q85 0 136.5 74t51.5 197q0 117 -50 196.5t-138 79.5h-4q-89 0 -145 -68.5t-56 -207.5z" />
<glyph unicode="&#xf1;" horiz-adv-x="1049" d="M4 496q0 93 29 207t139.5 211.5t323.5 97.5h24q81 0 146 -17.5t117 -51.5q98 -63 140.5 -149.5t53.5 -180.5h-301q0 31 -9.5 59.5t-29.5 58.5q-35 54 -117 54h-12q-57 0 -114.5 -60t-57.5 -217l-2 -8l-2 -12q0 -151 59 -225t138 -74q75 0 112 59q18 29 28.5 60.5 t10.5 64.5h307q-9 -105 -63.5 -196t-158.5 -148.5t-253 -57.5q-221 0 -336 106q-56 52 -92 106.5t-51 113.5q-29 118 -29 199z" />
<glyph unicode="&#xf2;" horiz-adv-x="989" d="M21 744v229h919v-229h-297v-740h-323v740h-299z" />
<glyph unicode="&#xf3;" horiz-adv-x="1090" d="M4 973h328l209 -600l14 -129h21l12 129l156 600h301l-310 -1002q-19 -62 -39.5 -112t-43.5 -87q-44 -71 -109 -104q-35 -18 -72.5 -27.5t-83.5 -9.5q-98 0 -211 21v231q45 -14 97 -14q48 0 79 19t48 79l20 54z" />
<glyph unicode="&#xf4;" horiz-adv-x="1534" d="M13 500q0 195 90 304.5t215 148t245 38.5l13 2l12 3v344h324v-344h16q126 0 250.5 -39.5t215.5 -153t91 -315.5q0 -182 -71 -292.5t-199 -161.5q-67 -26 -141.5 -40.5t-161.5 -14.5v-327h-324v327q-89 0 -162 13.5t-142 41.5q-126 51 -196.5 164t-70.5 298zM320 484 q0 -163 92 -227t192 -64l9 2l8 2v575h-21q-101 0 -188.5 -57.5t-87.5 -210.5l-2 -10zM881 197h12q103 0 193 61t90 226v20q0 77 -24.5 131t-70.5 82q-88 55 -200 55v-575z" />
<glyph unicode="&#xf5;" horiz-adv-x="1090" d="M13 4l340 500l-328 469h332l168 -313l167 313h332l-327 -469l340 -500h-332l-180 316l-181 -316h-331z" />
<glyph unicode="&#xf6;" horiz-adv-x="1174" d="M4 4v969h320v-750h313v750h320v-750h155l-20 -463h-248v244h-840z" />
<glyph unicode="&#xf7;" horiz-adv-x="965" d="M8 684v289h308v-252q0 -53 8 -82.5t37 -48t88 -18.5l8 2l8 2h19h16h13h11q40 0 60 4v393h319v-969h-319v361l-77 -6q-57 -6 -87 -6l-18 2l-21 2q-145 0 -226 33.5t-114 105t-33 188.5z" />
<glyph unicode="&#xf8;" horiz-adv-x="1534" d="M8 4v969h308v-745h280v745h303v-745h281v745h305v-969h-1477z" />
<glyph unicode="&#xf9;" horiz-adv-x="1698" d="M17 4v969h307v-745h280v745h304v-745h280v745h305v-745h148l-25 -476h-244v252h-1355z" />
<glyph unicode="&#xfa;" horiz-adv-x="1217" d="M13 744v229h559v-352l184 4h37q137 0 251.5 -67.5t114.5 -254.5l5 -4q0 -295 -340 -295h-576v740h-235zM572 205h129q135 0 135 102v9q0 44 -32 78t-107 34h-125v-223z" />
<glyph unicode="&#xfb;" horiz-adv-x="1405" d="M17 4v969h319v-352l193 4h30q144 0 258.5 -66.5t114.5 -259.5q0 -295 -340 -295h-575zM336 205h129q139 0 139 102v9q0 46 -32 78q-31 34 -107 34h-129v-223zM1028 4v969h320v-969h-320z" />
<glyph unicode="&#xfc;" horiz-adv-x="985" d="M17 4v969h319v-352l193 4h30q144 0 258.5 -66.5t114.5 -259.5q0 -295 -340 -295h-575zM336 205h129q139 0 139 102v9q0 46 -32 78q-31 34 -107 34h-129v-223z" />
<glyph unicode="&#xfd;" horiz-adv-x="1069" d="M13 377h290q0 -40 13.5 -76.5t39.5 -69.5q48 -63 152 -63q110 0 150 70q23 37 35 73t12 76h-293v201h293q0 71 -41 141q-21 34 -57.5 53t-90.5 19h-16q-93 0 -144 -57q-26 -29 -39.5 -61t-13.5 -70h-278q0 43 10.5 86.5t31.5 90.5q39 86 143.5 150t281.5 64h12 q181 0 348.5 -102.5t167.5 -430.5q0 -215 -95 -327t-202.5 -142.5t-193.5 -30.5h-21q-189 0 -298 69t-151 160q-22 49 -34 93t-12 84z" />
<glyph unicode="&#xfe;" horiz-adv-x="1553" d="M13 4v969h319v-352h152q45 232 197 309.5t306 77.5q216 0 368.5 -122.5t152.5 -401.5q0 -186 -74 -301.5t-191.5 -163.5t-255.5 -48q-173 0 -284.5 63.5t-164 160t-63.5 205.5h-143v-396h-319zM805 484q0 -295 182 -295q189 0 189 295q0 121 -39.5 211t-149.5 90 q-182 0 -182 -301z" />
<glyph unicode="&#xff;" horiz-adv-x="985" d="M13 643q0 205 112.5 267.5t235.5 62.5h579v-969h-323v336h-80l-189 -336h-327l239 344q-117 18 -181 95q-32 39 -49 88.5t-17 111.5zM340 643q0 -118 144 -118h133v243l-125 4q-152 0 -152 -129z" />
<glyph unicode="&#x152;" />
<glyph unicode="&#x153;" />
<glyph unicode="&#x178;" horiz-adv-x="985" d="M13 643q0 205 112.5 267.5t235.5 62.5h579v-969h-323v336h-80l-189 -336h-327l239 344q-117 18 -181 95q-32 39 -49 88.5t-17 111.5zM340 643q0 -118 144 -118h133v243l-125 4q-152 0 -152 -129z" />
<glyph unicode="&#x2c6;" horiz-adv-x="901" d="M17 1065l192 275h455l192 -275h-192l-232 178l-223 -178h-192z" />
<glyph unicode="&#x2dc;" horiz-adv-x="821" d="M21 1088q17 125 72.5 190.5t150.5 65.5q53 0 121 -21q10 0 27 -10l28 -12q63 -21 92 -21q45 0 68 60h192q-20 -125 -81 -191q-31 -34 -68 -51.5t-82 -17.5q-49 0 -105 20q-32 4 -67 21q-19 5 -58 14q-24 5 -30 6q-30 -6 -48 -15t-28 -38h-184z" />
<glyph unicode="&#x2000;" horiz-adv-x="833" />
<glyph unicode="&#x2001;" horiz-adv-x="1667" />
<glyph unicode="&#x2002;" horiz-adv-x="833" />
<glyph unicode="&#x2003;" horiz-adv-x="1667" />
<glyph unicode="&#x2004;" horiz-adv-x="555" />
<glyph unicode="&#x2005;" horiz-adv-x="416" />
<glyph unicode="&#x2006;" horiz-adv-x="277" />
<glyph unicode="&#x2007;" horiz-adv-x="277" />
<glyph unicode="&#x2008;" horiz-adv-x="208" />
<glyph unicode="&#x2009;" horiz-adv-x="333" />
<glyph unicode="&#x200a;" horiz-adv-x="92" />
<glyph unicode="&#x2010;" horiz-adv-x="713" d="M4 428v256h660v-256h-660z" />
<glyph unicode="&#x2011;" horiz-adv-x="713" d="M4 428v256h660v-256h-660z" />
<glyph unicode="&#x2012;" horiz-adv-x="713" d="M4 428v256h660v-256h-660z" />
<glyph unicode="&#x2013;" />
<glyph unicode="&#x2014;" />
<glyph unicode="&#x2018;" horiz-adv-x="402" d="M21 920v172q87 0 131.5 51.5t44.5 120.5v12h-176v324h332v-312q0 -129 -61 -247q-31 -59 -98.5 -90t-172.5 -31z" />
<glyph unicode="&#x2019;" horiz-adv-x="402" d="M21 920v172q87 0 131.5 51.5t44.5 120.5v12h-176v324h332v-312q0 -129 -61 -247q-31 -59 -98.5 -90t-172.5 -31z" />
<glyph unicode="&#x201a;" />
<glyph unicode="&#x201c;" horiz-adv-x="842" d="M13 899v310q0 124 60 246q30 61 98.5 94.5t172.5 33.5v-174h-8q-83 0 -125.5 -54.5t-42.5 -117.5v-8h176v-330h-331zM445 899v310q0 124 60 246q30 61 98.5 94.5t172.5 33.5v-174h-8q-78 0 -123 -50.5t-45 -115.5l2 -7l2 -7h172v-330h-331z" />
<glyph unicode="&#x201d;" horiz-adv-x="842" d="M13 899v176l4 -4q81 0 124.5 55t43.5 117l4 13h-176v327h331v-315q0 -126 -61 -245q-31 -61 -98 -92.5t-172 -31.5zM445 899v176l4 -4q80 0 124 56t44 116l4 13h-176v327h331v-315q0 -126 -61 -245q-31 -61 -98 -92.5t-172 -31.5z" />
<glyph unicode="&#x201e;" />
<glyph unicode="&#x2022;" horiz-adv-x="842" d="M13 25v323h331v-311q0 -124 -61 -240q-31 -60 -98.5 -92.5t-171.5 -32.5v176q87 0 131.5 49.5t44.5 115.5v12h-176zM445 25v323h331v-311q0 -124 -61 -240q-31 -60 -98.5 -92.5t-171.5 -32.5v176q85 0 130.5 50.5t45.5 114.5v12h-176z" />
<glyph unicode="&#x2026;" />
<glyph unicode="&#x202f;" horiz-adv-x="333" />
<glyph unicode="&#x2039;" horiz-adv-x="1133" d="M8 572v163l973 562l107 -185l-791 -460l791 -451l-107 -184z" />
<glyph unicode="&#x203a;" horiz-adv-x="1157" d="M21 201l790 451l-790 460l108 185l971 -562v-163l-971 -555z" />
<glyph unicode="&#x205f;" horiz-adv-x="416" />
<glyph unicode="&#x2122;" />
<glyph unicode="&#x25fc;" horiz-adv-x="975" d="M0 0v975h975v-975h-975z" />
</font>
</defs>
</svg>
