<?xml version="1.0" standalone="no"?>
<!DOCTYPE svg PUBLIC "-//W3C//DTD SVG 1.1//EN" "http://www.w3.org/Graphics/SVG/1.1/DTD/svg11.dtd" >
<svg xmlns="http://www.w3.org/2000/svg">
<metadata></metadata>
<defs>
<font id="honey_scriptlight" horiz-adv-x="479" >
<font-face units-per-em="2048" ascent="1638" descent="-410" />
<missing-glyph horiz-adv-x="430" />
<glyph horiz-adv-x="0" />
<glyph unicode="&#xd;" horiz-adv-x="681" />
<glyph unicode=" "  horiz-adv-x="430" />
<glyph unicode="&#x09;" horiz-adv-x="430" />
<glyph unicode="&#xa0;" horiz-adv-x="430" />
<glyph unicode="!" horiz-adv-x="411" d="M176 35q0 18 25 61q29 43 41 43q33 0 47 -39q14 -28 14 -65q0 -20 -16.5 -44t-34.5 -24q-31 0 -53.5 19.5t-22.5 48.5zM176 516q0 100 21 381q23 315 36 434q8 20 50 21q36 -1 77 -54q-102 -283 -102 -815q0 -184 14 -258q-29 -16 -41 4q-39 70 -49 138q-6 47 -6 149z " />
<glyph unicode="&#x22;" horiz-adv-x="507" d="M98 1024q0 29 107 209q12 41 59 168q39 -25 37 -37q-6 -51 -94 -236q-61 -133 -80 -133q-29 0 -29 29zM203 977q0 14 37 90l69 147q12 47 64 158q41 -29 37 -37q-16 -88 -58 -176q-2 -4 -34.5 -67.5t-49.5 -94.5q-20 -45 -41 -45q-25 0 -24 25z" />
<glyph unicode="#" horiz-adv-x="929" d="M0 596q0 39 41 55l219 41l27 158l-193 -41q-29 -16 -57 -16q-37 0 -37 36q0 39 41 56l258 55l29 193q4 29 15 41t30 10q31 -4 30 -21q0 -12 -22 -209l176 35l29 205q4 31 15 43t28 8q20 -6 20 -49q0 -20 -18 -192l205 34q36 0 36 -18q0 -41 -43 -51l-206 -43l-23 -178 l227 36q37 0 37 -18q0 -14 -14 -31.5t-29 -19.5l-233 -41l-19 -156q2 -8 -2 -51q-25 -49 -69 -49q-14 0 -15 12l31 227l-180 -30l-27 -183q2 -8 -2 -51q-14 -37 -69 -37q-23 0 -27 17l37 237l-152 -35q-29 -16 -57 -16q-37 0 -37 37zM344 705l180 30l27 174l-180 -37z" />
<glyph unicode="$" horiz-adv-x="544" d="M4 332q37 14 111 -84q86 -111 178 -111q49 0 81 38t32 91q0 94 -87 170q-154 135 -161 150q-86 111 -86 286q0 260 164 277q0 104 22 184q35 0 37 -63q-2 -43 -2 -131q96 -49 129 -99q45 -57 45 -153q0 -209 -61 -209q-31 0 -39 104q-2 23 -5.5 66t-3.5 65 q-20 174 -104 174q-53 0 -82 -90q-23 -68 -22 -131q0 -164 81 -239l232 -224q39 -37 39 -131q0 -131 -84 -184q-43 -14 -125 -47q6 -31 6 -68q0 -51 -12 -123q-20 -4 -31.5 9.5t-13.5 44.5q-4 53 -11 162l-108 69q-68 57 -119 197z" />
<glyph unicode="%" horiz-adv-x="970" d="M0 883q0 125 33 258q49 190 133 190q125 0 145 -260q72 -33 113 -33q147 0 348 187q12 10 35 55q16 35 51 51q12 0 31.5 -15.5t19.5 -27.5q0 -25 -84 -114q-147 -154 -387 -574q-244 -430 -268 -600q-2 -18 -20 -18q-16 0 -28.5 17t-12.5 36q37 158 249 536 q156 279 295 490q-18 -2 -80 -35q-59 -31 -94 -31q-98 0 -164 15q-29 -201 -41 -232q-35 -102 -114 -102q-82 0 -125 65q-35 57 -35 142zM76 874q0 -152 65 -151q41 0 72 51q25 39 35 90q-4 88 2 203q-33 61 -35 141q-4 47 -45 47q-94 -180 -94 -381zM528 252q0 211 80 321 q23 33 25 35q4 0 20.5 -2t20.5 -2q109 0 149 -92q25 -57 25 -190q0 -350 -164 -351q-156 0 -156 281zM598 209q0 -197 80 -197q70 0 100 144q19 90 19 194q0 203 -99 203q-49 0 -77 -152q-23 -117 -23 -192z" />
<glyph unicode="&#x26;" horiz-adv-x="1218" d="M102 248q0 135 93 264l190 221q-61 188 -61 320q0 106 45 198q55 117 147 117q94 0 166 -78q70 -76 70 -172q0 -94 -105 -225q-6 -6 -174 -195q10 -33 80 -200l436 2q160 -4 172 -31q0 -10 -18 -33h-142q-39 0 -120 -112q-94 -129 -125 -152q39 -41 116 -129 q27 -31 86 -57q0 -10 -18 -19.5t-33 -9.5q-29 0 -65 41l-127 135q-195 -158 -336 -158q-115 0 -197 78q-80 78 -80 195zM158 195q0 -63 59 -117q59 -51 129 -51q102 0 215 69q101 61 101 90q-8 29 -142 242q-29 0 -80 6q-59 6 -80 6q0 12 5 33q35 2 118 25q-18 27 -67 159 q-258 -170 -258 -462zM393 1016q0 -88 51 -217q25 18 105 108q141 158 141 250q0 59 -43 111.5t-98 52.5q-76 0 -123 -121q-33 -86 -33 -184zM590 430q49 -82 129 -182q18 0 72 78q51 77 51 106h-119q-59 0 -90 -2h-43z" />
<glyph unicode="'" horiz-adv-x="0" d="M-145 1057q41 88 116 334q49 -35 49 -70q0 -43 -77 -205q-33 -92 -56 -92q-31 0 -32 33z" />
<glyph unicode="(" horiz-adv-x="444" d="M141 582q0 397 99 622q18 61 47 146q41 109 80 108q18 0 44.5 -17.5t26.5 -29.5l-49 -53q-53 -84 -110 -277q-72 -246 -72 -448q0 -96 18 -260q23 -180 45 -252q78 -240 119 -289q10 -12 38 -30.5t34 -24.5q-25 -10 -43 -10q-125 0 -209 311q-68 254 -68 504z" />
<glyph unicode=")" horiz-adv-x="358" d="M18 1430q0 29 41 28q61 0 78 -41l74 -387q51 -254 51 -520q0 -201 -20 -295q-10 -131 -45 -258q-55 -199 -134 -199q-27 0 -36 25q12 10 47 45q121 231 121 682q0 375 -45 528q-84 291 -101 318q-31 55 -31 74z" />
<glyph unicode="*" horiz-adv-x="444" d="M0 1165.5q0 18.5 49 32.5l74 25q-14 25 -43 102q10 12 18 12t68 -84q29 49 63 86q25 -25 25 -32q0 -6 -25 -37q-6 -6 -11 -13.5t-8 -11.5t-5 -8l-2 -2q37 4 51 4q41 0 61 -12q-6 -20 -14 -29q-35 0 -98 -14q2 -10 33 -54q8 -12 20 -28q8 -10 8 -12q0 -14 -24 -15 q-20 0 -78 94q-35 -68 -74 -94q-12 14 -12 25q0 2 10 29.5t12 35.5q-2 0 -35.5 -9t-39.5 -9q-23 0 -23 18.5z" />
<glyph unicode="+" horiz-adv-x="774" d="M86 459q0 70 39 121q43 59 108 59q111 0 168 -166q14 74 43 174q6 18 37 19q29 0 29 -23q0 -8 -16.5 -40t-16.5 -40q-2 -16 -28 -133q-25 -102 -25 -115q37 4 123 33q88 31 119 31q33 0 82 -37l8 -6q-133 -10 -330 -66v-131q0 -53 23 -127q-2 -8 -13 -8q-31 0 -51 33 q-16 29 -16 59q0 23 6 47q0 12 -3 52.5t-3 52.5q-61 -10 -95 -10q-78 0 -135 73q-53 70 -53 148zM129 473q0 -74 54.5 -124t129.5 -50q66 0 66 47q0 66 -35 141q-45 98 -127 99q-37 0 -62.5 -35t-25.5 -78z" />
<glyph unicode="," horiz-adv-x="315" d="M-63 -141q0 8 71 135q23 55 58 131q53 -24 53 -57q0 -10 -56 -107q-70 -131 -90 -131q-37 0 -36 29z" />
<glyph unicode="-" horiz-adv-x="600" d="M100 365q0 37 45 45l107 10q115 6 199 10q2 0 22.5 3t36.5 5q33 6 33 -8q0 -18 -25.5 -36.5t-52.5 -22.5q-156 -4 -238 -11q-8 0 -37.5 -3t-50.5 -5q-39 -2 -39 13z" />
<glyph unicode="." horiz-adv-x="258" d="M55 39q0 25 19.5 48.5t42.5 23.5q61 -1 61 -52q0 -78 -61.5 -77.5t-61.5 57.5z" />
<glyph unicode="/" horiz-adv-x="798" d="M-8 35q37 162 246 536q172 311 297 490l104 151q80 111 100 119q12 0 32 -15.5t20 -27.5q0 -25 -84 -114q-147 -154 -388 -574q-244 -430 -268 -600q-2 -18 -20 -18q-16 0 -27.5 16t-11.5 37z" />
<glyph unicode="0" horiz-adv-x="917" d="M0 487q0 233 80 496q109 350 287 350q49 0 168 -65l149 -84q39 -14 74 -223q30 -174 30 -256q0 -219 -102 -441q-125 -264 -326 -264q-102 0 -198 59q-92 59 -127 156q-35 92 -35 272zM109 428q0 -137 47 -238q61 -129 186 -129q195 0 295 283q72 209 72 440 q0 176 -60 301q-76 160 -235 160q-135 0 -232 -350q-74 -276 -73 -467z" />
<glyph unicode="1" horiz-adv-x="344" d="M20 66q0 127 33 409q31 274 25 354q-43 35 -43 66q0 55 33 160q37 125 38 170q25 8 54 8q73 0 73 -51q0 -29 -14 -70q-16 -49 -18 -70q-72 -569 -72 -856q0 -139 14 -217q0 -12 -28 -12q-94 0 -95 109z" />
<glyph unicode="2" horiz-adv-x="823" d="M-35 18q0 14 53 50q61 35 91 63q162 182 278 426q131 268 131 487q0 80 -57.5 130.5t-143.5 50.5q-63 0 -89.5 -52.5t-53.5 -199.5l-39 -201q-29 -123 -78 -123q-51 0 -51 72q0 35 23 131q23 90 61 199q47 133 84 186q35 49 105 49q137 0 245 -82q123 -90 123 -221 q0 -193 -178 -487q-137 -231 -317 -426q160 6 307 6q59 0 176 -15q129 -14 129 -26q0 -45 -37 -45l18 2q-20 4 -135 6q-53 2 -133 2q-78 0 -225 -29q-141 -31 -195 -30q-92 0 -92 77z" />
<glyph unicode="3" horiz-adv-x="833" d="M-49 145q0 78 33 80q14 0 22 -8q25 -25 62 -96q39 -76 59 -92q61 -55 166 -56q123 0 215 136q82 125 82 253q0 78 -29 146q-41 86 -108 86l-199 -47q-31 10 -31 43q0 37 31 67.5t68 30.5q8 0 49 -4q27 -2 41 0q61 49 96 164q29 98 29 192q0 188 -154 189q-100 0 -139 -58 q-31 -45 -31 -153q0 -340 -100 -340q-31 0 -50 41q-16 37 -16 67q0 115 80 316q37 92 76 131q53 53 137 53q125 0 213 -59q98 -68 98 -191q0 -184 -184 -383q115 -53 170 -108q70 -72 70 -183q0 -186 -105 -315q-115 -135 -295 -135q-127 0 -252 100q-104 90 -104 133z" />
<glyph unicode="4" horiz-adv-x="956" d="M-25 438q0 25 72 133q96 141 154 248q70 129 198 318q6 10 29 43.5t35 52.5q45 66 80 67q37 -2 92 -43t55 -71q0 -16 -16 -78q-16 -57 -21 -86q-68 -502 -67 -578l231 -6q51 -1 51 -32q0 -45 -102 -46q-39 0 -82 2q-61 2 -98 0q-10 -63 -15 -155q-4 -119 -4 -123 q-4 -37 21 -100l26 -58q0 -14 -55 -14q-76 0 -76 154q0 12 4.5 114.5t4.5 116.5q0 33 -5 70q-94 6 -213 -21q-178 -39 -219 -41q-80 102 -80 133zM96 442q0 -29 58 -28q29 0 84 6q49 8 84 8q10 0 88 4q57 6 88 6q6 164 24 381q20 242 10 348q-29 -16 -116 -147 q-90 -133 -127 -184q-66 -84 -133 -230q-59 -131 -60 -164z" />
<glyph unicode="5" horiz-adv-x="890" d="M-49 109q0 37 55 36q23 0 119 -71q94 -70 164 -70q164 0 268 121q98 113 98 281q0 109 -51 167q-59 68 -160 68q-86 0 -172 -43q-45 -20 -153 -94q-20 0 -49 37q-27 39 -27 63q0 55 14.5 147.5t14.5 147.5l-2 143q2 92 24 140q8 18 285 47q193 18 250 18q76 0 88 -18 q0 -20 -39 -47q-37 -25 -60 -29q-180 -16 -241 -25q-162 -23 -195 -55q-47 -336 -47 -418q31 8 119 39q72 27 104 27q164 0 283 -103q119 -100 119 -266q0 -186 -121 -301q-119 -111 -309 -110q-96 0 -221 43q-158 49 -158 125z" />
<glyph unicode="6" horiz-adv-x="866" d="M0 446q0 213 98 529q119 393 279 393q49 0 147.5 -41t122.5 -76q45 -63 45 -159q0 -66 -35 -164q-63 0 -77 37q-10 25 -11 94q0 115 -14 155q-29 78 -106 78q-70 0 -132 -104q-18 -37 -90 -166q-76 -129 -106 -375q156 160 293 160q150 0 243 -119q88 -108 88 -264 q0 -168 -90 -293q-102 -135 -266 -131q-195 0 -295 131q-94 119 -94 315zM100 367q0 -309 281 -310q121 0 199 146q67 123 67 254q0 117 -55 196q-61 88 -174 88q-160 0 -242 -112q-76 -100 -76 -262z" />
<glyph unicode="7" horiz-adv-x="696" d="M-45 1221q0 61 84 84q27 8 197 26q227 27 370 27q25 -1 76 -62q0 -29 -29 -63q-49 -59 -71 -98q-479 -819 -480 -1057q0 -29 9 -43q-98 0 -99 45q0 127 232 637l231 510q0 27 -82 26q-49 0 -196 -16q-70 -10 -138 -35l-71 -28q-33 0 -33 47z" />
<glyph unicode="8" horiz-adv-x="1017" d="M0 330q0 121 96 254q66 90 189 207q-145 133 -146 249q0 127 88 242q94 125 215 125q78 0 179 -88q113 -96 137 -107q57 43 73 103q4 33 7 51q47 0 47 -98q0 -76 -76 -160q-127 -145 -258 -244q-90 -68 -90 -76q0 -6 2 -8q180 -113 256 -184q137 -131 137 -270 q0 -152 -145 -254q-131 -90 -289 -90q-160 0 -285 92q-137 100 -137 256zM70 307q0 -106 106 -170q90 -53 203 -53q145 0 252 74q123 84 123 219q4 188 -371 360q-309 -266 -313 -430zM233 1028q0 -51 39 -110q39 -68 88 -68q20 0 175 135q153 137 165 166q-76 121 -96 139 q-41 41 -110 41q-102 0 -189 -127q-72 -109 -72 -176z" />
<glyph unicode="9" horiz-adv-x="835" d="M0 815q0 150 115 344q129 215 268 215q35 0 246 -133q0 82 20 82q14 0 35 -12q90 -16 90 -43q-25 -16 -35 -90l-65 -480q-39 -315 -29 -555q0 -18 39 -129q-8 -12 -18 -16l-25 2q-88 0 -90 217q0 49 6 143t6 142q0 10 -20 10q-29 0 -84.5 -14.5t-83.5 -14.5 q-168 0 -266 80q-109 90 -109 252zM94 741q-2 -94 61.5 -140t190.5 -46q47 0 117 16q80 23 102 52l58 510q0 18 -68 79q-78 72 -135 72q-117 0 -227 -217q-98 -195 -99 -326z" />
<glyph unicode=":" horiz-adv-x="299" d="M94 59q0 20 15.5 38t35.5 18q58 -1 58 -56q0 -57 -58 -57q-51 0 -51 57zM109 492q0 18 10 37.5t22 19.5q84 -23 84 -66q0 -53 -55 -53q-25 0 -43 18.5t-18 43.5z" />
<glyph unicode=";" horiz-adv-x="372" d="M2 -147q0 31 39 57q43 31 72 84q14 33 47 98q53 -22 53 -55q0 -12 -74 -100q-90 -111 -114 -111q-23 0 -23 27zM123 469q0 37 55 61q29 0 48.5 -21t19.5 -50q0 -47 -58 -47q-66 0 -65 57z" />
<glyph unicode="&#x3c;" horiz-adv-x="786" d="M-2 532q2 33 29 46q12 4 59 12q41 6 166 69q170 82 276 168q37 31 105 76q18 9 24 -14q10 -39 -69 -84q-221 -193 -494 -293q154 -82 412 -104q141 -12 143 -46q2 -12 -16.5 -18t-54.5 -6q-131 0 -254 24q-109 27 -242 66q-90 41 -84 104z" />
<glyph unicode="=" horiz-adv-x="786" d="M55 397q0 37 47 49q49 8 109 11q301 10 321 10q6 0 27 3t37 5q33 2 33 -12q0 -20 -27 -38.5t-55 -25.5q-217 -4 -453 -16q-39 -2 -39 14zM55 627q0 37 47 49q49 8 109 10q301 10 321 10q6 0 27 3t37 6q33 1 33 -13q0 -20 -27 -38.5t-55 -24.5q-217 -4 -453 -17 q-39 -2 -39 15z" />
<glyph unicode="&#x3e;" horiz-adv-x="786" d="M55 305q4 29 90 57q51 27 136 62q176 72 323 98q-133 96 -424 178q-129 35 -119 70q2 18 70 12q174 -18 334 -96l164 -84q81 -55 69 -121q-6 -33 -36 -39q-10 -4 -60 0q-152 -8 -403 -114q-119 -49 -127 -47q-18 0 -17 24z" />
<glyph unicode="?" horiz-adv-x="800" d="M-72 752q0 111 84 260q76 125 172 219q164 162 305 162q102 0 160 -88q49 -76 49 -185q0 -115 -47 -205q-31 -57 -137 -184q-152 -176 -231 -289l-37 -129q0 -16 12 -39.5t12 -25.5q0 -18 -26 -19q-45 0 -45 115q0 117 112 268q18 25 207 275q113 156 113 295 q0 145 -135 145q-137 0 -334 -240q-96 -119 -127 -174q-53 -96 -53 -192q0 -25 2 -39q-29 -6 -42.5 11.5t-13.5 58.5zM184 37q0 29 16.5 54.5t39.5 25.5q71 0 71 -51q0 -33 -20.5 -61t-50.5 -28q-55 0 -56 60z" />
<glyph unicode="@" horiz-adv-x="1118" d="M45 449q-2 412 270 690q135 135 319.5 139t311.5 -166q115 -156 115 -344q0 -90 -29 -209q-35 -133 -84 -183t-133 -52q-47 0 -94 47q-35 41 -53 94q-51 -193 -138 -193q-123 0 -116 301q4 84 53 267q59 213 100 213q90 0 115 -47l37 -74l72 -25q-59 -182 -66 -379 q-2 -35 27 -90q31 -53 65 -53q33 0 55 23q57 57 91 167q29 102 28 191q0 164 -94 303q-106 156 -260 154q-135 -2 -262 -129q-236 -238 -240 -621q-2 -184 96 -311q106 -135 285 -139q152 -2 297 143q39 39 57 39q25 0 25 -35q0 -23 -8 -47q-152 -150 -342 -150 q-233 0 -383 148q-115 115 -117 328zM479 432q0 -35 15 -65q18 -39 47 -39q43 27 86 157q41 123 41 183q0 33 12 94q12 65 12 94l-24 33q-8 94 -52 94q-35 0 -61 -98q-10 -33 -43 -144q-33 -125 -33 -309z" />
<glyph unicode="A" horiz-adv-x="1384" d="M-53 96q10 14 16 17q6 4 17 0q8 -2 20 -2q0 -61 100 -62q154 0 265 117q63 70 159 256q-41 4 -55 4q-10 0 -38 -5t-36 -5q-49 0 -49 28q0 14 221 39q102 168 236 510q119 301 119 363q0 4 -4.5 15t-4.5 15q0 27 64 27q20 0 78 -35q57 -33 57 -53q0 -10 -4 -47t-4 -49 q0 -279 86 -688q70 -332 125 -475q4 -14 15 -25.5t21.5 -19t12.5 -9.5q0 -20 -37 -20q-25 0 -72 10q-74 96 -155 461q-86 -12 -242 -19q-180 -6 -240 -14q-74 -125 -172 -285q-128 -196 -259 -196h-1q-170 0 -239 147zM651 498l436 10q1 12 -26 170q-57 356 -68 461l-4 57 q-10 37 -24 49q-33 -61 -144 -356q-100 -268 -170 -391z" />
<glyph unicode="B" horiz-adv-x="1075" d="M-45 1317q-1 1 -1 2q0 7 23 14q37 12 146 25q0 86 37 86q63 0 63 -66q217 41 469 41q145 0 273 -57q161 -74 161 -201q0 -57 -57 -133q-49 -70 -106 -104q-72 -45 -314 -158q326 -57 326 -336q0 -152 -160 -319q-160 -168 -311 -168q-72 0 -201 45q-115 41 -115 45 q0 -57 -18 -58q-84 4 -84 205v86q0 33 1 64.5t1 29.5q0 430 27 783l10 131q-2 2 -24.5 2t-65.5 -2h-8q-45 0 -72 43zM174 463q0 -76 2 -135q4 -119 4 -133q0 -61 -2 -89q45 -12 131 -59q84 -45 115 -45q164 0 321 176q146 164 146 305q0 215 -336 215q-285 0 -354 -88 q-27 -33 -27 -147zM195 717q141 8 528 145q92 33 195 137q114 115 114 199q0 147 -325 148q-51 0 -242 -23q-193 -25 -240 -35q-30 -240 -30 -551v-20z" />
<glyph unicode="C" horiz-adv-x="874" d="M0 436q0 225 88 502q106 338 264 440q39 27 119 27q113 0 219 -64q68 -39 90 -81q31 -55 31 -175q0 -70 -25 -202q-31 -164 -69 -164q-27 0 -43 41q-14 31 -15 61q0 55 35 189q35 135 35 196q0 68 -86 109q-70 35 -143 35q-152 0 -279 -344q-117 -317 -117 -623 q0 -344 254 -344q227 0 439 162l32 59q29 -4 29 -24q0 -10 -18 -56q-70 -90 -203 -149q-131 -55 -254 -56q-190 0 -293 140q-90 127 -90 321z" />
<glyph unicode="D" horiz-adv-x="1122" d="M-45 987q0 68 180 160q68 33 205 98q0 106 -16 117q0 24 49 24h4q90 0 90 -81q143 45 221 45q111 0 152 -15q59 -18 123 -84q82 -88 100 -123q49 -81 49 -198q0 -129 -65 -361q-74 -254 -179 -419q-127 -201 -264 -201q-39 0 -78 28l-73 54q-27 14 -91 37v-41 q6 -12 7 -23q0 -20 -27 -20q-59 0 -59 71q0 53 -9 127q-6 86 -6 129q0 279 29 549l27 268q0 27 -2 37q-182 -68 -310 -151q-12 -10 -12 -31q-2 -29 -6 -39q-12 -6 -25.5 9.5t-13.5 33.5zM354 168l95 -82q66 -47 112 -47q166 0 313 326q140 313 140 608q0 176 -94 246 q-84 59 -265 59q-143 0 -202 -51q-53 -166 -99 -1059z" />
<glyph unicode="E" horiz-adv-x="1220" d="M0 369q0 143 113 249q78 74 237 156q-100 35 -149 78q-59 55 -60 149q0 207 316 312q220 73 474 73h7q94 0 131 -14q72 -23 72 -94q0 -61 -25 -61q-23 25 -69 57q-35 18 -99 18q-223 0 -440 -61q-309 -88 -309 -254q0 -72 104 -111q71 -26 158 -26h6q29 0 190 12 q130 8 166 8h11q24 -16 24 -53v-8q-4 -43 -33 -54q-47 29 -71 29q-178 0 -400 -90q-297 -123 -297 -324q0 -164 209 -241q152 -55 346 -56q78 0 199 21q139 23 190 49q135 72 136 86q0 4 -7 4v39q72 0 72 -43q0 -104 -254 -184q-203 -63 -344 -64q-225 0 -393 84 q-211 106 -211 314z" />
<glyph unicode="F" horiz-adv-x="911" d="M-29 1241q0 39 76 47q25 2 93.5 7t103.5 8q393 41 676 47q130 -9 189 -9h11q14 1 26 1q71 0 71 -25q0 -14 -27 -17q-7 -1 -24 -1t-44 1q-37 2 -80 3q-74 0 -202 -15l-287 -28q-92 -346 -92 -580q29 4 80 4q94 0 225 -8q2 -6 2 -14q0 -45 -145 -50q-158 -2 -168 -12 q0 23 -1 23t-5 -127q0 -47 -1.5 -102.5t-2.5 -86.5t-1 -45q0 -207 25 -268q-23 -6 -37 -6q-70 0 -70 131v360q0 16 3.5 69.5t3.5 67.5q-102 4 -236 21q-4 2 -2 8l4 8q43 16 127 17q59 0 82 -2h23q14 197 49 577q-139 -14 -324 -37q-20 -4 -39 -16q-6 -4 -12 -9t-10 -7t-6 -5 l-5 -2q-10 0 -45 48q-4 20 -4 24z" />
<glyph unicode="G" horiz-adv-x="1075" d="M0 416q0 393 231 778q59 96 99 129q59 49 151 49q53 0 256 -88q39 -16 78 -67q51 -63 51 -142q0 -283 -65 -282q-76 0 -76 147q0 35 6 98.5t6 98.5q0 63 -80 116q-72 49 -139 50q-100 0 -207 -199q-207 -379 -207 -715t258 -336q145 0 287 123q141 127 142 268 q0 72 -35 95q-412 0 -563 -52q0 53 67 68q358 72 643 72q170 0 170 -31q0 -20 -188 -51q-6 -70 -27 -170q-29 -152 -172 -269q-144 -116 -296 -116h-3q-193 0 -293 119q-94 109 -94 307z" />
<glyph unicode="H" horiz-adv-x="1077" d="M-45 504q0 39 57 51q18 4 90 14q49 424 50 594q0 90 -13 137q78 -8 103.5 -35.5t25.5 -105.5q0 -88 -28.5 -284.5t-28.5 -286.5q27 -4 100 -4q48 0 117 2l301 8q0 6 4 60.5t8 101.5l39 530q0 4 -4 24.5t-4 28.5q0 45 62 45q39 0 72.5 -24.5t33.5 -59.5q0 -18 -18 -71 q-27 -74 -27 -78q-18 -92 -51 -328l-31 -225q154 -10 182 -10q29 14 52 14q30 1 30 -22q0 -16 -51 -31q-33 -10 -63 -14q-133 -8 -158 -11q0 -45 -6 -133q-4 -119 -4 -133q0 -172 71 -262q-51 -33 -90 -33q-14 0 -49 37q-66 72 -88 92q-84 76 -223 182q-182 139 -228 140 q-10 -164 -10 -203q0 -119 23 -219q-15 -2 -28 -2q-49 0 -62 30q-2 4 -15 109q-6 53 -6 119q0 63 6 141l6 78h-88q-59 4 -59 37zM193 489q0 -14 30 -28q45 -18 70 -35q41 -27 213 -135q137 -90 219 -221l-2 444q-43 8 -266 8l-178 2q-86 -4 -86 -35z" />
<glyph unicode="I" horiz-adv-x="616" d="M-53 -8q0 18 108 31l146 16q0 14 -6.5 69.5t-6.5 71.5q0 12 23 570q13 341 13 440q0 33 -1 39q-125 0 -217 6q37 31 84 55q346 37 377 37q47 0 84 -2q39 -2 86 -2q19 0 29 -18q-68 -31 -88 -35l-205 -35q-45 -143 -72 -473q-25 -295 -25 -541q0 -139 11 -170l80 4 q28 1 51 1q107 0 106 -23q-18 -20 -100 -39q-119 -29 -283 -29q-193 0 -194 27z" />
<glyph unicode="J" horiz-adv-x="737" d="M-66 281v5q0 17 10 26q13 12 38 12q31 0 88 -62q94 -104 112 -117q76 -61 154 -61q119 0 160 135q28 95 28 307v15q0 106 -4 393l-4 285q0 10 -10 40.5t-10 38.5q0 49 57 50q113 -1 113 -58q0 42 -3 42t-8 -32q-4 -16 -6 -40q-14 -111 -31 -295q-16 -207 -16 -269 q0 -98 2 -176q4 -156 4 -176q0 -152 -18 -217q-35 -127 -146 -127q-104 0 -297 90q-207 102 -213 191z" />
<glyph unicode="K" horiz-adv-x="956" d="M-35 504l15 47q25 10 92 47q0 72 20 268q15 147 15 235q0 19 -1 36l-8 163q66 98 90 99q51 0 52 -66q0 45 -4 45t-13 -55q-2 -18 -6 -43q-23 -160 -41 -362q-23 -238 -22 -279q186 121 188 121q186 125 313 239q233 209 299 338q16 0 32 -28.5t18 -55.5 q-45 -82 -148 -178q-14 -14 -182 -157q-178 -152 -381 -285q-147 -96 -148 -101q0 -78 306 -241q289 -152 397 -164q20 -2 63 -2q45 -2 50 -23q-10 -10 -31 -32q-27 -33 -45 -33q-23 0 -183 65q-211 86 -561 275q0 -215 2 -242q4 -90 31 -121q0 -18 -37 -18q-78 0 -82 176 v125q2 63 2 127q-66 37 -92 80z" />
<glyph unicode="L" horiz-adv-x="1374" d="M-25 352q0 43 39 83t82 40q145 0 332 -65q94 -33 270 -119q33 129 33 371q-18 0 -79.5 -10.5t-80.5 -10.5q-88 0 -88 31q0 16 23 39q23 -16 67 -17q98 0 168 35q55 332 68 381q84 326 190 326q94 0 205 -187q51 -86 53 -92q20 -43 21 -100q0 -53 -72 -131 q-49 -55 -116 -101q-94 -59 -246 -125q-6 -117 -70 -473q154 -94 295 -198q127 -92 188 -125q79 -40 159 -40q11 0 22 1q-20 -33 -80 -33q-94 0 -246 100q-319 209 -362 232q-43 -88 -82 -127q-94 -92 -271 -92q-152 0 -288 127q-133 129 -134 280zM63 348q0 -92 111 -209 q125 -135 281 -135q94 0 159.5 60.5t65.5 150.5q-287 199 -518 199q-98 0 -99 -66zM854 772q147 53 217 115q98 84 98 215q0 68 -30 141q-41 90 -97 90q-106 0 -188 -561z" />
<glyph unicode="M" horiz-adv-x="1542" d="M-168 8l14 10q134 -26 166 -26h2q66 0 138 63q57 51 98 123q117 207 213 524q100 332 100 553q0 92 62 93q43 0 125 -62q-20 -49 -21 -287q0 -334 39 -579q49 -315 135 -316q59 0 193 394q119 356 164 596q0 4 4 141q2 68 26 76q170 0 176 -54q-29 -63 -59 -399 q-27 -287 -27 -430q0 -520 160 -563q-20 -43 -43 -43q-117 0 -172 307q-37 201 -37 395q0 123 6 293q3 94 3 139q0 23 -1 33q-8 -18 -26 -78q-80 -281 -140 -483q-135 -428 -245 -428q-145 0 -213 432q-4 27 -25.5 194t-38.5 292q-23 -23 -108 -295q-98 -309 -187 -465 q-137 -242 -309 -242q-102 0 -172 92z" />
<glyph unicode="N" horiz-adv-x="1093" d="M-100 16q0 33 26 33q12 0 21 -8q-8 -8 -8 -14q0 -25 55 -25q238 0 352 756q61 406 62 577q0 27 -2 33q33 51 79 51q106 0 107 -73q0 -506 86 -889q80 -356 162 -357q37 0 39 111l12 276q14 160 49 539q35 303 111 404q41 -6 41 -31q0 -8 -7.5 -26.5t-16.5 -39t-11 -26.5 q-45 -176 -82 -576q-35 -387 -35 -627q0 -8 5 -34.5t5 -32.5q0 -47 -92 -47q-84 0 -129 76q-16 20 -67 184q-104 305 -195 897q-31 -117 -84 -516q-45 -328 -104 -475q-84 -207 -246 -207q-133 0 -133 67z" />
<glyph unicode="O" horiz-adv-x="892" d="M0 483q0 201 47 412q55 242 156 381q45 66 67 96q49 61 92 62q10 0 48 -17q16 10 26 10q408 -26 408 -563q0 -324 -76 -551q-115 -342 -369 -342q-195 0 -303 164q-96 145 -96 348zM109 487q0 -452 275 -452h1h1q382 0 382 839q0 184 -53 314q-74 176 -236 176 q-158 0 -274 -352q-96 -293 -96 -525z" />
<glyph unicode="P" horiz-adv-x="1011" d="M-35 1110q-5 25 -5 46q0 45 24 69q23 25 106 47q88 27 109 31l8 98q20 20 57 20h10q63 -2 64 -65q0 -16 -2 -25q238 51 389 51q156 0 262 -63q133 -78 133 -219q0 -244 -323 -414q-215 -113 -537 -174l-10 -293q0 -186 57 -223q-4 0 -19.5 -3t-19.5 -3q-51 0 -71 33 q-12 20 -21 90q-10 92 -10 381q-18 -2 -43 4l8 47l41 10v36q0 133 12 372l15 247q-80 -16 -158 -53q-57 -29 -76 -47zM260 573q158 45 275 84q188 68 280 142q199 162 199 348q0 170 -246 170q-84 0 -291 -37q-16 -2 -151 -31q-27 -74 -47 -360q-18 -238 -19 -316z" />
<glyph unicode="Q" horiz-adv-x="849" d="M0 582q0 276 119 571q55 139 96 186q63 74 168 76h9q106 0 247 -92q129 -82 164 -203q18 -65 18 -274q0 -199 -47 -440q-68 -336 -242 -435q147 -53 254 -53q16 0 21 2l-10 -33q-4 -4 -21 -4q-55 0 -182 16.5t-182 16.5q-162 0 -267 -27q-12 -2 -47 -24q-29 -20 -37 -21 q-14 0 -14 25q0 39 70 65q98 39 110 48q-227 135 -227 600zM104 498q0 -188 52 -316q70 -180 231 -180q190 0 277 315q57 205 57 463q0 334 -62 449q-8 16 -67 43q-43 33 -55 45q-31 18 -70 18q-88 0 -143 -59q-41 -47 -93 -162q-127 -295 -127 -616z" />
<glyph unicode="R" horiz-adv-x="1142" d="M-45 1034q0 61 149 131l160 74q10 14 6 61q-1 14 -1 25q0 23 3 39q55 -10 70 -18q27 -16 35 -62q365 66 504 66q131 0 245 -66q131 -76 131 -201q0 -68 -110 -180q-94 -98 -174 -139q-297 -160 -486 -209q12 -47 93 -160q74 -104 118 -149q70 -70 164 -131 q113 -70 193 -70q8 0 36.5 9t34.5 9q12 0 13 -14q-29 -20 -90 -49q-80 0 -179 45q-92 39 -159 96q-104 88 -279 285q-61 90 -80 90q-31 0 -41 -108q0 -92 -2 -140q0 -23 -1 -43t-1 -28l-2 -11q0 -100 25 -233q-8 -27 -29 -27q-33 0 -53 45q-18 33 -19 70v40q0 140 11 408 q14 289 14 451q0 37 8 117t8 104q-33 0 -157 -59q-121 -59 -121 -82q0 -6 12 -19q-10 -10 -20 -10q-29 0 -29 43zM330 594q86 10 235 57q135 43 230 90q121 59 217 156q118 118 118 227q0 160 -245 160q-213 0 -508 -90q-14 -219 -33 -403q-14 -129 -14 -197z" />
<glyph unicode="S" horiz-adv-x="878" d="M-53 123q0 20 22 31q18 -14 56 -54q10 -10 137 -41q176 -43 330 -43q221 0 221 127q0 74 -58 99l-471 202q-141 61 -141 245.5t170 529.5q83 163 187 163h1q121 0 222 -94q104 -94 112 -213q10 -154 10 -262q0 -123 -45 -123q-47 0 -47 70q0 147 -18 325q-10 78 -57 148 q-55 84 -125 84q-100 0 -207 -266q-94 -231 -94 -361q0 -68 37.5 -128t99.5 -85l366 -153q166 -70 166 -195q0 -96 -108 -145q-88 -41 -195 -41q-293 0 -524 120q-47 25 -47 60z" />
<glyph unicode="T" horiz-adv-x="1138" d="M-35 1100q0 92 105 119l254 32q188 23 596 41q315 14 477 15q29 0 43 -8.5t12 -24.5q-2 -33 -43 -33q-276 0 -571 -24q-14 -74 -56 -402q-51 -399 -63 -653q-1 -15 -1 -31q0 -72 15 -166q-14 2 -55 21q-41 47 -41 157q0 164 31 490q32 306 32 477v10q0 35 -4 76 q-18 2 -48 2q-59 0 -163 -8q-460 -35 -460 -123q0 -66 184 -66q205 0 387 56q-37 -61 -86 -74q-193 -47 -326 -47q-104 0 -155 29q-63 39 -64 135z" />
<glyph unicode="U" horiz-adv-x="1110" d="M-35 926q12 -2 37 -2q248 0 442 430q106 -33 107 -66q0 -14 -35 -55q-35 -43 -41 -55q-153 -365 -153 -714q0 -183 28 -280q53 -157 191 -157h2q115 0 213 188q61 115 108 287q78 295 78 561q0 96 -8 135q-6 23 -6 37q12 23 39 22h1q37 0 126 -67q-18 -31 -39 -98 q-20 -74 -25 -109l-65 -639v-207q6 -186 45 -217q-14 -10 -43 -10q-66 0 -78 160q-4 88 -12 262q-92 -186 -123 -232q-92 -129 -211 -129q-319 0 -320 506q0 190 80 512q-150 -115 -231 -115q-55 0 -107 52z" />
<glyph unicode="V" horiz-adv-x="1124" d="M-43 727q0 147 166 412q152 233 270 233q74 0 129 -84q49 -74 49 -151q0 -129 -26 -363q-25 -244 -25 -366q0 -111 35 -240q49 -168 135 -168q139 0 244 496q88 416 88 807l4 24q2 16 0 25q-2 10 -12 26q23 16 33 17q40 0 40 -90q0 -506 -94 -910q-109 -471 -284 -471 q-162 0 -236 207q-53 150 -53 342q0 102 22 338q25 227 25 340q0 141 -66 141q-78 0 -215 -196q-123 -174 -159 -277q-6 -14 -25 -90q-10 -43 -20 -43q-25 0 -25 41z" />
<glyph unicode="W" horiz-adv-x="1146" d="M0 639q0 170 29 559q-8 18 -9 47q0 72 50 72q33 0 66.5 -23.5t33.5 -52.5q0 -51 -27 -149q-33 -119 -34 -156q-20 -172 -21 -444q0 -135 31 -273q45 -203 135 -203q74 0 141 156q47 111 66 217q43 250 51 698q0 8 -4 37t-4 37q35 14 69 15q55 0 86 -39q-77 -77 -77 -671 v-15q0 -119 28 -244q43 -180 129 -180q113 0 201 340q53 201 82 428q10 92 12 174q0 92 -2 157l-4 156q0 14 -12 47t-12 49q0 18 20 19q29 0 45 -31q33 -57 33 -313q0 -408 -90 -725q-102 -356 -269 -357q-145 0 -217 262q-6 25 -11 41.5t-9 27.5t-7 16.5t-5 5.5 q-76 -389 -230 -390q-264 0 -264 705z" />
<glyph unicode="X" horiz-adv-x="1017" d="M0 733q0 168 88 344q96 197 209 197q111 0 168 -82q20 -33 47 -107q51 -150 82 -309q244 348 485 549q18 -10 19 -22q0 -20 -54 -84l-73 -80q-293 -336 -359 -463q86 -369 158 -498q35 -68 86 -164q51 -76 156 -80q0 -25 -13 -26q-2 -2 -32 -2q-139 0 -240 160 q-92 152 -192 497q-317 -483 -318 -563l8 -66q-88 6 -88 74q0 66 182 346q184 281 185 312q-63 344 -76 387q-43 151 -108 151h-1q-94 0 -188 -203q-82 -178 -80 -253q10 -31 10 -48q0 -29 -24 -28q-37 0 -37 61z" />
<glyph unicode="Y" horiz-adv-x="823" d="M-121 -348q0 37 53 37q18 0 137 -94.5t199 -94.5q358 0 359 596q0 123 -15 326q-70 -205 -104 -266q-90 -160 -211 -160q-154 0 -223 135q-55 109 -56 272q0 109 23 363q25 242 25 362q0 8 -2.5 39t-2.5 39q0 63 37 64q16 0 101 -70l-2 -8q-2 -8 -6.5 -26.5t-8.5 -37.5 q-10 -43 -10 -47q-59 -367 -59 -673q0 -362 166 -363q115 0 215 203q90 178 118 399q37 311 58 670q2 37 52 37h5q68 -2 70 -51q-51 -209 -66 -308q-33 -211 -33 -530q0 -70 11 -264q12 -174 12 -262q0 -172 -100 -324q-115 -170 -277 -170q-82 0 -262 66q-203 76 -203 141z " />
<glyph unicode="Z" horiz-adv-x="954" d="M-45 53q0 55 121 238q119 176 217 284l313 357q168 193 168 215q0 27 -74 27q-264 0 -528 -74q-33 -10 -49.5 -22.5t-13.5 -28.5q-47 0 -48 32q0 53 105 86q61 18 219 50q301 57 403 57q72 0 123.5 -44t51.5 -112q0 -33 -74 -69l-12 -7q-57 -29 -537 -550 q-51 -55 -160 -201q-123 -168 -123 -203q0 -25 78 -25q66 0 219 25q147 27 236 27q78 0 166 -13q127 -16 127 -43q0 -32 -49 -32h-3q-16 0 -69 7t-68 7q-78 0 -225 -23l-207 -30q-20 -2 -108 -27q-75 -22 -104 -22h-3q-43 0 -67 38q-25 31 -25 76z" />
<glyph unicode="[" horiz-adv-x="595" d="M154 1329q-4 37 90 39h237q37 0 37 -27q0 -43 -22 -61q-6 -6 -12.5 -6t-43.5 11t-51 11q-68 0 -129 -22q-23 -117 -22 -328q2 272 2 -2v-373q0 -506 39 -694q20 -8 45 -12q14 -2 32 0q14 2 33 2q12 0 52 4t53 4q34 1 34 -22q0 -45 -47 -45.5t-139 -12.5q-84 -14 -131 -14 q-33 0 -33 22l-2 768q0 526 -22 758z" />
<glyph unicode="\" horiz-adv-x="204" d="M6 14q0 8 4 14.5t9.5 9.5t12.5 7t9 4q37 0 104 207q45 135 86 303q12 47 28.5 47t16.5 -31q0 -68 -79 -311q-90 -268 -144 -268q-47 0 -47 18z" />
<glyph unicode="]" horiz-adv-x="552" d="M80 1313q0 45 47 45q49 0 137 12q86 14 133 14q33 0 33 -22l2 -770q0 -527 23 -756q4 -37 -90 -39h-238q-37 0 -37 27q0 43 23 61q6 6 12 6t43 -11t51 -11q66 0 127 22q23 109 25 326l-2 375q0 500 -37 696q-29 10 -45 12q-14 2 -35 0q-14 -2 -33 -2q-12 0 -52 -4t-52 -4 q-35 0 -35 23z" />
<glyph unicode="^" horiz-adv-x="638" d="M131 815q0 61 37 154q47 111 59 159q35 141 56 175q45 82 147 73q25 -25 35 -98q27 -68 98 -270q45 -129 64 -170q12 -27 12 -50q0 -20 -21 -20q-37 0 -124 193q-70 154 -109 309q-29 -16 -39 -27q-8 -8 -12 -47q0 -2 -6 -17.5t-19.5 -47t-27.5 -68.5q-8 -20 -24.5 -71.5 t-36 -108t-40.5 -113.5q-16 -29 -35 -29q-14 0 -14 74z" />
<glyph unicode="_" horiz-adv-x="1024" d="M-4 -160h1034v-86h-1034v86z" />
<glyph unicode="`" d="M-16 1192q0 35 39 43q45 8 69 -31q23 -23 49 -47q51 -49 52 -63q-1 -9 -11 -29l-12 -12l-94 55q-2 0 -7.5 3t-14.5 8t-15 9q-55 35 -55 64z" />
<glyph unicode="a" d="M-49 258q4 80 51 266q59 213 100 213q90 0 115 -47l37 -74l72 -24q-51 -150 -70 -367q-1 -12 -1 -24q0 -36 9 -74q16 -72 51 -72q70 0 191 504q12 47 28.5 47t16.5 -31q0 -76 -76 -309q-86 -266 -147 -266q-76 0 -125 150q-51 -190 -137 -191q-115 0 -115 271v28zM14 117 q0 -35 15 -66q18 -39 47 -39q39 23 82 158q37 117 45 182l24 189l-24 32q-8 94 -51 95q-33 0 -62 -99q-10 -33 -43 -143q-33 -125 -33 -309z" />
<glyph unicode="b" horiz-adv-x="514" d="M0 78q0 8 4 20v54q0 304 41 639q16 106 57 444q5 39 5 62q0 17 -3 26q10 19 40 19q7 0 14 -1q49 0 49 -51q0 -20 -14 -71q-20 -82 -27 -121q-90 -516 -90 -690q20 49 41 131q43 166 123 166q127 -1 127 -183q0 -150 -39 -323q-53 -250 -144 -250q-49 0 -90 92h-18 q-10 -31 -28.5 -31t-33 23.5t-14.5 44.5zM80 117q18 -14 49 -68q18 -31 45 -31q49 0 82 125q45 156 45 340q0 170 -47 170q-57 0 -119 -237q-55 -207 -55 -299z" />
<glyph unicode="c" horiz-adv-x="337" d="M18 549q51 199 125 199q29 0 64 -43q35 -45 35 -74q0 -49 -35 -49q-27 0 -74 34q-84 -102 -84 -405q0 -47 17 -96q20 -63 63 -64q117 0 219 441q16 76 19 83q8 31 26 31q16 0 17 -35q0 -33 -37 -168q-45 -170 -74 -239q-70 -172 -152 -172q-96 0 -139 106q-29 79 -29 185 q0 110 39 266z" />
<glyph unicode="d" horiz-adv-x="509" d="M-39 186q0 164 64 373q72 231 149 232q27 0 64 -31q39 -29 41 -29q4 0 8 6q8 66 34.5 261.5t43.5 324.5q-1 11 -1 20q0 36 19 43q8 2 35 3q42 0 42 -46q0 -7 -1 -16q-8 -37 -33 -169t-43 -228q-4 -35 -49 -385q-35 -279 -35 -342q4 -146 47 -154q37 0 105 207 q45 135 86 303q12 47 28.5 47t16.5 -31q0 -68 -80 -311q-90 -268 -144 -268q-96 0 -114 203q-41 -100 -60 -133q-49 -92 -98 -93q-63 0 -98 78q-27 55 -27 135zM33 229q0 -199 45 -199t104 152q41 102 66 213q0 6 3 40t7 65q8 57 8 104q0 92 -61 92q-66 0 -125 -202 q-47 -170 -47 -265z" />
<glyph unicode="e" horiz-adv-x="389" d="M-12 244q0 133 26 280q39 223 113 224q45 0 81 -31t36 -74q0 -152 -88 -340q-35 -78 -86 -158q0 -35 34 -79q35 -43 70 -43q98 0 221 466q31 117 39 117q27 1 27 -24q0 -14 -31 -138q-78 -307 -154 -411q-47 -59 -108 -60q-86 0 -139 97q-41 82 -41 174zM59 221 q47 29 91 185q38 135 38 215q0 69 -27 69h-1q-16 0 -25 -26q-76 -227 -76 -443z" />
<glyph unicode="f" horiz-adv-x="362" d="M-27 -344q12 831 142 1667q16 14 63 14q35 0 62 -24q-51 -76 -70 -185q-88 -512 -109 -845q43 -6 78 -66q8 -12 41 -96q7 -2 13 -2q26 0 49 27q28 32 57 104q37 96 96 330q6 27 19 26q20 1 20 -28q0 -25 -31 -136q-45 -168 -55 -204q-23 -88 -72 -129q-25 -23 -79 -43 q57 -236 57 -381q0 -283 -70 -402q-10 -16 -51 -16q-160 0 -160 362v27zM37 -348q0 -76 16 -184q27 -150 70 -150q39 0 63 145q21 105 21 181q0 258 -64 417q-53 27 -82 84q-24 -286 -24 -478v-15z" />
<glyph unicode="g" horiz-adv-x="475" d="M-315 -489q0 174 362 301q74 16 178 49q0 45 -8 112q-6 74 -6 111q-8 -2 -47 -70q-36 -65 -75 -65h-1q-72 0 -106 78q-29 63 -29 141q0 137 61 367q63 241 121 241q41 0 113 -84q78 -90 127 -104q-51 -94 -80 -262q-23 -135 -23 -228q0 -55 15 -225q141 14 211 14 q90 0 90 -53q0 -35 -45 -35q-29 0 -74 23q-178 0 -178 -15q0 -18 2 -82.5t2 -80.5q0 -201 -41 -299q-61 -145 -236 -146q-129 0 -231 92q-102 90 -102 220zM-254 -508q0 -96 80 -164q77 -67 171 -67h3q242 0 242 368q-1 25 -9 170q-125 0 -198 -28q-106 -45 -182 -107 q-106 -86 -107 -172zM23 131q0 -131 51 -131q57 0 125 213q63 197 63 336q0 133 -108 133q-18 0 -72 -190q-59 -215 -59 -361z" />
<glyph unicode="h" horiz-adv-x="559" d="M10 313q0 158 47 500t47 500q0 29 -4 57q13 31 57 31h11q41 -4 41 -37q0 -27 -19 -88q-12 -53 -16 -78q-96 -602 -96 -889v-2q0 -2 1 -10t2 -18.5t3 -26.5t4 -33.5t5 -43t5 -50.5q104 293 164 623q8 55 41 55q25 0 88 -55q-55 -293 -55 -486q0 -166 65 -166q57 0 136 277 q31 102 49 188q8 45 26.5 45t18.5 -26q0 -29 -70 -275q-49 -174 -59 -196q-37 -88 -90 -89q-121 0 -133 230q-2 109 -5 328q-35 -53 -153 -588q-14 -8 -29 -8q-82 0 -82 331z" />
<glyph unicode="i" horiz-adv-x="270" d="M-12 205q0 63 16 223t16 225q14 14 41 15q53 0 54 -29q-2 -8 -6.5 -24.5t-10.5 -45t-12 -51.5q-39 -186 -39 -317q0 -137 62 -138q29 0 69 103q2 2 68 209q23 70 49 182q12 49 29 49q18 1 18 -28q0 -51 -72 -285q-53 -168 -67 -201q-41 -90 -99 -90q-63 0 -94 74 q-22 58 -22 123v6zM41 1143q0 20 21.5 42.5t41.5 22.5q70 0 70 -75.5t-51 -75.5q-33 0 -57.5 26.5t-24.5 59.5z" />
<glyph unicode="j" horiz-adv-x="278" d="M-539 -485q0 55 33 96q4 4 23.5 27.5t33.5 42.5q115 141 453 225l-10 180q0 123 14 303q13 150 13 190q0 10 -1 13q-4 14 -6 24l-4 13q55 14 78 14q43 0 43 -29q-35 -78 -57 -288q-16 -174 -17 -303q0 -47 4 -113q16 0 67.5 5t66.5 5q45 0 88 -20q53 -29 53 -64 q0 -12 -17 -35q-6 0 -29.5 24.5t-31.5 29.5q-35 18 -96 18q-12 0 -49 -5t-45 -5l14 -330v-11q0 -108 -74 -192q-76 -88 -192 -88q-125 0 -234 72q-121 84 -121 201zM-385 -649q88 -53 180 -53q98 0 157 62q58 59 58 153v6l-6 329q-92 -14 -203 -71q-282 -144 -282 -276 q0 -91 96 -150zM68 1161.5q0 18.5 20.5 48t36.5 29.5q65 0 65 -53q0 -76 -57 -76q-20 0 -42.5 16.5t-22.5 35z" />
<glyph unicode="k" horiz-adv-x="532" d="M-8 168q0 180 41 545q41 360 45 547q-5 19 -5 39q0 15 3 30q8 45 41 45q29 0 47 -22.5t18 -53.5q0 -51 -43 -235q-6 -41 -30 -223q-33 -225 -46 -432q10 14 115 239q55 119 113 119q43 0 72.5 -30.5t29.5 -73.5q0 -92 -51 -181q-31 -47 -90 -143q-6 -25 -6 -66 q0 -72 18 -131q27 -86 80 -86q49 0 98 117q43 111 103 326q2 18 12 63q8 45 31 45q16 0 16 -24q0 -46 -18 -107q-10 -33 -40 -131t-48 -158q-66 -190 -146 -190q-90 0 -129 94q-8 18 -43 164q-20 -8 -106 -68q-4 -47 -13 -123q14 -43 15 -65q0 -31 -33 -31q-29 0 -43 88 q-8 35 -8 113zM94 266q72 0 158 168q80 154 80 238q0 43 -33 43t-66 -64q-16 -29 -61 -141q-78 -193 -78 -244z" />
<glyph unicode="l" horiz-adv-x="407" d="M0 367q0 180 37 450q39 283 92 440q10 139 70 140q135 0 135 -205q0 -166 -66 -399q-68 -240 -159 -371q0 -2 -29 -41q-16 -23 -17 -45q0 -143 66 -234q47 -61 84 -61q76 0 193 405q18 82 28 117q8 43 26.5 43t18.5 -31q0 -80 -82 -319q-94 -285 -188 -285 q-106 0 -166 152q-43 115 -43 244zM68 475q78 121 141 342q61 207 61 318v9q0 145 -32 177q-170 -559 -170 -846z" />
<glyph unicode="m" horiz-adv-x="851" d="M20 469q-1 21 -1 38q0 103 49 103q51 0 51 -80q0 -57 -14.5 -149t-14.5 -150q0 -102 14 -174q45 72 58 142q33 182 47 235q53 190 113 191q61 0 61 -138q-20 -166 -21 -278q0 -98 21 -98q43 0 111 245q57 198 57 254q0 9 -2 15q4 22 40 22h3q27 0 80 -33 q-51 -231 -51 -399q0 -156 49 -156q55 0 121 191q10 23 79 278q12 41 17 62q6 16 20 16q17 1 17 -24q0 -113 -123 -432q-59 -154 -131 -154q-88 0 -105 172q-2 74 -8 221q-53 -199 -82 -274q-47 -115 -96 -115q-72 0 -72 121q0 49 10.5 188.5t10.5 188.5q0 18 -15 18 q-23 0 -53 -143q-43 -209 -59 -264q-45 -141 -105 -142q-63 0 -63 199q0 72 2 127q4 115 4 129z" />
<glyph unicode="n" horiz-adv-x="579" d="M23 526q2 55 10 74q12 33 51 33q41 0 41 -37q0 -12 -14 -53q-12 -39 -13 -66q0 -61 -2 -110.5t-2 -110.5q0 -147 33 -147q10 0 27 53q29 119 43 155q61 190 69 318q6 86 29 102q104 -6 104 -65q0 28 -2 28t-8 -36q-4 -37 -12 -109q-20 -193 -21 -260q0 -221 58 -221 q49 0 118 217q47 147 70 252q14 63 33 63q16 0 16 -31q0 -57 -71 -278q-98 -297 -158 -297q-76 0 -105 145q-14 74 -26 353q-39 -133 -107 -402q-20 -88 -63 -88q-61 0 -78 86l-8 154q-3 45 -3 86t3 78l6 75z" />
<glyph unicode="o" horiz-adv-x="505" d="M0 287q0 195 33 262q0 -6 0 2q-2 6 -2 12q-2 18 -2 37q2 18 12 29q2 8 20 86q14 69 68 69h2q53 0 111 -45q59 -45 75 -92q16 -49 17 -297q29 -23 51 -22q74 0 107 80q16 31 43 161q10 37 24 37q19 0 19 -18q0 -90 -54 -213q-47 -109 -125 -109q-10 0 -71 25 q-4 -20 -25 -115q-37 -102 -53 -129q-40 -65 -98 -65h-2q-150 0 -150 305zM70 262q0 -221 90 -221q23 0 59 82q49 109 49 162q0 39 -16 131t-16 129q0 8 3 45t3 45q0 72 -66 72q-43 0 -76 -193q-30 -161 -30 -247v-5z" />
<glyph unicode="p" horiz-adv-x="532" d="M-57 -414q0 186 47 574q41 337 41 510v30q-10 10 -11 21q0 27 33 27q39 0 39 -58q0 -8 -3 -34.5t-3 -32.5v-21q2 -14 2 -35v-80q20 61 55 146q53 117 80 117q94 0 131 -56q29 -45 29 -145q0 -184 -37 -340q-57 -242 -188 -242q-39 0 -68 41q-33 51 -45 55 q-39 -197 -39 -473q0 -104 8 -151q6 -39 27 -88q0 -8 -29 -8q-69 0 -69 236v7zM63 190q41 -23 41 -36q0 -4 -9 -15.5t-9 -17.5q0 -37 18 -68q23 -37 58 -37q72 0 119 170q36 128 36 227v5v24q2 14 2 37v66q1 160 -67 160q-27 0 -47 -50l-45 -118q-97 -254 -97 -342v-5z" />
<glyph unicode="q" horiz-adv-x="452" d="M-37 152q0 143 37 323q55 252 143 252q57 0 107 -115q4 49 24 50q18 0 36 -25t18 -45q0 -4 -4 -17q-8 -104 -9 -239q0 -299 43 -633q41 152 123 358q14 37 21.5 45.5t25.5 6.5q-61 -145 -114 -338q-45 -156 -45 -180.5t37 -143.5v-29q0 -18 -48 -18q-55 0 -55 43 q0 14 2 21q-4 121 -29 391q-25 276 -25 373q0 17 1 28q-53 -164 -76 -213q-39 -76 -88 -76q-125 0 -125 181zM27 190q0 -76 4 -108q8 -57 47 -57q53 0 115 235q55 209 55 297q-20 20 -53 74q-13 24 -39 24h-2q-49 0 -82 -125q-45 -166 -45 -340z" />
<glyph unicode="r" horiz-adv-x="458" d="M-12 393q0 33 24 129q27 92 27 146q0 20 -16.5 69t-16.5 72q0 102 51 102q41 0 43 -63q1 -5 1 -13q0 -17 -3 -51l-4 -65q0 -18 86 -66q88 -45 88 -104.5t-16 -202.5q-16 -141 -16 -201q0 -96 59 -96q35 0 108 215q70 199 82 295q6 47 29 47q16 0 16 -31q0 -68 -79 -311 q-91 -268 -144 -268q-63 0 -106 72q-18 31 -21 125q-2 35 -2 82.5t2 107.5l4 164q0 49 -100 100q0 -49 -49 -219q0 -2 -10 -22l-11 -21z" />
<glyph unicode="s" horiz-adv-x="337" d="M-51 279q84 317 84 452q0 55 53 55q59 0 59 -38q0 -6 -10 -50.5t-10 -58.5q0 -78 49 -240q51 -155 51 -231q0 -70 -28 -131q-37 -70 -105 -70q-61 0 -106 51q-33 33 -33 66q0 39 16 43q14 0 15 -33q35 -78 75 -78q94 0 95 160q0 70 -41 215q-23 74 -43 129 q-4 -16 -11.5 -41.5t-19.5 -65.5t-21 -69q-20 -70 -53 -70q-4 0 -16 5z" />
<glyph unicode="t" horiz-adv-x="301" d="M-262 987q0 14 24 14q49 0 299 11q8 111 11 151l-11 37q6 14 23 14q27 0 82 -36v-43q-8 -45 -25 -125q10 0 34 -1t70 -2t91 -1q23 0 63.5 -2.5t104 -3.5t119.5 -3v-14q-8 -10 -103 -27q-78 -14 -117 -14q-115 0 -180 2l-98 2q-49 -344 -49 -504q0 -168 4 -229 q8 -125 57 -125q80 0 180 426q23 92 35 92q20 0 21 -31q0 -68 -72 -288q-90 -268 -170 -269q-70 0 -104 140q-23 96 -23 190q0 86 53 596q-35 4 -207 6l-47 -14q-14 16 -43 29q-23 10 -22 22z" />
<glyph unicode="u" horiz-adv-x="565" d="M14 154q0 104 9 252q8 209 22 231q10 16 35 16q20 0 36.5 -17.5t16.5 -37.5t-8 -47q-8 -33 -12 -47q-29 -166 -29 -381q0 -90 39 -90q31 0 57 51q25 53 35 80q45 106 68 266q0 2 14 88q10 66 10 88l-2 78q6 49 36 49h5q59 0 60 -33q0 -6 -11.5 -34.5t-13.5 -40.5 q0 -23 -21 -154q-16 -121 -16 -188q0 -195 59 -195q55 0 119 217q25 88 74 270q10 31 25 31q16 0 16 -24q0 -72 -70 -287q-86 -272 -170 -272q-45 0 -78 67q-8 12 -36 107q-10 -25 -32 -76t-32 -76q-37 -63 -96 -63q-53 0 -84 61q-25 51 -25 111z" />
<glyph unicode="v" horiz-adv-x="468" d="M29 377q0 57 2 102q2 47 2 105q-4 16 -4 22q0 18 24 19q63 -2 64 -66q0 -29 -11 -106q-8 -63 -8 -105q0 -254 62 -254q31 0 84 189q49 176 49 254v149l-14 59q0 12 14 13q55 0 55 -170q0 -115 -53 -322q-63 -248 -143 -248q-74 0 -105 152q-18 92 -18 207z" />
<glyph unicode="w" horiz-adv-x="653" d="M-4 283q0 20 16 213q14 172 21 190q12 27 39 27q25 0 59 -35q-76 -195 -76 -449q0 -174 68 -174q88 125 88 305q0 47 8 115q10 86 10 115q0 18 -4 31l-6 24q18 20 51 21q45 0 45 -39q0 -12 -10 -51t-10 -46q-16 -184 -16 -215q0 -39 28 -194q12 -33 45 -33q35 0 76 188 q23 117 23 152q0 27 -13 92q-10 72 -10 96q0 96 2 107q6 55 35 68q39 -20 43 -62l10 -297q2 -37 51 -37q70 1 97 107q4 18 12 59q12 45 31 45q16 0 16 -22q0 -59 -35 -148q-39 -104 -90 -104q-43 0 -102 30l-41 -227q-31 -102 -101 -102q-76 0 -125 168q-45 -205 -122 -205 q-113 0 -113 287z" />
<glyph unicode="x" horiz-adv-x="471" d="M29 -92q0 29 75 223q-16 76 -30 205q-14 115 -14 173q0 16 1 28l-28 34l12 93q8 61 41 61q51 0 51 -100q0 -6 -1 -20.5t-2 -43.5t-1 -55q-1 -39 -1 -72q0 -139 20 -182q45 113 153 356q55 104 78 150q37 -20 37 -39q0 -14 -86 -180q-113 -215 -164 -379q0 -31 28.5 -62.5 t57.5 -31.5q115 0 225 426q8 39 15 63q12 51 26 51q21 1 21 -28q0 -82 -78 -297q-98 -272 -219 -273q-41 0 -119 66q-6 -14 -45 -195q-53 6 -53 29z" />
<glyph unicode="y" horiz-adv-x="491" d="M-197 14q0 21 35 35q37 0 105 207q47 145 84 303q12 47 28.5 47t16.5 -31q0 -61 -80 -311q-90 -268 -142 -268q-47 0 -47 18zM-172 -592q0 150 184 283q145 102 279 131q0 219 -31 342q-10 -29 -53 -117q-34 -65 -83 -65h-1q-66 0 -98 67q-27 53 -27 125q0 100 18 291 q0 18 3.5 59t5.5 62q16 92 53 92q16 0 24.5 -7t6.5 -22l-23 -209q-16 -174 -16 -247q0 -166 53 -166t133 307q4 27 19.5 149.5t27.5 223.5q6 51 55 53h4q29 0 29 -27q0 -47 -43 -201q-17 -58 -17 -308q0 -49 1 -107q0 -59 6 -185l4 -90q4 0 80 21q66 16 92 16q90 0 90 -47 q0 -8 -6 -18q-86 14 -121 14q-33 0 -125 -31q0 -18 3 -77.5t3 -77.5q0 -469 -301 -469q-98 0 -163.5 67.5t-65.5 167.5zM-111 -612q0 -68 44 -120t106 -52q133 0 203 149q55 119 55 264v148q-180 -49 -301 -170q-106 -104 -107 -219z" />
<glyph unicode="z" horiz-adv-x="561" d="M-129 -537q0 242 434 431q-25 106 -125 161q-53 -47 -84 -47q-72 0 -71 51q0 52 94 52h10q102 117 141 211q51 121 52 303q0 141 -91 141q-55 0 -108 -68q-41 -57 -51 -118t-19 -62q-25 0 -24 33q0 55 41 154q55 129 133 129q84 0 134 -60.5t50 -152.5q0 -297 -184 -533 q74 -41 102 -72q31 -35 64 -108q88 18 155 18q74 0 74 -39q0 -18 -18 -26q-55 16 -107 16q-47 0 -92 -12q20 -156 20 -178q0 -158 -61 -289q-78 -170 -217 -170q-100 0 -176 70q-76 68 -76 165zM-49 -563q0 -70 40 -113t105 -43q129 0 197 154q53 123 53 264q0 74 -16 149 q-137 -31 -256 -149q-123 -125 -123 -262z" />
<glyph unicode="{" horiz-adv-x="636" d="M66 518q0 41 28 57q82 41 113 64q29 80 41 244q16 217 4 329q-8 70 38 106t142 36q8 0 43 3t45 3q41 0 37 -31q-4 -29 -35 -31q49 2 0 5h-80q-80 0 -92 -41q-14 -55 -24 -324q-6 -227 -68 -311q-8 -12 -48 -38t-48 -36q-23 -18 -23 -37q0 -12 27 -33q8 -6 25.5 -20 t23.5 -19q51 -59 57 -69q18 -35 29 -107q31 -219 31 -448q0 -37 33.5 -61.5t76.5 -24.5h72q27 -6 27 -31q0 -10 -17 -14q-8 0 -40.5 3t-43.5 3q-172 0 -172 69q0 68 -18 211q-16 154 -17 215q-4 117 -45 203q-12 20 -41.5 47t-52.5 33q-29 10 -28 45z" />
<glyph unicode="|" horiz-adv-x="552" d="M248 61q0 350 41 818q47 522 104 522q23 0 23 -37q0 -82 -33 -240q-14 -66 -29 -313q-20 -289 -20 -569q0 -205 12 -367q4 -35 23 -86q23 -61 22 -84q0 -31 -18 -55v-6q-2 -4 -4 -8.5t-4 -4.5q-16 4 -50 7q-10 0 -12 8q-55 133 -55 415z" />
<glyph unicode="}" horiz-adv-x="636" d="M59 -276q4 29 35 30q-49 -2 0 -4h80q80 0 92 41q16 55 25 322q6 227 67 311q8 12 48 37.5t49 36.5q23 18 22 37q0 12 -76 71q-51 59 -57 70q-18 35 -29 106q-31 219 -30 451q0 37 -34 61.5t-77 24.5h-72q-27 6 -26 31q0 10 16 14q10 0 43 -3t41 -3q172 0 172 -66 q0 -63 17 -215q18 -147 18 -217q4 -117 45 -203q10 -20 42 -47.5t52 -31.5q29 -7 29 -46q0 -41 -29 -57q-82 -41 -112 -63q-29 -80 -41 -244q-16 -215 -4 -328q8 -70 -38 -105.5t-143 -35.5q-8 0 -43 -3t-45 -3q-39 0 -37 31z" />
<glyph unicode="~" horiz-adv-x="1032" d="M96 338q0 84 92.5 164t178.5 80q88 0 168 -93q43 -51 75 -83q47 -43 103 -37q141 14 157 159q2 37 39 33q39 0 39 -41q0 -92 -71.5 -157.5t-163.5 -67.5q-78 -4 -135 39q-16 12 -101 100q-63 70 -104 70q-84 0 -133 -68q-2 -2 -31 -43t-49 -71q-10 -10 -27 -11 q-37 0 -37 27z" />
<glyph unicode="&#xa1;" horiz-adv-x="411" d="M176 18q102 283 103 816q0 184 -15 258q29 16 41 -5q39 -70 49 -137q6 -45 6 -149q0 -100 -20 -381q-20 -311 -37 -432q-8 -20 -49 -21q-39 0 -78 51zM233 1282q0 20 16.5 45t35.5 25q31 0 53 -20.5t22 -49.5q0 -20 -26 -61q-25 -43 -39 -43q-33 0 -47 39q-15 28 -15 65z " />
<glyph unicode="&#xa2;" horiz-adv-x="501" d="M0 709q0 301 131 395q-2 14 2 72q6 59 19 59q27 0 26 -12v-105q25 -10 92 -47q68 -51 68 -106q0 -29 -33 -29q-37 0 -82 49q-47 49 -49 49q-45 0 -82 -139q-33 -119 -33 -223q0 -72 19 -127q29 -80 86 -80q102 0 158 137q45 -8 45 -35q0 -23 -31 -61q-29 -37 -55 -53 q-43 -23 -119 -35q0 -12 2 -25v-33q0 -76 -27 -75q-14 0 -18 65q0 20 -2 39v37q-76 61 -99 123q-18 49 -18 160z" />
<glyph unicode="&#xa3;" horiz-adv-x="983" d="M-57 14q0 41 67 82q137 82 207 193q37 57 145 286q-109 -16 -143 -16q-72 0 -72 53q0 23 17.5 41.5t38.5 18.5q10 0 39.5 -3t38.5 -3q57 0 133 16q139 311 252 422q98 98 256 102q98 2 98 -61q0 -43 -43 -43q-4 0 -26.5 3t-30.5 3q-211 0 -377 -393q141 39 202 39 q102 0 103 -68q0 -49 -41 -49q-6 0 -38 5t-46 5q-45 0 -117 -16q-20 -6 -58 -15.5l-54 -13.5q-129 -309 -248 -452q219 74 364 73q96 0 97 -57q0 -41 -35 -51q-20 -6 -94 -6q-174 0 -488 -117q-68 -27 -92 -27q-55 0 -55 49z" />
<glyph unicode="&#xa4;" horiz-adv-x="1228" d="M76 168l200 203q-92 115 -92 266q0 158 92 266l-200 203l80 82l196 -205q119 94 264 94q147 0 261 -94l196 205l80 -82l-197 -203q88 -119 88 -266q0 -158 -88 -266l197 -203l-80 -82l-196 205q-109 -90 -261 -90q-156 0 -264 90l-196 -205zM287 637q0 -135 96 -238 q96 -98 233 -98q133 0 230 98q96 102 96 237.5t-96.5 238t-229.5 102.5q-137 0 -233 -102.5t-96 -237.5z" />
<glyph unicode="&#xa5;" horiz-adv-x="890" d="M-18 283q0 16 16 32.5t37 16.5q10 0 39.5 -2t38.5 -2q78 0 133 12l73 16l46 62l-52 -8q-117 -18 -168 -13q-47 6 -47 43q0 18 17.5 35t38.5 17q10 0 39.5 -3.5t37.5 -3.5q68 0 201 31l27 62q-2 432 -78 540q-4 8 -4 12q0 27 55 33q39 0 53 -30q55 -119 82 -439 q150 193 295 348q129 139 162 158q55 33 78 17q27 -18 26 -46q0 -10 -6 -22t-20.5 -26.5t-24.5 -25t-31.5 -28.5t-29.5 -25q-139 -131 -283 -313q-25 -31 -73 -92t-70 -92q66 14 106 14q102 0 103 -57q0 -41 -41 -41q-6 0 -38 4t-46 4q-41 0 -160 -22l-47 -62q72 14 111 14 q102 0 102 -57q0 -41 -41 -41q-6 0 -38 4t-46 4q-55 0 -164 -24q-133 -188 -207 -322q-31 -59 -63 -61q-49 -6 -58 39q-10 47 189 317q-174 -29 -225 -22q-45 6 -45 45z" />
<glyph unicode="&#xa6;" horiz-adv-x="454" d="M178 346h98v-702h-98v702zM178 678v704h98v-704h-98z" />
<glyph unicode="&#xa7;" horiz-adv-x="1003" d="M57 -256q0 51 90 123q82 66 111 65q37 0 37 -38q0 -45 -92 -111q86 -96 209 -96q170 0 170 145q0 135 -244 274q-223 129 -223 248q0 57 41 103.5t151 111.5l51 29q-92 82 -92 160t64 141q35 35 159 115q82 51 109 63q53 27 121 27q90 0 150.5 -46t60.5 -116 q0 -51 -35 -82q-39 -39 -92 -72q-57 -35 -80 -34q-39 0 -39 37q0 29 53 69q20 16 39 35q-68 113 -198 113q-160 0 -160 -166q0 -61 26 -101q49 -68 197 -147q238 -129 238 -256q0 -68 -54.5 -121t-193.5 -125q100 -74 100 -162q0 -45 -32.5 -98t-77.5 -82l-74 -45l-6 -4 q-4 -2 -9 -6q-145 -109 -262 -109q-92 0 -152.5 45t-60.5 113zM268 408q0 -61 52.5 -113.5t193.5 -130.5q61 -35 102 -62q109 78 109 172q0 66 -51 117q-46 47 -185 127q-68 37 -114 68q-106 -80 -107 -178z" />
<glyph unicode="&#xa8;" horiz-adv-x="311" d="M41 1143q0 20 21.5 42.5t41.5 22.5q70 0 70 -75.5t-51 -75.5q-33 0 -57.5 26.5t-24.5 59.5zM199 1145q0 20 21.5 42.5t41.5 22.5q70 0 70 -75.5t-51 -75.5q-33 0 -57.5 26.5t-24.5 59.5z" />
<glyph unicode="&#xa9;" horiz-adv-x="1572" d="M0 463q0 338 242 637q266 328 624 327q268 0 475 -200q205 -199 205 -469q0 -399 -291 -682q-272 -264 -610 -264q-279 0 -463 186q-182 188 -182 465zM66 461q0 -246 163 -416q166 -166 414 -166q344 0 592 273q244 266 244 610q0 242 -185 420q-180 180 -426 180 q-330 0 -575 -305q-227 -283 -227 -596zM279 434q0 236 213 436q229 217 548 217q63 0 86 -53q10 -31 11 -123q0 -70 -54 -69q-12 0 -25.5 16t-13.5 31q0 49 -4 69q-8 25 -41 25q-240 0 -428 -152q-199 -162 -198 -397q0 -238 237 -237q96 0 242 96q166 111 264 278 q14 27 43 25q49 0 49 -49q0 -13 -8 -27q-117 -195 -309 -313q-166 -104 -281 -105q-332 0 -331 332z" />
<glyph unicode="&#xaa;" horiz-adv-x="649" d="M96 410v51h525v-51h-525zM102 627q0 125 148 278q139 145 225 146q49 0 49 -86q0 -39 -18 -93l47 15q-39 -154 -39 -207q0 -106 74 -107q18 0 35 9l8 -9q-94 -55 -142 -55q-76 0 -79 121q0 6 1 15.5t2 23.5t1 24l-31 -26q-135 -117 -215 -117q-66 0 -66 68zM207 688 q0 -59 49 -59q88 0 209 202q6 145 -76 146l-4 -2q-4 0 -12.5 -1t-18.5 -1q-63 -66 -105 -148t-42 -137z" />
<glyph unicode="&#xab;" horiz-adv-x="874" d="M86 459v10q168 141 332 305h12l27 -31q-47 -55 -213 -190l-27 -23q135 -168 195 -331l-129 -72h-25q-45 168 -172 332zM457 453v18q190 154 331 309h9l22 -30q-67 -82 -227 -209q123 -141 201 -334l-136 -80h-16q-76 205 -184 326z" />
<glyph unicode="&#xac;" horiz-adv-x="1228" d="M109 678v102h1011v-559h-98v457h-913z" />
<glyph unicode="&#xad;" horiz-adv-x="600" d="M100 365q0 37 45 45l107 10q115 6 199 10q2 0 22.5 3t36.5 5q33 6 33 -8q0 -18 -25.5 -36.5t-52.5 -22.5q-156 -4 -238 -11q-8 0 -37.5 -3t-50.5 -5q-39 -2 -39 13z" />
<glyph unicode="&#xae;" horiz-adv-x="1572" d="M10 465q0 334 244 637q264 328 625 328q268 0 475 -201q205 -199 205 -469q0 -397 -291 -682q-272 -264 -611 -264q-279 0 -462 186q-184 188 -185 465zM78 463q0 -246 164 -416q166 -166 413 -166q344 0 592 273q244 266 244 610q0 242 -184 420q-180 180 -426 180 q-330 0 -576 -305q-227 -283 -227 -596zM256 870q0 45 119 103q33 16 125 59q0 8 2 25.5t3 36t3 36.5q43 -6 55 -12q18 -10 29 -47q295 49 391 49q104 0 193 -51q104 -62 104 -160q0 -53 -86 -143q-74 -74 -137 -109q-227 -125 -375 -161q8 -37 59 -117q47 -74 82 -109 q2 -2 88 -94q59 -53 111 -53q8 0 29.5 6t25.5 6q12 0 13 -12q-20 -16 -72 -43q-51 0 -98 31q-123 82 -297 295q-14 16 -33 47q-8 12 -19 12q-27 0 -28 -68v-92q0 -18 -2 -33q-10 -117 16 -247q-10 -23 -27 -23q-27 0 -45 35q-14 27 -14 57q-2 94 8 352q12 244 13 353 q0 20 6 87.5t6 82.5q-29 -6 -119 -47q-94 -45 -94 -62l4 -4q4 -6 8 -10q-14 -10 -24 -10q-23 0 -23 34zM557 530q41 6 164 41q129 41 194 74q90 45 166 121q95 94 95 176q0 123 -189 123q-166 0 -393 -72q-4 -51 -27 -311q-10 -113 -10 -152z" />
<glyph unicode="&#xaf;" horiz-adv-x="233" d="M-80 938l2 -2q0 4 9.5 26.5t11.5 32.5q-4 8 6 19l6 6l4 2h111q16 -10 30 -10q10 16 25 16l12 -22l19 22q20 0 32 -14q16 16 39 16h21q10 -2 22 -2q6 -8 17 -8q12 0 18 10q6 0 10 -4v-10l-51 -60v-20h-20l-25 2l-2 4q-8 12 -22 4q-2 0 -14.5 -3t-20.5 -5l-2 2 q-10 23 -29 6q-4 -4 -14 -4q-12 0 -21 2l-16 12l-17 -14q-14 0 -141 -4z" />
<glyph unicode="&#xb0;" horiz-adv-x="817" d="M182 1081q0 129 88 217q90 90 213 90.5t213 -90.5q88 -88 88 -217t-88 -217q-90 -90 -213 -90t-213 90q-88 88 -88 217zM256 1081q0 -94 66 -163q66 -66 159 -66q96 0 163 66.5t67 163t-68 164t-162 67.5q-92 0 -159 -68q-66 -70 -66 -164z" />
<glyph unicode="&#xb1;" horiz-adv-x="1366" d="M147 -51h1072v-99h-1072v99zM147 662v98h486v491h98v-491h488v-98h-488v-488h-98v488h-486z" />
<glyph unicode="&#xb2;" horiz-adv-x="618" d="M96 602q55 55 187 164q203 164 213 256q-4 84 -105 84q-88 0 -170 -68q-14 -10 -20 -10h-8q0 23 83 94q102 88 218 88q61 0 102 -30.5t41 -75.5q0 -94 -215 -248q-86 -63 -184 -149q143 29 208 28q49 0 162 -14l8 -10l-110 -95q-172 29 -242 29q-88 0 -160 -51z" />
<glyph unicode="&#xb3;" horiz-adv-x="618" d="M129 563q43 37 78 60q33 -33 76 -33q57 0 116 53q61 55 62 111q0 49 -42 78.5t-108 29.5q-37 0 -102 -16l-4 4q45 37 71 68q109 -4 164 49q41 37 41 88q0 43 -31.5 71.5t-78.5 28.5t-123 -53l-4 4q100 111 213 111q57 0 96 -31t39 -74q0 -88 -205 -194q68 6 70 6 q119 0 118 -95q0 -127 -206 -223q-63 -70 -168 -76h-25q-45 0 -47 33z" />
<glyph unicode="&#xb4;" d="M248 1094q0 14 51 63q25 25 49 47q25 39 70 31q41 -8 41 -43q0 -31 -58 -64q-2 -2 -7 -4t-14 -7t-15 -9l-95 -55l-10 16q-12 16 -12 25z" />
<glyph unicode="&#xb6;" horiz-adv-x="1124" d="M131 922q0 18 4 55q25 178 156 277.5t342 99.5h487l-6 -45h-133l-246 -1751h-61l246 1751h-197l-246 -1751h-63l147 1046q-139 10 -201 27q-117 29 -167 92q-61 80 -62 199z" />
<glyph unicode="&#xb7;" horiz-adv-x="503" d="M188 471v33q12 0 13 8q0 4 -6.5 9t-6.5 7q0 35 9 70q23 10 28 4q4 -4 8.5 -4t8.5 4q14 0 37 -16q16 0 36 -13l-12 -90q0 -8 8 -16l-12 -21q-25 1 -29 5l-49 4l-8 8l-10 2q-10 2 -15 6z" />
<glyph unicode="&#xb8;" horiz-adv-x="327" d="M45 -233q12 4 33.5 10t32.5 8q51 14 47 49q-2 8 -6.5 14.5t-9.5 10.5t-15 7t-16.5 4t-20.5 3t-18 2q-6 6 -9 12q-2 8 3 21q2 4 102 147l63 -4q-78 -88 -77 -108q0 -9 6 -11q61 -33 69 -94q8 -51 -59 -82q-106 -49 -109 -51q0 -2 -4 -2q-8 0 -12 29q-2 27 0 35z" />
<glyph unicode="&#xb9;" horiz-adv-x="618" d="M205 995l33 23q78 51 272 190l14 -14q-79 -307 -110 -559q-106 -49 -138 -82l-8 4l129 543l-180 -121z" />
<glyph unicode="&#xba;" horiz-adv-x="655" d="M131 670q0 86 76 186l-2 31q158 96 260 96q113 0 113 -119q0 -106 -111 -207q-108 -100 -223 -100q-113 0 -113 113zM143 410v41h412v-41h-412zM219 737q0 -55 34 -92t87 -37q23 0 53 10q94 100 94 187q0 53 -32 92q-44 53 -136 41q-100 -109 -100 -201z" />
<glyph unicode="&#xbb;" horiz-adv-x="874" d="M82 156q111 117 192 178l37 28q-86 98 -192 314l-10 20l141 82h14q76 -209 185 -325v-19q-191 -139 -334 -307h-9zM449 164q68 72 182 164l53 45l-37 51q-98 137 -153 283l129 69h24q43 -168 174 -330v-14q-152 -115 -336 -299h-12z" />
<glyph unicode="&#xbc;" horiz-adv-x="1003" d="M90 6l821 930l29 -23l-823 -929zM225 815q145 76 232 137l10 -6q-57 -205 -88 -373q-82 -41 -109 -59l97 356l-136 -73zM442 123q45 66 310 276l26 21l6 -2l-51 -256h127l-63 -49h-74l-18 -97q-37 -14 -89 -43l35 140h-205zM526 172l15 -14h125l36 180 q-145 -123 -176 -166z" />
<glyph unicode="&#xbd;" horiz-adv-x="1003" d="M88 6l827 926l27 -25l-829 -923zM213 803l76 45q57 33 170 104l8 -6q-55 -207 -82 -373l-113 -73h-2l86 362l-135 -74zM440 0l33 25q31 23 88 64.5t70 49.5q129 98 129 135q0 51 -92 52q-63 0 -125 -31l-4 4q113 98 194 98q53 0 88 -22.5t35 -57.5q0 -59 -170 -170 q-51 -31 -147 -100q117 33 204 33q2 0 12.5 -1t33 -2t47.5 -1l4 -8l-64 -68q-66 14 -139 14q-78 0 -191 -22z" />
<glyph unicode="&#xbe;" horiz-adv-x="1003" d="M82 8l827 930l29 -25l-827 -929zM160 557q29 29 57 39q45 -18 80 -18q86 0 86 65q0 70 -104 74q-6 0 -26 -3t-34 -5l-4 8l53 43q141 14 142 86q0 45 -60 45q-49 0 -117 -27l-8 10l88 66q51 12 80 12q109 0 109 -59q0 -49 -158 -133q117 -18 117 -71.5t-80 -102.5 q-76 -49 -164 -49q-43 0 -57 20zM418 100q14 18 49 54q111 100 301 249l10 -6l-59 -258h131l-70 -47h-71l-17 -94q-37 -12 -86 -45l-4 2l33 135h-213zM506 158l8 -21h133l41 176q-4 -2 -18.5 -14.5t-26.5 -22.5q-113 -92 -137 -118z" />
<glyph unicode="&#xbf;" horiz-adv-x="800" d="M-72 248q0 115 47 205q33 63 136 184q152 176 231 289l37 129q0 16 -12.5 39.5t-12.5 25.5q0 18 27 19q45 0 45 -115q0 -117 -113 -268q-18 -25 -207 -275q-111 -158 -110 -295q0 -145 133 -145q137 0 334 240q96 119 127 174q55 94 55 192q0 25 -2 39q29 6 42 -11.5 t13 -58.5q0 -113 -86 -260q-76 -125 -172 -219q-166 -160 -305 -160q-102 0 -158 86q-49 76 -49 185zM313 1303q0 33 21.5 61.5t50.5 28.5q55 0 55 -62q0 -29 -16 -54.5t-39 -25.5q-72 1 -72 52z" />
<glyph unicode="&#xc0;" horiz-adv-x="1384" d="M-53 96q10 14 16 17q6 4 17 0q10 -2 20 -2q0 -61 100 -62q154 0 265 117q63 70 159 256q-41 4 -55 4q-10 0 -38 -5t-36 -5q-49 0 -49 28q0 14 221 39q102 168 236 510q119 301 119 363q0 4 -4.5 15t-4.5 15q0 27 64 27q20 0 78 -35q57 -33 57 -53q0 -10 -4 -47t-4 -49 q0 -279 86 -688q70 -332 125 -475q4 -14 15 -25.5t21.5 -19t12.5 -9.5q0 -20 -37 -20q-25 0 -72 10q-74 96 -155 461q-86 -12 -242 -19q-180 -6 -240 -14q-74 -125 -172 -285q-129 -197 -260 -196q-170 0 -239 147zM651 498l436 10q1 12 -26 170q-57 356 -68 461l-4 57 q-10 37 -24 49q-33 -61 -144 -356q-100 -268 -170 -391zM776 1716q0 33 41 43q45 8 70 -30q23 -23 49 -48q51 -49 51 -63q0 -9 -10 -29l-12 -12l-95 55l-36 21q-57 33 -58 63z" />
<glyph unicode="&#xc1;" horiz-adv-x="1384" d="M-53 96q10 14 16 17q6 4 17 0q10 -2 20 -2q0 -61 100 -62q154 0 265 117q63 70 159 256q-41 4 -55 4q-10 0 -38 -5t-36 -5q-49 0 -49 28q0 14 221 39q102 168 236 510q119 301 119 363q0 4 -4.5 15t-4.5 15q0 27 64 27q20 0 78 -35q57 -33 57 -53q0 -10 -4 -47t-4 -49 q0 -279 86 -688q70 -332 125 -475q4 -14 15 -25.5t21.5 -19t12.5 -9.5q0 -20 -37 -20q-25 0 -72 10q-74 96 -155 461q-86 -12 -242 -19q-180 -6 -240 -14q-74 -125 -172 -285q-129 -197 -260 -196q-170 0 -239 147zM651 498l436 10q1 12 -26 170q-57 356 -68 461l-4 57 q-10 37 -24 49q-33 -61 -144 -356q-100 -268 -170 -391zM995 1618q0 14 52 63q25 25 49 48q25 39 69 30q41 -8 41 -43q0 -31 -57 -63l-37 -21l-94 -55l-10 16q-12 16 -13 25z" />
<glyph unicode="&#xc2;" horiz-adv-x="1384" d="M-53 96q10 14 16 17q6 4 17 0q10 -2 20 -2q0 -61 100 -62q154 0 265 117q63 70 159 256q-41 4 -55 4q-10 0 -38 -5t-36 -5q-49 0 -49 28q0 14 221 39q102 168 236 510q119 301 119 363q0 4 -4.5 15t-4.5 15q0 27 64 27q20 0 78 -35q57 -33 57 -53q0 -10 -4 -47t-4 -49 q0 -279 86 -688q70 -332 125 -475q4 -14 15 -25.5t21.5 -19t12.5 -9.5q0 -20 -37 -20q-25 0 -72 10q-74 96 -155 461q-86 -12 -242 -19q-180 -6 -240 -14q-74 -125 -172 -285q-129 -197 -260 -196q-170 0 -239 147zM651 498l436 10q1 12 -26 170q-57 356 -68 461l-4 57 q-10 37 -24 49q-33 -61 -144 -356q-100 -268 -170 -391zM897 1640q6 29 66 84q57 55 84 56q8 2 23 -16.5t42 -57.5q51 -76 55 -111q2 -8 -10 -18q-10 0 -33 31q-31 53 -34 61q-20 33 -49 33t-62 -33q-59 -59 -72 -53q-14 6 -10 24z" />
<glyph unicode="&#xc3;" horiz-adv-x="1384" d="M-53 96q10 14 16 17q6 4 17 0q10 -2 20 -2q0 -61 100 -62q154 0 265 117q63 70 159 256q-41 4 -55 4q-10 0 -38 -5t-36 -5q-49 0 -49 28q0 14 221 39q102 168 236 510q119 301 119 363q0 4 -4.5 15t-4.5 15q0 27 64 27q20 0 78 -35q57 -33 57 -53q0 -10 -4 -47t-4 -49 q0 -279 86 -688q70 -332 125 -475q4 -14 15 -25.5t21.5 -19t12.5 -9.5q0 -20 -37 -20q-25 0 -72 10q-74 96 -155 461q-86 -12 -242 -19q-180 -6 -240 -14q-74 -125 -172 -285q-129 -197 -260 -196q-170 0 -239 147zM651 498l436 10q1 12 -26 170q-57 356 -68 461l-4 57 q-10 37 -24 49q-33 -61 -144 -356q-100 -268 -170 -391zM877 1679q0 80 53 93q35 8 106 -54q2 -2 16.5 -18.5t20.5 -22.5t18.5 -15t24.5 -11q4 -2 12 -2q23 0 70 77l8 11q8 -6 8 -33q0 -51 -27.5 -91t-56.5 -40q-6 0 -14 4q-41 27 -94 82q-39 55 -78 55q-27 0 -39 -41 q-8 -31 -18 -31t-10 37z" />
<glyph unicode="&#xc4;" horiz-adv-x="1384" d="M-53 96q10 14 16 17q6 4 17 0q10 -2 20 -2q0 -61 100 -62q154 0 265 117q63 70 159 256q-41 4 -55 4q-10 0 -38 -5t-36 -5q-49 0 -49 28q0 14 221 39q102 168 236 510q119 301 119 363q0 4 -4.5 15t-4.5 15q0 27 64 27q20 0 78 -35q57 -33 57 -53q0 -10 -4 -47t-4 -49 q0 -279 86 -688q70 -332 125 -475q4 -14 15 -25.5t21.5 -19t12.5 -9.5q0 -20 -37 -20q-25 0 -72 10q-74 96 -155 461q-86 -12 -242 -19q-180 -6 -240 -14q-74 -125 -172 -285q-129 -197 -260 -196q-170 0 -239 147zM651 498l436 10q1 12 -26 170q-57 356 -68 461l-4 57 q-10 37 -24 49q-33 -61 -144 -356q-100 -268 -170 -391zM870 1661q0 20 21.5 42.5t42.5 22.5q70 0 70 -75.5t-52 -75.5q-33 0 -57.5 26.5t-24.5 59.5zM1028 1663q0 20 21.5 43t42.5 23q69 0 69 -76t-51 -76q-33 0 -57.5 26.5t-24.5 59.5z" />
<glyph unicode="&#xc5;" horiz-adv-x="1384" d="M-53 96q10 14 16 17q6 4 17 0q10 -2 20 -2q0 -61 100 -62q154 0 265 117q63 70 159 256q-41 4 -55 4q-10 0 -38 -5t-36 -5q-49 0 -49 28q0 14 221 39q102 168 236 510q119 301 119 363q0 4 -4.5 15t-4.5 15q0 27 64 27q20 0 78 -35q57 -33 57 -53q0 -10 -4 -47t-4 -49 q0 -279 86 -688q70 -332 125 -475q4 -14 15 -25.5t21.5 -19t12.5 -9.5q0 -20 -37 -20q-25 0 -72 10q-74 96 -155 461q-86 -12 -242 -19q-180 -6 -240 -14q-74 -125 -172 -285q-129 -197 -260 -196q-170 0 -239 147zM651 498l436 10q1 12 -26 170q-57 356 -68 461l-4 57 q-10 37 -24 49q-33 -61 -144 -356q-100 -268 -170 -391zM971 1651q-12 66 41 149q55 82 121 82q68 0 84 -74q10 -70 -48 -149q-55 -82 -116 -82q-70 0 -82 74zM1024 1673q6 -35 35 -35q39 0 71 52q35 53 29 90t-43 37q-33 0 -67 -54q-31 -53 -25 -90z" />
<glyph unicode="&#xc6;" horiz-adv-x="2344" d="M-53 96q10 14 16 17q6 4 17 0q10 -2 20 -2q0 -61 100 -62q154 0 265 117q63 70 159 256q-41 4 -55 4q-10 0 -38 -5t-36 -5q-49 0 -49 28q0 14 221 39q102 168 236 510q119 301 119 363q0 4 -4.5 15t-4.5 15q0 27 64 27q20 0 78 -35q57 -33 57 -53q0 -10 -4 -47t-4 -49 q0 -276 82 -672q76 106 295 219q-100 35 -150 78q-59 55 -59 150q0 207 315 311q223 74 481 74q94 0 132 -15q72 -23 71 -94q0 -61 -24 -61q-23 23 -70 57q-35 18 -98 18q-223 0 -441 -61q-309 -88 -309 -254q0 -70 105 -111q74 -27 163 -26q29 0 191 12q156 10 176 8 q27 -18 25 -61q-4 -43 -33 -53q-47 29 -72 28q-180 0 -383 -82q-236 -96 -295 -233q35 -154 68 -273q152 -123 469 -122q78 0 199 20q139 20 190 49q135 70 135 86q0 4 -6 4v39q72 0 72 -43q0 -104 -254 -184q-203 -63 -344 -64q-254 0 -422 101l2 -8q4 -14 15 -25.5 t21.5 -19t12.5 -9.5q0 -20 -37 -20q-25 0 -72 10q-45 61 -96 229q-20 43 -26 97q-27 111 -33 135q-86 -12 -242 -19q-180 -6 -240 -14q-74 -125 -172 -285q-129 -197 -260 -196q-170 0 -239 147zM651 498l436 10q1 12 -26 170q-57 356 -68 461l-4 57q-10 37 -24 49 q-33 -61 -144 -356q-100 -268 -170 -391z" />
<glyph unicode="&#xc7;" horiz-adv-x="874" d="M0 436q0 225 88 502q106 338 264 440q39 27 119 27q113 0 219 -64q68 -39 90 -81q31 -55 31 -175q0 -70 -25 -202q-31 -164 -69 -164q-27 0 -43 41q-14 31 -15 61q0 55 35 189q35 135 35 196q0 68 -86 109q-70 35 -143 35q-152 0 -279 -344q-117 -317 -117 -623 q0 -344 254 -344q227 0 439 162l32 59q29 -4 29 -24q0 -10 -18 -56q-72 -90 -197 -145q-129 -57 -244 -60q-55 -61 -55 -84q0 -6 6 -10q61 -33 70 -94q8 -51 -60 -82q-106 -49 -108 -51q0 -2 -4 -2q-8 0 -12 29q-2 27 0 34q12 2 32.5 8.5t32.5 10.5q51 14 47 49q-2 8 -6 14 t-9 10.5t-15.5 7.5t-16.5 4t-20.5 3t-18.5 2q-6 6 -8 12q-2 8 2 21q23 29 84 120q-174 16 -262 154q-78 125 -78 305z" />
<glyph unicode="&#xc8;" horiz-adv-x="1220" d="M0 369q0 143 113 249q78 74 237 156q-100 35 -149 78q-59 55 -60 149q0 207 316 312q223 74 481 73q94 0 131 -14q72 -23 72 -94q0 -61 -25 -61q-23 25 -69 57q-35 18 -99 18q-223 0 -440 -61q-309 -88 -309 -254q0 -72 104 -111q74 -27 164 -26q29 0 190 12 q156 10 177 8q27 -18 24 -61q-4 -43 -33 -54q-47 29 -71 29q-178 0 -400 -90q-297 -123 -297 -324q0 -164 209 -241q152 -55 346 -56q78 0 199 21q139 23 190 49q135 72 136 86q0 4 -7 4v39q72 0 72 -43q0 -104 -254 -184q-203 -63 -344 -64q-225 0 -393 84 q-211 106 -211 314zM535 1716q0 33 40 43q45 8 70 -30q23 -23 49 -48q51 -49 51 -63q0 -9 -10 -29l-12 -12l-94 55q-2 0 -7.5 3t-14.5 8.5t-15 9.5q-57 33 -57 63z" />
<glyph unicode="&#xc9;" horiz-adv-x="1220" d="M0 369q0 143 113 249q78 74 237 156q-100 35 -149 78q-59 55 -60 149q0 207 316 312q223 74 481 73q94 0 131 -14q72 -23 72 -94q0 -61 -25 -61q-23 25 -69 57q-35 18 -99 18q-223 0 -440 -61q-309 -88 -309 -254q0 -72 104 -111q74 -27 164 -26q29 0 190 12 q156 10 177 8q27 -18 24 -61q-4 -43 -33 -54q-47 29 -71 29q-178 0 -400 -90q-297 -123 -297 -324q0 -164 209 -241q152 -55 346 -56q78 0 199 21q139 23 190 49q135 72 136 86q0 4 -7 4v39q72 0 72 -43q0 -104 -254 -184q-203 -63 -344 -64q-225 0 -393 84 q-211 106 -211 314zM719 1618q0 14 51 63q25 25 49 48q25 39 70 30q41 -8 41 -43q0 -31 -58 -63q-2 -2 -7 -4t-14 -7.5t-15 -9.5l-95 -55l-10 16q-12 16 -12 25z" />
<glyph unicode="&#xca;" horiz-adv-x="1220" d="M0 369q0 143 113 249q78 74 237 156q-100 35 -149 78q-59 55 -60 149q0 207 316 312q223 74 481 73q94 0 131 -14q72 -23 72 -94q0 -61 -25 -61q-23 25 -69 57q-35 18 -99 18q-223 0 -440 -61q-309 -88 -309 -254q0 -72 104 -111q74 -27 164 -26q29 0 190 12 q156 10 177 8q27 -18 24 -61q-4 -43 -33 -54q-47 29 -71 29q-178 0 -400 -90q-297 -123 -297 -324q0 -164 209 -241q152 -55 346 -56q78 0 199 21q139 23 190 49q135 72 136 86q0 4 -7 4v39q72 0 72 -43q0 -104 -254 -184q-203 -63 -344 -64q-225 0 -393 84 q-211 106 -211 314zM668 1640q6 29 65 84q57 55 84 56q8 2 23.5 -16.5t42.5 -57.5q51 -76 55 -111q2 -8 -10 -18q-12 0 -33 31q-31 53 -35 61q-20 33 -49 33t-61 -33q-59 -59 -72 -53q-14 6 -10 24z" />
<glyph unicode="&#xcb;" horiz-adv-x="1220" d="M0 369q0 143 113 249q78 74 237 156q-100 35 -149 78q-59 55 -60 149q0 207 316 312q223 74 481 73q94 0 131 -14q72 -23 72 -94q0 -61 -25 -61q-23 25 -69 57q-35 18 -99 18q-223 0 -440 -61q-309 -88 -309 -254q0 -72 104 -111q74 -27 164 -26q29 0 190 12 q156 10 177 8q27 -18 24 -61q-4 -43 -33 -54q-47 29 -71 29q-178 0 -400 -90q-297 -123 -297 -324q0 -164 209 -241q152 -55 346 -56q78 0 199 21q139 23 190 49q135 72 136 86q0 4 -7 4v39q72 0 72 -43q0 -104 -254 -184q-203 -63 -344 -64q-225 0 -393 84 q-211 106 -211 314zM602 1661q0 20 21.5 42.5t42.5 22.5q69 0 69 -75.5t-51 -75.5q-33 0 -57.5 26.5t-24.5 59.5zM760 1663q0 20 21.5 43t41.5 23q70 0 70 -76t-51 -76q-33 0 -57.5 26.5t-24.5 59.5z" />
<glyph unicode="&#xcc;" horiz-adv-x="616" d="M-53 -8q0 18 108 31l146 16q0 14 -6.5 69.5t-6.5 71.5q0 12 23 570q18 455 12 479q-125 0 -217 6q37 31 84 55q346 37 377 37q47 0 84 -2q39 -2 86 -2q19 0 29 -18q-68 -31 -88 -35l-205 -35q-45 -143 -72 -473q-25 -295 -25 -541q0 -139 11 -170l80 4q158 6 157 -22 q-18 -20 -100 -39q-119 -29 -283 -29q-193 0 -194 27zM45 1716q0 33 41 43q45 8 70 -30q23 -23 49 -48q51 -49 51 -63q0 -9 -10 -29l-13 -12l-94 55l-37 21q-57 33 -57 63z" />
<glyph unicode="&#xcd;" horiz-adv-x="616" d="M-53 -8q0 18 108 31l146 16q0 14 -6.5 69.5t-6.5 71.5q0 12 23 570q18 455 12 479q-125 0 -217 6q37 31 84 55q346 37 377 37q47 0 84 -2q39 -2 86 -2q19 0 29 -18q-68 -31 -88 -35l-205 -35q-45 -143 -72 -473q-25 -295 -25 -541q0 -139 11 -170l80 4q158 6 157 -22 q-18 -20 -100 -39q-119 -29 -283 -29q-193 0 -194 27zM342 1618q0 14 51 63q25 25 49 48q25 39 70 30q41 -8 41 -43q0 -31 -57 -63q-2 -2 -7.5 -4t-14.5 -7.5t-15 -9.5l-94 -55l-11 16q-12 16 -12 25z" />
<glyph unicode="&#xce;" horiz-adv-x="616" d="M-53 -8q0 18 108 31l146 16q0 14 -6.5 69.5t-6.5 71.5q0 12 23 570q18 455 12 479q-125 0 -217 6q37 31 84 55q346 37 377 37q47 0 84 -2q39 -2 86 -2q19 0 29 -18q-68 -31 -88 -35l-205 -35q-45 -143 -72 -473q-25 -295 -25 -541q0 -139 11 -170l80 4q158 6 157 -22 q-18 -20 -100 -39q-119 -29 -283 -29q-193 0 -194 27zM207 1640q6 29 65.5 84.5t83.5 55.5q8 2 23.5 -16.5t42.5 -57.5q53 -76 55 -111q2 -8 -10 -18q-12 0 -33 31q-31 53 -35 61q-20 33 -48.5 33t-61.5 -33q-59 -59 -72 -53q-14 6 -10 24z" />
<glyph unicode="&#xcf;" horiz-adv-x="616" d="M-53 -8q0 18 108 31l146 16q0 14 -6.5 69.5t-6.5 71.5q0 12 23 570q18 455 12 479q-125 0 -217 6q37 31 84 55q346 37 377 37q47 0 84 -2q39 -2 86 -2q19 0 29 -18q-68 -31 -88 -35l-205 -35q-45 -143 -72 -473q-25 -295 -25 -541q0 -139 11 -170l80 4q158 6 157 -22 q-18 -20 -100 -39q-119 -29 -283 -29q-193 0 -194 27zM186 1661q0 20 21.5 42.5t42.5 22.5q69 0 69 -75.5t-51 -75.5q-33 0 -57.5 26.5t-24.5 59.5zM344 1663q0 20 21.5 43t42.5 23q69 0 69 -76t-51 -76q-33 0 -57.5 26.5t-24.5 59.5z" />
<glyph unicode="&#xd0;" horiz-adv-x="411" d="M-6 35q-6 20 0 78q4 37 6 84l43 479q31 274 84 475q68 244 168 244q57 -2 91 -58.5t28 -119.5q0 -195 -162 -455q-45 -70 -45 -117q0 -10 4 -27q8 -41 65 -141q20 12 60 19q41 8 55 0q23 -10 29 -31q2 -2 -2 -4t-12 -4l-35 2q-18 2 -27 -2q-12 -10 -29 -47 q53 -82 68 -154q23 -94 4 -156q-12 -43 -43 -84q-37 -43 -74 -43q-35 0 -68.5 39t-43.5 88q-8 25 -8 62q0 129 96 274q-29 55 -60 107q-37 72 -36 112q0 53 75 172q129 203 129 377q0 23 -4 43q-14 45 -51 45t-80 -100q-37 -86 -47 -143q-90 -459 -117 -959q-2 -88 -26 -88 q-29 0 -35 33zM195 176q0 -14 4 -35q29 -121 75 -121q66 0 66 142q0 35 -6 63q-9 44 -60 148q-80 -82 -79 -197z" />
<glyph unicode="&#xd1;" horiz-adv-x="1093" d="M-100 16q0 33 26 33q12 0 21 -8q-8 -8 -8 -14q0 -25 55 -25q238 0 352 756q61 406 62 577q0 27 -2 33q33 51 79 51q106 0 107 -73q0 -506 86 -889q80 -356 162 -357q37 0 39 111l12 276q14 160 49 539q35 303 111 404q41 -6 41 -31q0 -8 -7.5 -26.5t-16.5 -39t-11 -26.5 q-45 -176 -82 -576q-35 -387 -35 -627q0 -8 5 -34.5t5 -32.5q0 -47 -92 -47q-84 0 -129 76q-16 20 -67 184q-104 305 -195 897q-31 -117 -84 -516q-45 -328 -104 -475q-84 -207 -246 -207q-133 0 -133 67zM606 1679q0 80 53 93q35 8 107 -54q2 -2 16.5 -18.5t20.5 -22.5 t18.5 -15t24.5 -11q4 -2 12 -2q23 0 70 77l8 11q8 -6 8 -33q0 -51 -27.5 -91t-56.5 -40q-6 0 -14 4q-41 27 -94 82q-41 55 -78 55q-27 0 -39 -41q-8 -31 -19 -31q-10 0 -10 37z" />
<glyph unicode="&#xd2;" horiz-adv-x="892" d="M0 483q0 201 47 412q55 242 156 381q45 66 67 96q49 61 92 62q10 0 48 -17q16 10 26 10q408 -26 408 -563q0 -324 -76 -551q-115 -342 -369 -342q-195 0 -303 164q-96 145 -96 348zM109 487q0 -453 276 -452q383 -1 383 839q0 184 -53 314q-74 176 -236 176 q-158 0 -274 -352q-96 -293 -96 -525zM219 1716q0 33 41 43q45 8 70 -30q23 -23 49 -48q51 -49 51 -63q0 -9 -10 -29l-12 -12l-95 55l-37 21q-57 33 -57 63z" />
<glyph unicode="&#xd3;" horiz-adv-x="892" d="M0 483q0 201 47 412q55 242 156 381q45 66 67 96q49 61 92 62q10 0 48 -17q16 10 26 10q408 -26 408 -563q0 -324 -76 -551q-115 -342 -369 -342q-195 0 -303 164q-96 145 -96 348zM109 487q0 -453 276 -452q383 -1 383 839q0 184 -53 314q-74 176 -236 176 q-158 0 -274 -352q-96 -293 -96 -525zM543 1618q0 14 51 63q25 25 49 48q25 39 70 30q41 -8 41 -43q0 -31 -58 -63q-2 -2 -7 -4t-14 -7.5t-16 -9.5l-94 -55l-10 16q-12 16 -12 25z" />
<glyph unicode="&#xd4;" horiz-adv-x="892" d="M0 483q0 201 47 412q55 242 156 381q45 66 67 96q49 61 92 62q10 0 48 -17q16 10 26 10q408 -26 408 -563q0 -324 -76 -551q-115 -342 -369 -342q-195 0 -303 164q-96 145 -96 348zM109 487q0 -453 276 -452q383 -1 383 839q0 184 -53 314q-74 176 -236 176 q-158 0 -274 -352q-96 -293 -96 -525zM414 1640q6 29 65 84q57 55 84 56q8 2 23.5 -16.5t42.5 -57.5q51 -76 55 -111q2 -8 -10 -18q-10 0 -33 31q-31 53 -35 61q-20 33 -49 33t-61 -33q-59 -59 -72 -53q-14 6 -10 24z" />
<glyph unicode="&#xd5;" horiz-adv-x="892" d="M0 483q0 201 47 412q55 242 156 381q45 66 67 96q49 61 92 62q10 0 48 -17q16 10 26 10q408 -26 408 -563q0 -324 -76 -551q-115 -342 -369 -342q-195 0 -303 164q-96 145 -96 348zM109 487q0 -453 276 -452q383 -1 383 839q0 184 -53 314q-74 176 -236 176 q-158 0 -274 -352q-96 -293 -96 -525zM354 1679q0 80 54 93q35 8 106 -54q2 -2 16.5 -18.5t20.5 -22.5t18.5 -15t24.5 -11q4 -2 12 -2q23 0 70 77l8 11q8 -6 8 -33q0 -51 -27.5 -91t-56.5 -40q-6 0 -14 4q-41 27 -94 82q-39 55 -78 55q-27 0 -39 -41q-10 -31 -18 -31 q-10 0 -11 37z" />
<glyph unicode="&#xd6;" horiz-adv-x="892" d="M0 483q0 201 47 412q55 242 156 381q45 66 67 96q49 61 92 62q10 0 48 -17q16 10 26 10q408 -26 408 -563q0 -324 -76 -551q-115 -342 -369 -342q-195 0 -303 164q-96 145 -96 348zM109 487q0 -453 276 -452q383 -1 383 839q0 184 -53 314q-74 176 -236 176 q-158 0 -274 -352q-96 -293 -96 -525zM412 1661q0 20 21.5 42.5t41.5 22.5q70 0 70 -75.5t-51 -75.5q-33 0 -57.5 26.5t-24.5 59.5zM569 1663q0 20 21.5 43t42.5 23q69 0 69 -76t-51 -76q-33 0 -57.5 26.5t-24.5 59.5z" />
<glyph unicode="&#xd7;" horiz-adv-x="1228" d="M154 119l391 399l-391 400l69 71l389 -401l394 401l69 -71l-393 -400l393 -399l-69 -72l-394 402l-389 -402z" />
<glyph unicode="&#xd8;" horiz-adv-x="1042" d="M-37 344l143 107v34q0 201 48 412q55 242 155 381q45 66 68 96q49 61 92 62q10 0 47 -17q16 10 27 11q330 -23 393 -377l147 106l31 -41l-170 -123q6 -61 6 -129q0 -324 -76 -551q-115 -342 -368 -342q-168 0 -277 127q-94 113 -116 289l-121 -88zM215 465 q10 -428 277 -428q383 0 382 840q0 45 -2 65zM215 528l653 476q-14 141 -75 241q-78 121 -207 121q-158 0 -275 -352q-86 -259 -96 -486z" />
<glyph unicode="&#xd9;" horiz-adv-x="1110" d="M-35 926q12 -2 37 -2q248 0 442 430q106 -33 107 -66q0 -14 -35 -55q-35 -43 -41 -55q-154 -367 -153 -719q0 -178 28 -275q53 -158 193 -157q115 0 213 188q61 115 108 287q78 295 78 561q0 96 -8 135q-6 23 -6 37q12 23 39 22q37 1 127 -67q-18 -31 -39 -98 q-20 -74 -25 -109l-65 -639v-207q6 -186 45 -217q-14 -10 -43 -10q-66 0 -78 160q-4 88 -12 262q-92 -186 -123 -232q-92 -129 -211 -129q-319 0 -320 506q0 190 80 512q-150 -115 -231 -115q-55 0 -107 52zM535 1716q0 33 40 43q45 8 70 -30q23 -23 49 -48q51 -49 51 -63 q0 -9 -10 -29l-12 -12l-94 55q-2 0 -7.5 3t-14.5 8.5t-15 9.5q-57 33 -57 63z" />
<glyph unicode="&#xda;" horiz-adv-x="1110" d="M-35 926q12 -2 37 -2q248 0 442 430q106 -33 107 -66q0 -14 -35 -55q-35 -43 -41 -55q-154 -367 -153 -719q0 -178 28 -275q53 -158 193 -157q115 0 213 188q61 115 108 287q78 295 78 561q0 96 -8 135q-6 23 -6 37q12 23 39 22q37 1 127 -67q-18 -31 -39 -98 q-20 -74 -25 -109l-65 -639v-207q6 -186 45 -217q-14 -10 -43 -10q-66 0 -78 160q-4 88 -12 262q-92 -186 -123 -232q-92 -129 -211 -129q-319 0 -320 506q0 190 80 512q-150 -115 -231 -115q-55 0 -107 52zM838 1618q0 14 51 63q25 25 49 48q25 39 70 30q41 -8 41 -43 q0 -31 -58 -63q-2 -2 -7 -4t-14 -7.5t-16 -9.5l-94 -55l-10 16q-12 16 -12 25z" />
<glyph unicode="&#xdb;" horiz-adv-x="1110" d="M-35 926q12 -2 37 -2q248 0 442 430q106 -33 107 -66q0 -14 -35 -55q-35 -43 -41 -55q-154 -367 -153 -719q0 -178 28 -275q53 -158 193 -157q115 0 213 188q61 115 108 287q78 295 78 561q0 96 -8 135q-6 23 -6 37q12 23 39 22q37 1 127 -67q-18 -31 -39 -98 q-20 -74 -25 -109l-65 -639v-207q6 -186 45 -217q-14 -10 -43 -10q-66 0 -78 160q-4 88 -12 262q-92 -186 -123 -232q-92 -129 -211 -129q-319 0 -320 506q0 190 80 512q-150 -115 -231 -115q-55 0 -107 52zM668 1640q6 29 65 84q57 55 84 56q8 2 23.5 -16.5t42.5 -57.5 q51 -76 55 -111q2 -8 -10 -18q-12 0 -33 31q-31 53 -35 61q-20 33 -49 33t-61 -33q-59 -59 -72 -53q-14 6 -10 24z" />
<glyph unicode="&#xdc;" horiz-adv-x="1110" d="M-35 926q12 -2 37 -2q248 0 442 430q106 -33 107 -66q0 -14 -35 -55q-35 -43 -41 -55q-154 -367 -153 -719q0 -178 28 -275q53 -158 193 -157q115 0 213 188q61 115 108 287q78 295 78 561q0 96 -8 135q-6 23 -6 37q12 23 39 22q37 1 127 -67q-18 -31 -39 -98 q-20 -74 -25 -109l-65 -639v-207q6 -186 45 -217q-14 -10 -43 -10q-66 0 -78 160q-4 88 -12 262q-92 -186 -123 -232q-92 -129 -211 -129q-319 0 -320 506q0 190 80 512q-150 -115 -231 -115q-55 0 -107 52zM662 1661q0 20 21.5 42.5t41.5 22.5q70 0 70 -75.5t-52 -75.5 q-33 0 -57 26.5t-24 59.5zM819 1663q0 20 21.5 43t42.5 23q69 0 69 -76t-51 -76q-33 0 -57.5 26.5t-24.5 59.5z" />
<glyph unicode="&#xdd;" horiz-adv-x="823" d="M-121 -348q0 37 53 37q18 0 137 -94.5t199 -94.5q358 0 359 596q0 123 -15 326q-70 -205 -104 -266q-90 -160 -211 -160q-154 0 -223 135q-55 109 -56 272q0 109 23 363q25 242 25 362q0 8 -2.5 39t-2.5 39q0 63 37 64q16 0 101 -70q0 -12 -11 -57q-4 -16 -16 -62 q-59 -367 -59 -673q0 -362 166 -363q115 0 215 203q90 178 118 399q37 311 58 670q2 39 57 37q68 -2 70 -51q-51 -209 -66 -308q-33 -211 -33 -530q0 -70 11 -264q12 -174 12 -262q0 -172 -100 -324q-115 -170 -277 -170q-82 0 -262 66q-203 76 -203 141zM440 1618 q0 14 52 63q25 25 49 48q25 39 69 30q41 -8 41 -43q0 -31 -57 -63q-2 -2 -7 -4t-14.5 -7.5t-15.5 -9.5l-94 -55l-10 16q-12 16 -13 25z" />
<glyph unicode="&#xde;" horiz-adv-x="337" d="M-113 -31q0 14 21 64q25 66 37 117q66 270 88 491q-2 45 10 127q10 18 43 18q61 0 61 -38q0 -6 -10 -50.5t-10 -58.5q0 -78 49 -238q51 -155 51 -233q0 -70 -28 -131q-37 -70 -105 -70q-51 0 -90 33q-41 35 -43 35q-6 0 -26.5 -39t-36.5 -39q-10 0 -11 12zM-27 125 q0 -27 31 -68t57 -41q95 0 95 160q0 66 -41 219q-25 84 -43 125q-35 -156 -99 -395z" />
<glyph unicode="&#xdf;" horiz-adv-x="411" d="M-76 -731l6 84q8 84 25.5 299t38.5 461q4 37 6 84l43 479q31 274 84 475q68 244 168 244q57 -2 91 -58.5t28 -119.5q0 -195 -162 -455q-45 -70 -45 -117q0 -10 4 -27q8 -41 65 -141q20 12 60 19q41 8 55 0q23 -10 29 -31q2 -2 -2 -4t-12 -4l-35 2q-18 2 -27 -2 q-12 -10 -29 -47q53 -82 68 -154q23 -94 4 -156q-12 -43 -43 -84q-37 -43 -74 -43q-35 0 -68.5 39t-43.5 88q-8 25 -8 62q0 129 96 274q-29 55 -60 107q-37 72 -36 112q0 53 75 172q129 203 129 377q0 23 -4 43q-14 45 -51 45t-80 -100q-37 -86 -47 -143q-90 -459 -117 -959 q0 -6 -4 -59q-25 -262 -35 -396q-33 -381 -39 -380q-51 0 -53 14zM195 176q0 -14 4 -35q29 -121 75 -121q66 0 66 142q0 35 -6 63q-9 44 -60 148q-80 -82 -79 -197z" />
<glyph unicode="&#xe0;" d="M-49 258q4 80 51 266q59 213 100 213q92 0 115 -47l37 -74l72 -24q-51 -150 -70 -367q-4 -47 8 -98q16 -72 51 -72q70 0 191 504q12 47 28.5 47t16.5 -31q0 -76 -76 -309q-86 -266 -147 -266q-76 0 -125 150q-51 -190 -137 -191q-121 0 -115 299zM-16 1192q0 35 39 43 q45 8 69 -31q23 -23 49 -47q51 -49 52 -63q-1 -9 -11 -29l-12 -12l-94 55q-2 0 -7.5 3t-14.5 8t-15 9q-55 35 -55 64zM14 117q0 -35 15 -66q18 -39 47 -39q39 23 82 158q37 117 45 182l24 189l-24 32q-8 94 -51 95q-33 0 -62 -99q-10 -33 -43 -143q-33 -125 -33 -309z" />
<glyph unicode="&#xe1;" d="M-49 258q4 80 51 266q59 213 100 213q92 0 115 -47l37 -74l72 -24q-51 -150 -70 -367q-4 -47 8 -98q16 -72 51 -72q70 0 191 504q12 47 28.5 47t16.5 -31q0 -76 -76 -309q-86 -266 -147 -266q-76 0 -125 150q-51 -190 -137 -191q-121 0 -115 299zM14 117q0 -35 15 -66 q18 -39 47 -39q39 23 82 158q37 117 45 182l24 189l-24 32q-8 94 -51 95q-33 0 -62 -99q-10 -33 -43 -143q-33 -125 -33 -309zM248 1094q0 14 51 63q25 25 49 47q25 39 70 31q41 -8 41 -43q0 -31 -58 -64q-2 -2 -7 -4t-14 -7t-15 -9l-95 -55l-10 16q-12 16 -12 25z" />
<glyph unicode="&#xe2;" d="M-49 258q4 80 51 266q59 213 100 213q92 0 115 -47l37 -74l72 -24q-51 -150 -70 -367q-4 -47 8 -98q16 -72 51 -72q70 0 191 504q12 47 28.5 47t16.5 -31q0 -76 -76 -309q-86 -266 -147 -266q-76 0 -125 150q-51 -190 -137 -191q-121 0 -115 299zM14 117q0 -35 15 -66 q18 -39 47 -39q39 23 82 158q37 117 45 182l24 189l-24 32q-8 94 -51 95q-33 0 -62 -99q-10 -33 -43 -143q-33 -125 -33 -309zM139 1116q6 29 66 84q57 55 84 55q8 2 23.5 -16t41.5 -57q51 -76 56 -111q1 -8 -11 -18q-10 0 -32 30q-31 53 -35 62q-20 33 -49 33t-62 -33 q-59 -59 -71 -53q-14 6 -11 24z" />
<glyph unicode="&#xe3;" d="M-49 258q4 80 51 266q59 213 100 213q92 0 115 -47l37 -74l72 -24q-51 -150 -70 -367q-4 -47 8 -98q16 -72 51 -72q70 0 191 504q12 47 28.5 47t16.5 -31q0 -76 -76 -309q-86 -266 -147 -266q-76 0 -125 150q-51 -190 -137 -191q-121 0 -115 299zM14 117q0 -35 15 -66 q18 -39 47 -39q39 23 82 158q37 117 45 182l24 189l-24 32q-8 94 -51 95q-33 0 -62 -99q-10 -33 -43 -143q-33 -125 -33 -309zM88 1155q0 80 53 92q35 8 107 -53q2 -2 16.5 -18.5t20.5 -22.5t18 -15.5t25 -11.5q4 -2 12 -2q23 0 70 78l8 10q8 -6 8 -32q0 -51 -27.5 -91 t-56.5 -40q-6 0 -14 4q-41 27 -95 82q-39 55 -77 55q-27 0 -39 -41q-10 -31 -19 -31q-10 0 -10 37z" />
<glyph unicode="&#xe4;" d="M-49 258q4 80 51 266q59 213 100 213q92 0 115 -47l37 -74l72 -24q-51 -150 -70 -367q-4 -47 8 -98q16 -72 51 -72q70 0 191 504q12 47 28.5 47t16.5 -31q0 -76 -76 -309q-86 -266 -147 -266q-76 0 -125 150q-51 -190 -137 -191q-121 0 -115 299zM14 117q0 -35 15 -66 q18 -39 47 -39q39 23 82 158q37 117 45 182l24 189l-24 32q-8 94 -51 95q-33 0 -62 -99q-10 -33 -43 -143q-33 -125 -33 -309zM41 1143q0 20 21.5 42.5t41.5 22.5q70 0 70 -75.5t-51 -75.5q-33 0 -57.5 26.5t-24.5 59.5zM199 1145q0 20 21.5 42.5t41.5 22.5q70 0 70 -75.5 t-51 -75.5q-33 0 -57.5 26.5t-24.5 59.5z" />
<glyph unicode="&#xe5;" d="M-49 258q4 80 51 266q59 213 100 213q92 0 115 -47l37 -74l72 -24q-51 -150 -70 -367q-4 -47 8 -98q16 -72 51 -72q70 0 191 504q12 47 28.5 47t16.5 -31q0 -76 -76 -309q-86 -266 -147 -266q-76 0 -125 150q-51 -190 -137 -191q-121 0 -115 299zM14 117q0 -35 15 -66 q18 -39 47 -39q39 23 82 158q37 117 45 182l24 189l-24 32q-8 94 -51 95q-33 0 -62 -99q-10 -33 -43 -143q-33 -125 -33 -309zM221 1126q-12 66 41 150q55 82 121 82q68 0 84 -74q10 -70 -47 -149q-56 -82 -117 -82q-66 0 -82 73zM274 1149q6 -35 35 -35q39 0 72 51 q35 53 29 90t-43 37q-33 0 -68 -53q-31 -53 -25 -90z" />
<glyph unicode="&#xe6;" horiz-adv-x="946" d="M-49 258q4 80 51 266q59 213 100 213q92 0 115 -47l37 -74l72 -24q-51 -150 -70 -367q-4 -47 8 -98q16 -72 51 -72q57 0 191 504l2 8q49 184 106 185q45 0 81 -31t36 -74q0 -152 -88 -340q-35 -78 -86 -157q0 -35 35 -80q35 -43 70 -43q98 0 221 467q31 117 39 116 q26 1 26 -24q0 -14 -30 -137q-78 -307 -154 -412q-47 -59 -109 -60q-86 0 -139 97q-43 80 -43 174v12q-82 -260 -145 -260q-76 0 -125 150q-51 -190 -137 -191q-121 0 -115 299zM14 117q0 -35 15 -66q18 -39 47 -39q39 23 82 158q37 117 45 182l24 189l-24 32q-8 94 -51 95 q-33 0 -62 -99q-10 -33 -43 -143q-33 -125 -33 -309zM547 225q47 29 90 185q39 135 39 215q0 70 -29 69q-16 0 -24 -26q-76 -227 -76 -443z" />
<glyph unicode="&#xe7;" horiz-adv-x="337" d="M-20 287q0 109 38 262q51 199 125 199q29 0 64 -43q35 -45 35 -74q0 -49 -35 -49q-27 0 -74 34q-84 -102 -84 -405q0 -47 17 -96q20 -63 63 -64q117 0 219 441q16 76 19 83q8 31 26 31q16 0 17 -35q0 -33 -37 -168q-51 -182 -72 -231q-68 -172 -141 -180 q-70 -76 -70 -101q0 -6 6 -10q61 -33 70 -94q8 -51 -60 -82q-106 -49 -106 -51t-4 -2q-8 0 -12 29q-2 27 0 34q41 12 63 19q51 14 47 49q-2 8 -6 14t-9 10.5t-15.5 7.5t-16.5 4t-20.5 3t-18.5 2q-6 6 -8 12q0 14 2 21q27 33 98 143q-121 43 -120 287z" />
<glyph unicode="&#xe8;" horiz-adv-x="389" d="M-70 1192q0 33 41 43q43 10 68 -31q23 -23 49 -47q51 -49 51 -63q0 -9 -10 -29l-12 -12l-94 55q-2 0 -7.5 3t-12.5 8t-15 9q-57 33 -58 64zM-12 244q0 133 26 280q39 223 113 224q45 0 81 -31t36 -74q0 -152 -88 -340q-35 -78 -86 -158q0 -35 34 -79q35 -43 70 -43 q98 0 221 466q31 117 39 117q27 1 27 -24q0 -14 -31 -138q-78 -307 -154 -411q-47 -59 -108 -60q-86 0 -139 97q-41 82 -41 174zM59 221q47 29 91 185q38 135 38 215q0 70 -28 69q-16 0 -25 -26q-76 -227 -76 -443z" />
<glyph unicode="&#xe9;" horiz-adv-x="389" d="M-12 244q0 133 26 280q39 223 113 224q45 0 81 -31t36 -74q0 -152 -88 -340q-35 -78 -86 -158q0 -35 34 -79q35 -43 70 -43q98 0 221 466q31 117 39 117q27 1 27 -24q0 -14 -31 -138q-78 -307 -154 -411q-47 -59 -108 -60q-86 0 -139 97q-41 82 -41 174zM59 221 q47 29 91 185q38 135 38 215q0 70 -28 69q-16 0 -25 -26q-76 -227 -76 -443zM248 1094q0 14 51 63q25 25 49 47q25 39 70 31q41 -8 41 -43q0 -31 -58 -64q-2 -2 -7 -4t-14 -7t-15 -9l-95 -55l-10 16q-12 16 -12 25z" />
<glyph unicode="&#xea;" horiz-adv-x="389" d="M-12 244q0 133 26 280q39 223 113 224q45 0 81 -31t36 -74q0 -152 -88 -340q-35 -78 -86 -158q0 -35 34 -79q35 -43 70 -43q98 0 221 466q31 117 39 117q27 1 27 -24q0 -14 -31 -138q-78 -307 -154 -411q-47 -59 -108 -60q-86 0 -139 97q-41 82 -41 174zM59 221 q47 29 91 185q38 135 38 215q0 70 -28 69q-16 0 -25 -26q-76 -227 -76 -443zM113 1116q6 29 65 84q57 55 84 55q8 2 23.5 -16t42.5 -57q53 -76 55 -111q2 -8 -10 -18q-12 0 -33 30q-31 53 -35 62q-20 33 -49 33t-61 -33q-59 -59 -72 -53q-14 6 -10 24z" />
<glyph unicode="&#xeb;" horiz-adv-x="389" d="M-12 244q0 133 26 280q39 223 113 224q45 0 81 -31t36 -74q0 -152 -88 -340q-35 -78 -86 -158q0 -35 34 -79q35 -43 70 -43q98 0 221 466q31 117 39 117q27 1 27 -24q0 -14 -31 -138q-78 -307 -154 -411q-47 -59 -108 -60q-86 0 -139 97q-41 82 -41 174zM41 1143 q0 20 21.5 42.5t41.5 22.5q70 0 70 -75.5t-51 -75.5q-33 0 -57.5 26.5t-24.5 59.5zM59 221q47 29 91 185q38 135 38 215q0 70 -28 69q-16 0 -25 -26q-76 -227 -76 -443zM199 1145q0 20 21.5 42.5t41.5 22.5q70 0 70 -75.5t-51 -75.5q-33 0 -57.5 26.5t-24.5 59.5z" />
<glyph unicode="&#xec;" horiz-adv-x="270" d="M-129 1192q0 33 41 43q45 8 70 -31l47 -47q51 -49 51 -63q0 -9 -10 -29l-13 -12l-92 55q-2 0 -7 3t-14.5 8t-15.5 9q-57 33 -57 64zM-12 205q0 63 16 223t16 225q14 14 41 15q53 0 54 -29q-2 -8 -6.5 -24.5t-10.5 -45t-12 -51.5q-39 -186 -39 -317q0 -137 62 -138 q29 0 69 103q2 2 68 209q23 70 49 182q12 49 29 49q18 1 18 -28q0 -51 -72 -285q-53 -168 -67 -201q-41 -90 -99 -90q-63 0 -94 74q-23 61 -22 129z" />
<glyph unicode="&#xed;" horiz-adv-x="270" d="M-12 205q0 63 16 223t16 225q14 14 41 15q53 0 54 -29q-2 -8 -6.5 -24.5t-10.5 -45t-12 -51.5q-39 -186 -39 -317q0 -137 62 -138q29 0 69 103q2 2 68 209q23 70 49 182q12 49 29 49q18 1 18 -28q0 -51 -72 -285q-53 -168 -67 -201q-41 -90 -99 -90q-63 0 -94 74 q-23 61 -22 129zM154 1094q0 14 51 63q25 25 49 47q25 39 70 31q41 -8 41 -43q0 -31 -58 -64q-2 -2 -7 -4t-14.5 -7t-15.5 -9l-94 -55l-10 16q-12 16 -12 25z" />
<glyph unicode="&#xee;" horiz-adv-x="270" d="M-12 205q0 63 16 223t16 225q14 14 41 15q53 0 54 -29q-2 -8 -6.5 -24.5t-10.5 -45t-12 -51.5q-39 -186 -39 -317q0 -137 62 -138q29 0 69 103q2 2 68 209q23 70 49 182q12 49 29 49q18 1 18 -28q0 -51 -72 -285q-53 -168 -67 -201q-41 -90 -99 -90q-63 0 -94 74 q-23 61 -22 129zM4 1116q6 29 66 84q57 55 84 55q8 2 23.5 -16t41.5 -57q51 -76 55 -111q2 -8 -10 -18q-10 0 -33 30q-31 53 -34 62q-20 33 -49 33t-62 -33q-59 -59 -72 -53q-14 6 -10 24z" />
<glyph unicode="&#xef;" horiz-adv-x="270" d="M-47 1137q0 20 21.5 42.5t39.5 22.5q70 0 70 -75.5t-51 -75.5q-31 0 -55.5 26.5t-24.5 59.5zM-12 205q0 63 16 223t16 225q14 14 41 15q53 0 54 -29q-2 -8 -6.5 -24.5t-10.5 -45t-12 -51.5q-39 -186 -39 -317q0 -137 62 -138q29 0 69 103q2 2 68 209q23 70 49 182 q12 49 29 49q18 1 18 -28q0 -51 -72 -285q-53 -168 -67 -201q-41 -90 -99 -90q-63 0 -94 74q-23 61 -22 129zM109 1139q0 20 21.5 42.5t41.5 22.5q70 0 70 -75.5t-52 -75.5q-33 0 -57 26.5t-24 59.5z" />
<glyph unicode="&#xf0;" horiz-adv-x="407" d="M-27 88q0 20 27 53q20 27 27 41q-20 80 -21 168q0 199 33 459q37 291 90 448q10 139 70 140q133 0 133 -178q0 -309 -74 -609q-49 -188 -115 -325q-6 -20 -49 -103q0 -37 41 -90q43 -51 78 -51q76 0 193 405q18 82 28 117q8 43 26.5 43t18.5 -31q0 -80 -82 -319 q-94 -285 -188 -285q-76 0 -166 140q-45 -35 -53 -35q-16 0 -17 12zM70 420q0 -55 14 -139q88 172 141 415q45 217 45 439q1 153 -32 186q-84 -238 -129 -526q-39 -231 -39 -375z" />
<glyph unicode="&#xf1;" horiz-adv-x="579" d="M23 526q2 55 10 74q12 33 51 33q41 0 41 -37q0 -12 -14 -53q-12 -39 -13 -66q0 -61 -2 -110.5t-2 -110.5q0 -147 33 -147q10 0 27 53q29 119 43 155q61 190 69 318q6 86 29 102q104 -6 104 -65q0 59 -10 -8q-4 -37 -12 -109q-20 -193 -21 -260q0 -221 58 -221 q49 0 118 217q47 147 70 252q14 63 33 63q16 0 16 -31q0 -57 -71 -278q-98 -297 -158 -297q-76 0 -105 145q-14 74 -26 353q-39 -133 -107 -402q-20 -88 -63 -88q-61 0 -78 86l-8 154q-6 90 0 164l6 75zM88 1155q0 80 53 92q35 8 107 -53q2 -2 16.5 -18.5t20.5 -22.5 t18 -15.5t25 -11.5q4 -2 12 -2q23 0 70 78l8 10q8 -6 8 -32q0 -51 -27.5 -91t-56.5 -40q-6 0 -14 4q-41 27 -95 82q-39 55 -77 55q-27 0 -39 -41q-10 -31 -19 -31q-10 0 -10 37z" />
<glyph unicode="&#xf2;" horiz-adv-x="505" d="M-70 1192q0 33 41 43q43 10 68 -31q23 -23 49 -47q51 -49 51 -63q0 -9 -10 -29l-12 -12l-94 55q-2 0 -7.5 3t-12.5 8t-15 9q-57 33 -58 64zM0 287q0 195 33 262q0 -6 0 2q-2 6 -2 12q-2 18 -2 37q2 18 12 29q2 8 20 86q14 70 70 69q53 0 111 -45q59 -45 75 -92 q16 -49 17 -297q29 -23 51 -22q74 0 107 80q16 31 43 161q10 37 24 37q19 0 19 -18q0 -90 -54 -213q-47 -109 -125 -109q-10 0 -71 25q-4 -20 -25 -115q-37 -102 -53 -129q-41 -66 -100 -65q-150 0 -150 305zM70 262q0 -221 90 -221q23 0 59 82q49 109 49 162q0 39 -16 131 t-16 129q0 8 3 45t3 45q0 72 -66 72q-43 0 -76 -193q-31 -166 -30 -252z" />
<glyph unicode="&#xf3;" horiz-adv-x="505" d="M0 287q0 195 33 262q0 -6 0 2q-2 6 -2 12q-2 18 -2 37q2 18 12 29q2 8 20 86q14 70 70 69q53 0 111 -45q59 -45 75 -92q16 -49 17 -297q29 -23 51 -22q74 0 107 80q16 31 43 161q10 37 24 37q19 0 19 -18q0 -90 -54 -213q-47 -109 -125 -109q-10 0 -71 25 q-4 -20 -25 -115q-37 -102 -53 -129q-41 -66 -100 -65q-150 0 -150 305zM70 262q0 -221 90 -221q23 0 59 82q49 109 49 162q0 39 -16 131t-16 129q0 8 3 45t3 45q0 72 -66 72q-43 0 -76 -193q-31 -166 -30 -252zM248 1094q0 14 51 63q25 25 49 47q25 39 70 31q41 -8 41 -43 q0 -31 -58 -64q-2 -2 -7 -4t-14 -7t-15 -9l-95 -55l-10 16q-12 16 -12 25z" />
<glyph unicode="&#xf4;" horiz-adv-x="505" d="M0 287q0 195 33 262q0 -6 0 2q-2 6 -2 12q-2 18 -2 37q2 18 12 29q2 8 20 86q14 70 70 69q53 0 111 -45q59 -45 75 -92q16 -49 17 -297q29 -23 51 -22q74 0 107 80q16 31 43 161q10 37 24 37q19 0 19 -18q0 -90 -54 -213q-47 -109 -125 -109q-10 0 -71 25 q-4 -20 -25 -115q-37 -102 -53 -129q-41 -66 -100 -65q-150 0 -150 305zM70 262q0 -221 90 -221q23 0 59 82q49 109 49 162q0 39 -16 131t-16 129q0 8 3 45t3 45q0 72 -66 72q-43 0 -76 -193q-31 -166 -30 -252zM139 1116q6 29 66 84q57 55 84 55q8 2 23.5 -16t41.5 -57 q51 -76 56 -111q1 -8 -11 -18q-10 0 -32 30q-31 53 -35 62q-20 33 -49 33t-62 -33q-59 -59 -71 -53q-14 6 -11 24z" />
<glyph unicode="&#xf5;" horiz-adv-x="505" d="M0 287q0 195 33 262q0 -6 0 2q-2 6 -2 12q-2 18 -2 37q2 18 12 29q2 8 20 86q14 70 70 69q53 0 111 -45q59 -45 75 -92q16 -49 17 -297q29 -23 51 -22q74 0 107 80q16 31 43 161q10 37 24 37q19 0 19 -18q0 -90 -54 -213q-47 -109 -125 -109q-10 0 -71 25 q-4 -20 -25 -115q-37 -102 -53 -129q-41 -66 -100 -65q-150 0 -150 305zM70 262q0 -221 90 -221q23 0 59 82q49 109 49 162q0 39 -16 131t-16 129q0 8 3 45t3 45q0 72 -66 72q-43 0 -76 -193q-31 -166 -30 -252zM88 1155q0 80 53 92q35 8 107 -53q2 -2 16.5 -18.5 t20.5 -22.5t18 -15.5t25 -11.5q4 -2 12 -2q23 0 70 78l8 10q8 -6 8 -32q0 -51 -27.5 -91t-56.5 -40q-6 0 -14 4q-41 27 -95 82q-39 55 -77 55q-27 0 -39 -41q-10 -31 -19 -31q-10 0 -10 37z" />
<glyph unicode="&#xf6;" horiz-adv-x="505" d="M0 287q0 195 33 262q0 -6 0 2q-2 6 -2 12q-2 18 -2 37q2 18 12 29q2 8 20 86q14 70 70 69q53 0 111 -45q59 -45 75 -92q16 -49 17 -297q29 -23 51 -22q74 0 107 80q16 31 43 161q10 37 24 37q19 0 19 -18q0 -90 -54 -213q-47 -109 -125 -109q-10 0 -71 25 q-4 -20 -25 -115q-37 -102 -53 -129q-41 -66 -100 -65q-150 0 -150 305zM41 1143q0 20 21.5 42.5t41.5 22.5q70 0 70 -75.5t-51 -75.5q-33 0 -57.5 26.5t-24.5 59.5zM70 262q0 -221 90 -221q23 0 59 82q49 109 49 162q0 39 -16 131t-16 129q0 8 3 45t3 45q0 72 -66 72 q-43 0 -76 -193q-31 -166 -30 -252zM199 1145q0 20 21.5 42.5t41.5 22.5q70 0 70 -75.5t-51 -75.5q-33 0 -57.5 26.5t-24.5 59.5z" />
<glyph unicode="&#xf7;" horiz-adv-x="1228" d="M109 469v98h1011v-98h-1011zM502 86q0 47 33.5 81t78.5 34t79 -35t34 -80q0 -43 -34 -78t-77 -35q-47 0 -80.5 34t-33.5 79zM502 950q0 47 33.5 81t78.5 34t79 -35t34 -80q0 -43 -34 -78.5t-77 -35.5q-47 0 -80.5 34.5t-33.5 79.5z" />
<glyph unicode="&#xf8;" horiz-adv-x="591" d="M-35 215l117 86q4 182 33 248q0 -6 0 2q-2 6 -2 12q-2 18 -2 37q2 18 12 29q2 8 20 86q14 70 70 69q53 0 111 -45q63 -47 77 -94q6 -16 11 -102l88 63l30 -43l-116 -84q2 -37 2 -129q29 -23 51 -22q74 0 106 80q16 31 43 161q10 37 25 37q18 0 18 -18q0 -90 -53 -213 q-47 -109 -125 -109q-10 0 -71 25q-4 -20 -25 -115q-37 -102 -53 -129q-41 -66 -101 -65q-137 0 -149 256l-88 -66zM152 262q0 -221 90 -221q23 0 59 82q49 109 49 162q0 59 -14 137l-184 -133v-27zM158 356l168 123q-8 43 -9 66q0 8 3.5 45t3.5 45q0 72 -66 72 q-43 0 -76 -193q-14 -86 -24 -158z" />
<glyph unicode="&#xf9;" horiz-adv-x="565" d="M-70 1192q0 33 41 43q43 10 68 -31q23 -23 49 -47q51 -49 51 -63q0 -9 -10 -29l-12 -12l-94 55q-2 0 -7.5 3t-12.5 8t-15 9q-57 33 -58 64zM14 154q0 104 9 252q8 209 22 231q10 16 35 16q20 0 36.5 -17.5t16.5 -37.5t-8 -47q-8 -33 -12 -47q-29 -166 -29 -381 q0 -90 39 -90q31 0 57 51q25 53 35 80q45 106 68 266q0 2 14 88q10 66 10 88l-2 78q6 53 41 49q59 0 60 -33q0 -6 -11.5 -34.5t-13.5 -40.5q0 -23 -21 -154q-16 -121 -16 -188q0 -195 59 -195q55 0 119 217q25 88 74 270q10 31 25 31q16 0 16 -24q0 -72 -70 -287 q-86 -272 -170 -272q-45 0 -78 67q-8 12 -36 107q-10 -25 -32 -76t-32 -76q-37 -63 -96 -63q-53 0 -84 61q-25 51 -25 111z" />
<glyph unicode="&#xfa;" horiz-adv-x="565" d="M14 154q0 104 9 252q8 209 22 231q10 16 35 16q20 0 36.5 -17.5t16.5 -37.5t-8 -47q-8 -33 -12 -47q-29 -166 -29 -381q0 -90 39 -90q31 0 57 51q25 53 35 80q45 106 68 266q0 2 14 88q10 66 10 88l-2 78q6 53 41 49q59 0 60 -33q0 -6 -11.5 -34.5t-13.5 -40.5 q0 -23 -21 -154q-16 -121 -16 -188q0 -195 59 -195q55 0 119 217q25 88 74 270q10 31 25 31q16 0 16 -24q0 -72 -70 -287q-86 -272 -170 -272q-45 0 -78 67q-8 12 -36 107q-10 -25 -32 -76t-32 -76q-37 -63 -96 -63q-53 0 -84 61q-25 51 -25 111zM248 1094q0 14 51 63 q25 25 49 47q25 39 70 31q41 -8 41 -43q0 -31 -58 -64q-2 -2 -7 -4t-14 -7t-15 -9l-95 -55l-10 16q-12 16 -12 25z" />
<glyph unicode="&#xfb;" horiz-adv-x="565" d="M14 154q0 104 9 252q8 209 22 231q10 16 35 16q20 0 36.5 -17.5t16.5 -37.5t-8 -47q-8 -33 -12 -47q-29 -166 -29 -381q0 -90 39 -90q31 0 57 51q25 53 35 80q45 106 68 266q0 2 14 88q10 66 10 88l-2 78q6 53 41 49q59 0 60 -33q0 -6 -11.5 -34.5t-13.5 -40.5 q0 -23 -21 -154q-16 -121 -16 -188q0 -195 59 -195q55 0 119 217q25 88 74 270q10 31 25 31q16 0 16 -24q0 -72 -70 -287q-86 -272 -170 -272q-45 0 -78 67q-8 12 -36 107q-10 -25 -32 -76t-32 -76q-37 -63 -96 -63q-53 0 -84 61q-25 51 -25 111zM119 1116q6 29 65 84 q57 55 84 55q8 2 23.5 -16t42.5 -57q51 -76 55 -111q2 -8 -10 -18q-10 0 -33 30q-31 53 -35 62q-20 33 -49 33t-61 -33q-59 -59 -72 -53q-14 6 -10 24z" />
<glyph unicode="&#xfc;" horiz-adv-x="565" d="M14 154q0 104 9 252q8 209 22 231q10 16 35 16q20 0 36.5 -17.5t16.5 -37.5t-8 -47q-8 -33 -12 -47q-29 -166 -29 -381q0 -90 39 -90q31 0 57 51q25 53 35 80q45 106 68 266q0 2 14 88q10 66 10 88l-2 78q6 53 41 49q59 0 60 -33q0 -6 -11.5 -34.5t-13.5 -40.5 q0 -23 -21 -154q-16 -121 -16 -188q0 -195 59 -195q55 0 119 217q25 88 74 270q10 31 25 31q16 0 16 -24q0 -72 -70 -287q-86 -272 -170 -272q-45 0 -78 67q-8 12 -36 107q-10 -25 -32 -76t-32 -76q-37 -63 -96 -63q-53 0 -84 61q-25 51 -25 111zM41 1143q0 20 21.5 42.5 t41.5 22.5q70 0 70 -75.5t-51 -75.5q-33 0 -57.5 26.5t-24.5 59.5zM199 1145q0 20 21.5 42.5t41.5 22.5q70 0 70 -75.5t-51 -75.5q-33 0 -57.5 26.5t-24.5 59.5z" />
<glyph unicode="&#xfd;" horiz-adv-x="491" d="M-197 14q0 21 35 35q37 0 105 207q47 145 84 303q12 47 28.5 47t16.5 -31q0 -61 -80 -311q-90 -268 -142 -268q-47 0 -47 18zM-172 -592q0 150 184 283q145 102 279 131q0 219 -31 342q-10 -29 -53 -117q-35 -66 -84 -65q-66 0 -98 67q-27 53 -27 125q0 100 18 291 q0 18 3.5 59t5.5 62q16 92 53 92q16 0 24.5 -7t6.5 -22l-23 -209q-16 -174 -16 -247q0 -166 53 -166t133 307q4 27 19.5 149.5t27.5 223.5q6 51 55 53q33 2 33 -27q0 -47 -43 -201q-20 -70 -16 -415q0 -59 6 -185l4 -90q4 0 80 21q66 16 92 16q90 0 90 -47q0 -8 -6 -18 q-86 14 -121 14q-33 0 -125 -31q0 -18 3 -77.5t3 -77.5q0 -469 -301 -469q-98 0 -163.5 67.5t-65.5 167.5zM-111 -612q0 -68 44 -120t106 -52q133 0 203 149q55 119 55 264v148q-180 -49 -301 -170q-106 -104 -107 -219zM248 1094q0 14 51 63q25 25 49 47q25 39 70 31 q41 -8 41 -43q0 -31 -58 -64q-2 -2 -7 -4t-14 -7t-15 -9l-95 -55l-10 16q-12 16 -12 25z" />
<glyph unicode="&#xfe;" horiz-adv-x="731" d="M47 -27q0 12 14.5 48t14.5 40q45 217 86 619q-33 80 -33 129q0 102 51 102q43 0 43 -80q0 -12 -3 -56t-3 -56q0 -23 86 -68q88 -45 88 -102q0 -66 -14 -187q-16 -121 -12 -186l-7 -18q0 -109 58 -109q33 0 90 168q70 213 84 303q-8 86 22 86q20 0 21 -22l-10 -58 q-29 -209 -78 -350q-61 -180 -125 -180q-45 0 -82 51q-35 53 -35 103l4 423q-66 66 -84 66q-23 0 -26 -31l2 -49q-33 -221 -113 -610q-39 -2 -39 24z" />
<glyph unicode="&#xff;" horiz-adv-x="491" d="M-197 14q0 21 35 35q37 0 105 207q47 145 84 303q12 47 28.5 47t16.5 -31q0 -61 -80 -311q-90 -268 -142 -268q-47 0 -47 18zM-172 -592q0 150 184 283q145 102 279 131q0 219 -31 342q-10 -29 -53 -117q-35 -66 -84 -65q-66 0 -98 67q-27 53 -27 125q0 100 18 291 q0 18 3.5 59t5.5 62q16 92 53 92q16 0 24.5 -7t6.5 -22l-23 -209q-16 -174 -16 -247q0 -166 53 -166t133 307q4 27 19.5 149.5t27.5 223.5q6 51 55 53q33 2 33 -27q0 -47 -43 -201q-20 -70 -16 -415q0 -59 6 -185l4 -90q4 0 80 21q66 16 92 16q90 0 90 -47q0 -8 -6 -18 q-86 14 -121 14q-33 0 -125 -31q0 -18 3 -77.5t3 -77.5q0 -469 -301 -469q-98 0 -163.5 67.5t-65.5 167.5zM-111 -612q0 -68 44 -120t106 -52q133 0 203 149q55 119 55 264v148q-180 -49 -301 -170q-106 -104 -107 -219zM41 1143q0 20 21.5 42.5t41.5 22.5q70 0 70 -75.5 t-51 -75.5q-33 0 -57.5 26.5t-24.5 59.5zM199 1145q0 20 21.5 42.5t41.5 22.5q70 0 70 -75.5t-51 -75.5q-33 0 -57.5 26.5t-24.5 59.5z" />
<glyph unicode="&#x152;" horiz-adv-x="1945" d="M0 483q0 201 47 412q55 242 156 381q45 66 67 96q49 61 92 62q10 0 48 -17q16 10 26 10q408 -27 408 -563q0 -135 -13 -252q82 80 246 164q-100 35 -149 78q-59 55 -60 150q0 207 316 311q225 74 481 74q94 0 131 -15q72 -23 72 -94q0 -61 -25 -61q-23 23 -69 57 q-33 18 -99 18q-221 0 -440 -61q-309 -88 -309 -254q0 -70 104 -111q74 -27 164 -26q27 0 190 12q156 10 177 8q29 -18 24 -61q-4 -43 -33 -53q-47 29 -71 28q-170 0 -373 -78q-231 -90 -297 -223q0 -2 -3 -15.5t-10 -41t-14 -56.5q0 -166 209 -241q150 -55 346 -55 q78 0 199 20q137 20 191 49q135 70 135 86q0 4 -6 4v39q71 0 71 -43q0 -104 -254 -184q-203 -63 -344 -64q-256 0 -424 101q-123 76 -162 182q-119 -285 -346 -285q-195 0 -303 164q-96 145 -96 348zM109 487q0 -453 276 -452q383 -1 383 839q0 184 -53 314 q-74 176 -236 176q-158 0 -274 -352q-96 -293 -96 -525z" />
<glyph unicode="&#x153;" horiz-adv-x="974" d="M0 287q0 195 33 262q0 -6 0 2q-2 6 -2 12q-2 18 -2 37q2 18 12 29q2 8 20 86q14 70 70 69q53 0 111 -45q59 -45 75 -92q16 -49 17 -297q29 -23 51 -22q74 0 107 80q16 31 43 161q0 2 1 8.5t3 8.5l4 12q43 154 98 154q45 0 81 -31t36 -74q0 -152 -88 -340 q-35 -78 -86 -157q0 -35 34 -80q33 -43 70 -43q98 0 221 467q31 117 39 116q27 1 27 -24q0 -14 -31 -137q-76 -307 -153 -412q-47 -59 -109 -60q-86 0 -139 97q-43 80 -43 174q0 57 2 84q-43 -66 -103 -66q-10 0 -71 25q-4 -20 -25 -115q-37 -102 -53 -129q-41 -66 -100 -65 q-150 0 -150 305zM70 262q0 -221 90 -221q23 0 59 82q49 109 49 162q0 39 -16 131t-16 129q0 8 3 45t3 45q0 72 -66 72q-43 0 -76 -193q-31 -166 -30 -252zM573 225q47 29 91 185q38 135 38 215q0 70 -28 69q-16 0 -25 -26q-76 -227 -76 -443z" />
<glyph unicode="&#x178;" horiz-adv-x="823" d="M-121 -348q0 37 53 37q18 0 137 -94.5t199 -94.5q358 0 359 596q0 123 -15 326q-70 -205 -104 -266q-90 -160 -211 -160q-154 0 -223 135q-55 109 -56 272q0 109 23 363q25 242 25 362q0 8 -2.5 39t-2.5 39q0 63 37 64q16 0 101 -70q0 -12 -11 -57q-4 -16 -16 -62 q-59 -367 -59 -673q0 -362 166 -363q115 0 215 203q90 178 118 399q37 311 58 670q2 39 57 37q68 -2 70 -51q-51 -209 -66 -308q-33 -211 -33 -530q0 -70 11 -264q12 -174 12 -262q0 -172 -100 -324q-115 -170 -277 -170q-82 0 -262 66q-203 76 -203 141zM315 1661 q0 20 21.5 42.5t42.5 22.5q70 0 70 -75.5t-52 -75.5q-33 0 -57.5 26.5t-24.5 59.5zM473 1663q0 20 21.5 43t42.5 23q69 0 69 -76t-51 -76q-33 0 -57.5 26.5t-24.5 59.5z" />
<glyph unicode="&#x2c6;" horiz-adv-x="389" d="M113 1116q6 29 65 84q57 55 84 55q8 2 23.5 -16t42.5 -57q53 -76 55 -111q2 -8 -10 -18q-12 0 -33 30q-31 53 -35 62q-20 33 -49 33t-61 -33q-59 -59 -72 -53q-14 6 -10 24z" />
<glyph unicode="&#x2dc;" d="M88 1155q0 80 53 92q35 8 107 -53q2 -2 16.5 -18.5t20.5 -22.5t18 -15.5t25 -11.5q4 -2 12 -2q23 0 70 78l8 10q8 -6 8 -32q0 -51 -27.5 -91t-56.5 -40q-6 0 -14 4q-41 27 -95 82q-39 55 -77 55q-27 0 -39 -41q-10 -31 -19 -31q-10 0 -10 37z" />
<glyph unicode="&#x2000;" horiz-adv-x="941" />
<glyph unicode="&#x2001;" horiz-adv-x="1882" />
<glyph unicode="&#x2002;" horiz-adv-x="941" />
<glyph unicode="&#x2003;" horiz-adv-x="1882" />
<glyph unicode="&#x2004;" horiz-adv-x="627" />
<glyph unicode="&#x2005;" horiz-adv-x="470" />
<glyph unicode="&#x2006;" horiz-adv-x="313" />
<glyph unicode="&#x2007;" horiz-adv-x="313" />
<glyph unicode="&#x2008;" horiz-adv-x="235" />
<glyph unicode="&#x2009;" horiz-adv-x="376" />
<glyph unicode="&#x200a;" horiz-adv-x="104" />
<glyph unicode="&#x2010;" horiz-adv-x="600" d="M100 365q0 37 45 45l107 10q115 6 199 10q2 0 22.5 3t36.5 5q33 6 33 -8q0 -18 -25.5 -36.5t-52.5 -22.5q-156 -4 -238 -11q-8 0 -37.5 -3t-50.5 -5q-39 -2 -39 13z" />
<glyph unicode="&#x2011;" horiz-adv-x="600" d="M100 365q0 37 45 45l107 10q115 6 199 10q2 0 22.5 3t36.5 5q33 6 33 -8q0 -18 -25.5 -36.5t-52.5 -22.5q-156 -4 -238 -11q-8 0 -37.5 -3t-50.5 -5q-39 -2 -39 13z" />
<glyph unicode="&#x2012;" horiz-adv-x="600" d="M100 365q0 37 45 45l107 10q115 6 199 10q2 0 22.5 3t36.5 5q33 6 33 -8q0 -18 -25.5 -36.5t-52.5 -22.5q-156 -4 -238 -11q-8 0 -37.5 -3t-50.5 -5q-39 -2 -39 13z" />
<glyph unicode="&#x2013;" horiz-adv-x="614" d="M8 365q0 37 45 45q23 8 107 10q326 10 350 10q2 0 22.5 3t36.5 5q33 6 33 -8q0 -18 -25.5 -36.5t-52.5 -22.5q-272 -4 -389 -11q-8 0 -37.5 -3t-50.5 -5q-39 -2 -39 13z" />
<glyph unicode="&#x2014;" horiz-adv-x="1228" d="M53 365q0 37 45 45q18 6 107 10q16 0 483 -6q299 -6 479 24q33 6 33 -8q0 -18 -25.5 -36.5t-52.5 -22.5q-791 -8 -942 -11q-8 0 -37.5 -3t-50.5 -5q-39 -2 -39 13z" />
<glyph unicode="&#x2018;" horiz-adv-x="258" d="M27 1350q61 2 71 -29q19 -68 103 -344q4 -10 -4.5 -16.5t-28.5 -6.5q-29 0 -33 19q-6 31 -69 221q-43 127 -39 156z" />
<glyph unicode="&#x2019;" horiz-adv-x="258" d="M82 1057q41 88 117 334q51 -33 51 -70q0 -45 -80 -205q-35 -92 -55 -92q-31 0 -33 33z" />
<glyph unicode="&#x201a;" horiz-adv-x="258" d="M82 -68q41 84 117 332q51 -32 51 -69q0 -47 -80 -203q-35 -92 -55 -92q-31 0 -33 32z" />
<glyph unicode="&#x201c;" horiz-adv-x="507" d="M106 1350q61 0 72 -29q23 -86 103 -344q0 -25 -35 -25q-29 0 -31 21q-10 49 -70 215q-43 123 -39 162zM211 1411q47 0 57.5 -13.5t22.5 -72.5q43 -141 90 -311q-10 0 -20.5 -1t-16.5 -2t-8 -1q-20 2 -27 28q-51 178 -98 373z" />
<glyph unicode="&#x201d;" horiz-adv-x="507" d="M98 1024q0 29 107 209q12 41 59 168q39 -25 37 -37q-6 -51 -94 -236q-61 -133 -80 -133q-29 0 -29 29zM203 977q0 14 37 90l69 147q12 47 64 158q41 -29 37 -37q-16 -88 -58 -176q-2 -4 -34.5 -67.5t-49.5 -94.5q-20 -45 -41 -45q-25 0 -24 25z" />
<glyph unicode="&#x201e;" horiz-adv-x="507" d="M98 -100q0 31 107 206q12 41 59 168q39 -24 37 -36q-6 -51 -94 -236q-61 -131 -80 -131q-29 0 -29 29zM203 -147q0 12 37 90l69 145q12 47 64 158q41 -29 37 -37q-16 -88 -58 -176q-57 -106 -84 -162q-23 -43 -41 -43q-25 0 -24 25z" />
<glyph unicode="&#x2022;" horiz-adv-x="811" d="M102 610q0 381 357 381q150 0 205 -96q36 -64 36 -209q0 -152 -104 -262q-104 -109 -256 -109q-109 0 -176 97q-61 84 -62 198z" />
<glyph unicode="&#x2026;" horiz-adv-x="1228" d="M143 39q0 25 19.5 48.5t42.5 23.5q61 -1 61 -52q0 -78 -61.5 -77.5t-61.5 57.5zM553 39q0 25 19.5 48.5t41.5 23.5q62 -1 62 -52q0 -78 -61.5 -77.5t-61.5 57.5zM963 39q0 25 19 48.5t42 23.5q61 -1 61 -52q0 -78 -61 -77.5t-61 57.5z" />
<glyph unicode="&#x202f;" horiz-adv-x="376" />
<glyph unicode="&#x2039;" horiz-adv-x="491" d="M74 455v18l57 47q145 117 279 262h6l22 -26q-71 -93 -200 -189l-29 -20q125 -143 201 -338l-142 -82h-8q-78 211 -186 328z" />
<glyph unicode="&#x203a;" horiz-adv-x="491" d="M74 154q61 74 227 213q-72 82 -188 305l-15 26l142 84h8q84 -225 192 -329v-17q-199 -147 -338 -309h-6z" />
<glyph unicode="&#x205f;" horiz-adv-x="470" />
<glyph unicode="&#x2122;" horiz-adv-x="1933" d="M14 1327q0 63 78 86q23 2 180 25q129 16 418 28q272 10 334 11q23 0 35 -7.5t10 -21.5q-4 -29 -37 -29q-193 0 -393 -16q-59 -340 -82 -733q-2 -41 10 -148q-23 6 -49 19q-31 31 -31 116q0 127 21 340q23 238 22 340q0 37 -2 52q-55 0 -141 -7q-317 -23 -317 -79 q0 -39 123 -39q141 0 288 45q-41 -61 -75 -70q-117 -33 -230 -33q-162 0 -162 121zM645 567l19 8q100 -20 120 -20q158 0 310 502q70 229 69 379q0 70 49 69q29 0 93 -47q-16 -43 -17 -213q0 -229 27 -395q35 -213 92 -213q41 0 131 274q78 236 113 414q0 2 4 92q2 55 20 64 q53 -4 76 -8q53 -10 57 -35q-23 -47 -43 -281q-18 -207 -18 -301q0 -147 10 -219q25 -152 107 -170q-20 -43 -41 -43q-84 0 -125 219q-27 135 -27 281q0 82 2 145q4 131 4 148q0 -2 -1 -5.5t-3 -9.5t-4 -10q-8 -29 -42 -141.5t-58 -198.5q-96 -301 -174 -301 q-100 0 -150 280q-16 117 -49 353q-31 -45 -92 -246q-63 -203 -115 -289q-96 -160 -211 -160q-78 0 -133 78z" />
<glyph unicode="&#x25fc;" horiz-adv-x="757" d="M0 0v758h758v-758h-758z" />
<glyph unicode="&#xfb01;" horiz-adv-x="362" d="M-27 -344q12 831 142 1667q16 14 63 14q35 0 62 -24q-51 -76 -70 -185q-88 -512 -109 -845q43 -6 78 -66q8 -12 41 -96q59 -16 113 110q21 47 78 254q12 137 12 168q14 14 41 15q53 0 53 -29q-2 -8 -6 -24.5t-10 -45t-12 -51.5q-39 -186 -39 -317q0 -137 61 -138 q29 0 70 103q4 2 67 209q23 70 49 182q12 49 29 49q18 0 19 -28q0 -51 -72 -285q-53 -168 -68 -201q-41 -90 -98 -90q-63 0 -94 74q-25 59 -25 129q0 27 2 37q-2 -2 -2 -4q-23 -88 -72 -129q-25 -23 -79 -43q57 -236 57 -381q0 -283 -70 -402q-10 -16 -51 -16 q-166 0 -160 389zM37 -348q0 -76 16 -184q27 -150 70 -150q39 0 63 145q21 105 21 181q0 258 -64 417q-53 27 -82 84q-25 -297 -24 -493zM403 1143q0 20 21.5 42.5t42.5 22.5q70 0 70 -75.5t-52 -75.5q-33 0 -57.5 26.5t-24.5 59.5z" />
<glyph unicode="&#xfb02;" horiz-adv-x="362" d="M-27 -344q12 831 142 1667q16 14 63 14q35 0 62 -24q-51 -76 -70 -185q-88 -512 -109 -845q43 -6 78 -66q8 -12 41 -96q102 -6 195 86q-6 41 -6 143q0 199 32 459q37 291 91 448q10 139 69 140q133 0 133 -178q0 -229 -43 -482q-51 -293 -141 -456q-27 -51 -49 -68 q0 -39 39 -102q39 -70 75 -70q76 0 193 405q18 82 29 117q10 43 26 43q18 0 19 -31q0 -80 -82 -319q-94 -285 -189 -285q-110 1 -182 183q-86 -80 -192 -88q57 -236 57 -381q0 -283 -70 -402q-10 -16 -51 -16q-166 0 -160 389zM37 -348q0 -76 16 -184q27 -150 70 -150 q39 0 63 145q21 105 21 181q0 258 -64 417q-53 27 -82 84q-25 -297 -24 -493zM432 420q0 -37 17 -146q184 348 184 861q0 153 -33 186q-84 -238 -129 -526q-39 -231 -39 -375z" />
</font>
</defs>
</svg>
